%FSLAX25Y25*%
%MOIN*%
G70*
G01*
G75*
G04 Layer_Color=2752767*
G04:AMPARAMS|DCode=10|XSize=118.11mil|YSize=196.85mil|CornerRadius=29.53mil|HoleSize=0mil|Usage=FLASHONLY|Rotation=90.000|XOffset=0mil|YOffset=0mil|HoleType=Round|Shape=RoundedRectangle|*
%AMROUNDEDRECTD10*
21,1,0.11811,0.13780,0,0,90.0*
21,1,0.05906,0.19685,0,0,90.0*
1,1,0.05906,0.06890,0.02953*
1,1,0.05906,0.06890,-0.02953*
1,1,0.05906,-0.06890,-0.02953*
1,1,0.05906,-0.06890,0.02953*
%
%ADD10ROUNDEDRECTD10*%
%ADD11R,0.03000X0.03543*%
%ADD12R,0.03543X0.03000*%
%ADD13O,0.07087X0.01181*%
%ADD14O,0.01181X0.07087*%
%ADD15O,0.03543X0.05906*%
%ADD16R,0.03543X0.05906*%
%ADD17R,0.04921X0.03937*%
%ADD18R,0.03937X0.04921*%
%ADD19R,0.12598X0.09449*%
%ADD20R,0.15000X0.19685*%
%ADD21R,0.06693X0.05000*%
%ADD22R,0.05000X0.06693*%
%ADD23O,0.03150X0.11811*%
%ADD24R,0.03150X0.11811*%
%ADD25R,0.07874X0.03543*%
%ADD26R,0.03543X0.01181*%
%ADD27O,0.03543X0.01181*%
%ADD28R,0.06299X0.06000*%
%ADD29O,0.08661X0.02362*%
%ADD30R,0.08661X0.02362*%
G04:AMPARAMS|DCode=31|XSize=94.49mil|YSize=13.78mil|CornerRadius=0mil|HoleSize=0mil|Usage=FLASHONLY|Rotation=225.000|XOffset=0mil|YOffset=0mil|HoleType=Round|Shape=Round|*
%AMOVALD31*
21,1,0.08071,0.01378,0.00000,0.00000,225.0*
1,1,0.01378,0.02854,0.02854*
1,1,0.01378,-0.02854,-0.02854*
%
%ADD31OVALD31*%

G04:AMPARAMS|DCode=32|XSize=94.49mil|YSize=13.78mil|CornerRadius=0mil|HoleSize=0mil|Usage=FLASHONLY|Rotation=225.000|XOffset=0mil|YOffset=0mil|HoleType=Round|Shape=Rectangle|*
%AMROTATEDRECTD32*
4,1,4,0.02854,0.03828,0.03828,0.02854,-0.02854,-0.03828,-0.03828,-0.02854,0.02854,0.03828,0.0*
%
%ADD32ROTATEDRECTD32*%

G04:AMPARAMS|DCode=33|XSize=9.84mil|YSize=59.06mil|CornerRadius=0mil|HoleSize=0mil|Usage=FLASHONLY|Rotation=225.000|XOffset=0mil|YOffset=0mil|HoleType=Round|Shape=Rectangle|*
%AMROTATEDRECTD33*
4,1,4,-0.01740,0.02436,0.02436,-0.01740,0.01740,-0.02436,-0.02436,0.01740,-0.01740,0.02436,0.0*
%
%ADD33ROTATEDRECTD33*%

G04:AMPARAMS|DCode=34|XSize=9.84mil|YSize=59.06mil|CornerRadius=0mil|HoleSize=0mil|Usage=FLASHONLY|Rotation=135.000|XOffset=0mil|YOffset=0mil|HoleType=Round|Shape=Rectangle|*
%AMROTATEDRECTD34*
4,1,4,0.02436,0.01740,-0.01740,-0.02436,-0.02436,-0.01740,0.01740,0.02436,0.02436,0.01740,0.0*
%
%ADD34ROTATEDRECTD34*%

G04:AMPARAMS|DCode=35|XSize=9.84mil|YSize=59.06mil|CornerRadius=0mil|HoleSize=0mil|Usage=FLASHONLY|Rotation=225.000|XOffset=0mil|YOffset=0mil|HoleType=Round|Shape=Round|*
%AMOVALD35*
21,1,0.04921,0.00984,0.00000,0.00000,315.0*
1,1,0.00984,-0.01740,0.01740*
1,1,0.00984,0.01740,-0.01740*
%
%ADD35OVALD35*%

G04:AMPARAMS|DCode=36|XSize=9.84mil|YSize=59.06mil|CornerRadius=0mil|HoleSize=0mil|Usage=FLASHONLY|Rotation=135.000|XOffset=0mil|YOffset=0mil|HoleType=Round|Shape=Round|*
%AMOVALD36*
21,1,0.04921,0.00984,0.00000,0.00000,225.0*
1,1,0.00984,0.01740,0.01740*
1,1,0.00984,-0.01740,-0.01740*
%
%ADD36OVALD36*%

%ADD37R,0.03937X0.05906*%
G04:AMPARAMS|DCode=38|XSize=15.75mil|YSize=35.43mil|CornerRadius=0mil|HoleSize=0mil|Usage=FLASHONLY|Rotation=45.000|XOffset=0mil|YOffset=0mil|HoleType=Round|Shape=Rectangle|*
%AMROTATEDRECTD38*
4,1,4,0.00696,-0.01810,-0.01810,0.00696,-0.00696,0.01810,0.01810,-0.00696,0.00696,-0.01810,0.0*
%
%ADD38ROTATEDRECTD38*%

%ADD39R,0.03543X0.01575*%
%ADD40R,0.11201X0.06500*%
%ADD41R,0.01654X0.05370*%
%ADD42O,0.01654X0.05370*%
%ADD43R,0.01575X0.03543*%
%ADD44O,0.07087X0.01181*%
%ADD45R,0.07087X0.01181*%
%ADD46O,0.05906X0.00984*%
%ADD47O,0.00984X0.05906*%
%ADD48R,0.00984X0.05906*%
G04:AMPARAMS|DCode=49|XSize=35.43mil|YSize=30mil|CornerRadius=0mil|HoleSize=0mil|Usage=FLASHONLY|Rotation=315.000|XOffset=0mil|YOffset=0mil|HoleType=Round|Shape=Rectangle|*
%AMROTATEDRECTD49*
4,1,4,-0.02313,0.00192,-0.00192,0.02313,0.02313,-0.00192,0.00192,-0.02313,-0.02313,0.00192,0.0*
%
%ADD49ROTATEDRECTD49*%

%ADD50R,0.06000X0.06299*%
G04:AMPARAMS|DCode=51|XSize=35.43mil|YSize=30mil|CornerRadius=0mil|HoleSize=0mil|Usage=FLASHONLY|Rotation=225.000|XOffset=0mil|YOffset=0mil|HoleType=Round|Shape=Rectangle|*
%AMROTATEDRECTD51*
4,1,4,0.00192,0.02313,0.02313,0.00192,-0.00192,-0.02313,-0.02313,-0.00192,0.00192,0.02313,0.0*
%
%ADD51ROTATEDRECTD51*%

G04:AMPARAMS|DCode=52|XSize=62.99mil|YSize=60mil|CornerRadius=0mil|HoleSize=0mil|Usage=FLASHONLY|Rotation=135.000|XOffset=0mil|YOffset=0mil|HoleType=Round|Shape=Rectangle|*
%AMROTATEDRECTD52*
4,1,4,0.04348,-0.00106,0.00106,-0.04348,-0.04348,0.00106,-0.00106,0.04348,0.04348,-0.00106,0.0*
%
%ADD52ROTATEDRECTD52*%

%ADD53O,0.02362X0.08661*%
%ADD54R,0.02362X0.08661*%
%ADD55R,0.26378X0.26378*%
%ADD56R,0.11811X0.06496*%
%ADD57R,0.11811X0.07087*%
G04:AMPARAMS|DCode=58|XSize=120.08mil|YSize=144.88mil|CornerRadius=30.02mil|HoleSize=0mil|Usage=FLASHONLY|Rotation=315.000|XOffset=0mil|YOffset=0mil|HoleType=Round|Shape=RoundedRectangle|*
%AMROUNDEDRECTD58*
21,1,0.12008,0.08484,0,0,315.0*
21,1,0.06004,0.14488,0,0,315.0*
1,1,0.06004,-0.00877,-0.05122*
1,1,0.06004,-0.05122,-0.00877*
1,1,0.06004,0.00877,0.05122*
1,1,0.06004,0.05122,0.00877*
%
%ADD58ROUNDEDRECTD58*%
G04:AMPARAMS|DCode=59|XSize=120.08mil|YSize=144.88mil|CornerRadius=30.02mil|HoleSize=0mil|Usage=FLASHONLY|Rotation=45.000|XOffset=0mil|YOffset=0mil|HoleType=Round|Shape=RoundedRectangle|*
%AMROUNDEDRECTD59*
21,1,0.12008,0.08484,0,0,45.0*
21,1,0.06004,0.14488,0,0,45.0*
1,1,0.06004,0.05122,-0.00877*
1,1,0.06004,0.00877,-0.05122*
1,1,0.06004,-0.05122,0.00877*
1,1,0.06004,-0.00877,0.05122*
%
%ADD59ROUNDEDRECTD59*%
%ADD60R,0.13780X0.08071*%
%ADD61R,0.15748X0.08071*%
%ADD62R,0.08858X0.01969*%
G04:AMPARAMS|DCode=63|XSize=51.18mil|YSize=55.12mil|CornerRadius=0mil|HoleSize=0mil|Usage=FLASHONLY|Rotation=135.000|XOffset=0mil|YOffset=0mil|HoleType=Round|Shape=Rectangle|*
%AMROTATEDRECTD63*
4,1,4,0.03758,0.00139,-0.00139,-0.03758,-0.03758,-0.00139,0.00139,0.03758,0.03758,0.00139,0.0*
%
%ADD63ROTATEDRECTD63*%

%ADD64R,0.05118X0.05512*%
%ADD65R,0.09449X0.09843*%
%ADD66R,0.05512X0.05118*%
%ADD67R,0.07874X0.07087*%
%ADD68R,0.11000X0.15000*%
%ADD69R,0.06299X0.06299*%
%ADD70R,0.07874X0.11811*%
%ADD71R,0.06299X0.09449*%
%ADD72R,0.11811X0.07874*%
%ADD73R,0.00906X0.05906*%
%ADD74P,0.08908X4X270.0*%
G04:AMPARAMS|DCode=75|XSize=62.99mil|YSize=15.75mil|CornerRadius=0mil|HoleSize=0mil|Usage=FLASHONLY|Rotation=135.000|XOffset=0mil|YOffset=0mil|HoleType=Round|Shape=Rectangle|*
%AMROTATEDRECTD75*
4,1,4,0.02784,-0.01670,0.01670,-0.02784,-0.02784,0.01670,-0.01670,0.02784,0.02784,-0.01670,0.0*
%
%ADD75ROTATEDRECTD75*%

G04:AMPARAMS|DCode=76|XSize=62.99mil|YSize=15.75mil|CornerRadius=0mil|HoleSize=0mil|Usage=FLASHONLY|Rotation=135.000|XOffset=0mil|YOffset=0mil|HoleType=Round|Shape=Round|*
%AMOVALD76*
21,1,0.04724,0.01575,0.00000,0.00000,135.0*
1,1,0.01575,0.01670,-0.01670*
1,1,0.01575,-0.01670,0.01670*
%
%ADD76OVALD76*%

G04:AMPARAMS|DCode=77|XSize=15.75mil|YSize=35.43mil|CornerRadius=0mil|HoleSize=0mil|Usage=FLASHONLY|Rotation=135.000|XOffset=0mil|YOffset=0mil|HoleType=Round|Shape=Rectangle|*
%AMROTATEDRECTD77*
4,1,4,0.01810,0.00696,-0.00696,-0.01810,-0.01810,-0.00696,0.00696,0.01810,0.01810,0.00696,0.0*
%
%ADD77ROTATEDRECTD77*%

%ADD78P,0.08908X4X180.0*%
G04:AMPARAMS|DCode=79|XSize=66.93mil|YSize=50mil|CornerRadius=0mil|HoleSize=0mil|Usage=FLASHONLY|Rotation=135.000|XOffset=0mil|YOffset=0mil|HoleType=Round|Shape=Rectangle|*
%AMROTATEDRECTD79*
4,1,4,0.04134,-0.00599,0.00599,-0.04134,-0.04134,0.00599,-0.00599,0.04134,0.04134,-0.00599,0.0*
%
%ADD79ROTATEDRECTD79*%

%ADD80R,0.05906X0.00984*%
%ADD81R,0.09449X0.12598*%
%ADD82R,0.19685X0.15000*%
%ADD83O,0.05906X0.03543*%
%ADD84R,0.05906X0.03543*%
%ADD85O,0.11811X0.03150*%
%ADD86R,0.11811X0.03150*%
%ADD87R,0.03543X0.07874*%
%ADD88R,0.01181X0.03543*%
%ADD89O,0.01181X0.03543*%
%ADD90C,0.03937*%
%ADD91C,0.01575*%
%ADD92C,0.03150*%
%ADD93C,0.01000*%
%ADD94C,0.01181*%
%ADD95C,0.01969*%
%ADD96C,0.05906*%
%ADD97C,0.00787*%
%ADD98C,0.07874*%
%ADD99C,0.02756*%
%ADD100R,0.25197X0.27953*%
%ADD101R,0.19685X0.32283*%
%ADD102R,0.24016X0.21260*%
%ADD103R,0.08858X0.27953*%
%ADD104C,0.17716*%
%ADD105C,0.05906*%
%ADD106R,0.05906X0.05906*%
%ADD107C,0.04724*%
%ADD108C,0.15748*%
%ADD109R,0.03937X0.03937*%
%ADD110C,0.03937*%
%ADD111C,0.06000*%
%ADD112C,0.13386*%
%ADD113C,0.07874*%
%ADD114C,0.05512*%
%ADD115C,0.06299*%
G04:AMPARAMS|DCode=116|XSize=374.02mil|YSize=98.43mil|CornerRadius=24.61mil|HoleSize=0mil|Usage=FLASHONLY|Rotation=180.000|XOffset=0mil|YOffset=0mil|HoleType=Round|Shape=RoundedRectangle|*
%AMROUNDEDRECTD116*
21,1,0.37402,0.04921,0,0,180.0*
21,1,0.32480,0.09843,0,0,180.0*
1,1,0.04921,-0.16240,0.02461*
1,1,0.04921,0.16240,0.02461*
1,1,0.04921,0.16240,-0.02461*
1,1,0.04921,-0.16240,-0.02461*
%
%ADD116ROUNDEDRECTD116*%
%ADD117R,0.05906X0.05906*%
%ADD118C,0.06693*%
%ADD119C,0.09843*%
%ADD120C,0.10000*%
%ADD121C,0.19685*%
%ADD122C,0.31496*%
%ADD123R,0.07874X0.07874*%
%ADD124C,0.06496*%
%ADD125C,0.02559*%
%ADD126R,0.07874X0.07874*%
%ADD127R,0.03937X0.03937*%
%ADD128R,0.06299X0.06299*%
G04:AMPARAMS|DCode=129|XSize=374.02mil|YSize=98.43mil|CornerRadius=24.61mil|HoleSize=0mil|Usage=FLASHONLY|Rotation=270.000|XOffset=0mil|YOffset=0mil|HoleType=Round|Shape=RoundedRectangle|*
%AMROUNDEDRECTD129*
21,1,0.37402,0.04921,0,0,270.0*
21,1,0.32480,0.09843,0,0,270.0*
1,1,0.04921,-0.02461,-0.16240*
1,1,0.04921,-0.02461,0.16240*
1,1,0.04921,0.02461,0.16240*
1,1,0.04921,0.02461,-0.16240*
%
%ADD129ROUNDEDRECTD129*%
%ADD130C,0.05500*%
%ADD131C,0.03150*%
%ADD132C,0.02362*%
%ADD133C,0.01575*%
%ADD134C,0.05000*%
%ADD135C,0.07087*%
G04:AMPARAMS|DCode=136|XSize=27.56mil|YSize=35.43mil|CornerRadius=0mil|HoleSize=0mil|Usage=FLASHONLY|Rotation=315.000|XOffset=0mil|YOffset=0mil|HoleType=Round|Shape=Rectangle|*
%AMROTATEDRECTD136*
4,1,4,-0.02227,-0.00278,0.00278,0.02227,0.02227,0.00278,-0.00278,-0.02227,-0.02227,-0.00278,0.0*
%
%ADD136ROTATEDRECTD136*%

%ADD137R,0.03543X0.02756*%
G04:AMPARAMS|DCode=138|XSize=984.25mil|YSize=708.66mil|CornerRadius=177.16mil|HoleSize=0mil|Usage=FLASHONLY|Rotation=0.000|XOffset=0mil|YOffset=0mil|HoleType=Round|Shape=RoundedRectangle|*
%AMROUNDEDRECTD138*
21,1,0.98425,0.35433,0,0,0.0*
21,1,0.62992,0.70866,0,0,0.0*
1,1,0.35433,0.31496,-0.17716*
1,1,0.35433,-0.31496,-0.17716*
1,1,0.35433,-0.31496,0.17716*
1,1,0.35433,0.31496,0.17716*
%
%ADD138ROUNDEDRECTD138*%
G04:AMPARAMS|DCode=139|XSize=86.61mil|YSize=23.62mil|CornerRadius=0mil|HoleSize=0mil|Usage=FLASHONLY|Rotation=315.000|XOffset=0mil|YOffset=0mil|HoleType=Round|Shape=Rectangle|*
%AMROTATEDRECTD139*
4,1,4,-0.03897,0.02227,-0.02227,0.03897,0.03897,-0.02227,0.02227,-0.03897,-0.03897,0.02227,0.0*
%
%ADD139ROTATEDRECTD139*%

G04:AMPARAMS|DCode=140|XSize=86.61mil|YSize=23.62mil|CornerRadius=0mil|HoleSize=0mil|Usage=FLASHONLY|Rotation=315.000|XOffset=0mil|YOffset=0mil|HoleType=Round|Shape=Round|*
%AMOVALD140*
21,1,0.06299,0.02362,0.00000,0.00000,315.0*
1,1,0.02362,-0.02227,0.02227*
1,1,0.02362,0.02227,-0.02227*
%
%ADD140OVALD140*%

%ADD141R,0.09843X0.09449*%
%ADD142R,0.03600X0.03600*%
%ADD143R,0.03600X0.05000*%
%ADD144C,0.09843*%
%ADD145C,0.03740*%
%ADD146R,0.24803X0.21260*%
%ADD147R,0.09449X0.14961*%
%ADD148R,0.18110X0.14862*%
%ADD149C,0.05886*%
%ADD150C,0.00984*%
%ADD151C,0.02362*%
%ADD152C,0.03186*%
%ADD153C,0.02000*%
%ADD154C,0.00394*%
%ADD155C,0.05886*%
%ADD156C,0.03186*%
%ADD157R,0.04724X0.25197*%
%ADD158C,0.00068*%
%ADD159C,0.01200*%
%ADD160C,0.00800*%
%ADD161C,0.00500*%
%ADD162C,0.00050*%
%ADD163C,0.00100*%
%ADD164C,0.00574*%
%ADD165C,0.00570*%
%ADD166C,0.00661*%
%ADD167C,0.00632*%
%ADD168R,0.05512X0.27559*%
%ADD169R,0.27559X0.78543*%
%ADD170R,0.12047X0.03937*%
%ADD171R,0.10847X0.30370*%
%ADD172R,0.10039X0.28937*%
G04:AMPARAMS|DCode=173|XSize=126.11mil|YSize=204.85mil|CornerRadius=33.53mil|HoleSize=0mil|Usage=FLASHONLY|Rotation=90.000|XOffset=0mil|YOffset=0mil|HoleType=Round|Shape=RoundedRectangle|*
%AMROUNDEDRECTD173*
21,1,0.12611,0.13780,0,0,90.0*
21,1,0.05906,0.20485,0,0,90.0*
1,1,0.06706,0.06890,0.02953*
1,1,0.06706,0.06890,-0.02953*
1,1,0.06706,-0.06890,-0.02953*
1,1,0.06706,-0.06890,0.02953*
%
%ADD173ROUNDEDRECTD173*%
%ADD174R,0.03800X0.04343*%
%ADD175R,0.04343X0.03800*%
%ADD176O,0.07887X0.01981*%
%ADD177O,0.01981X0.07887*%
%ADD178O,0.04343X0.06706*%
%ADD179R,0.04343X0.06706*%
%ADD180R,0.05721X0.04737*%
%ADD181R,0.04737X0.05721*%
%ADD182R,0.13398X0.10249*%
%ADD183R,0.15800X0.20485*%
%ADD184R,0.07493X0.05800*%
%ADD185R,0.05800X0.07493*%
%ADD186O,0.03950X0.12611*%
%ADD187R,0.03950X0.12611*%
%ADD188R,0.08674X0.04343*%
%ADD189R,0.04343X0.01981*%
%ADD190O,0.04343X0.01981*%
%ADD191R,0.07099X0.06800*%
%ADD192O,0.09461X0.03162*%
%ADD193R,0.09461X0.03162*%
G04:AMPARAMS|DCode=194|XSize=102.49mil|YSize=21.78mil|CornerRadius=0mil|HoleSize=0mil|Usage=FLASHONLY|Rotation=225.000|XOffset=0mil|YOffset=0mil|HoleType=Round|Shape=Round|*
%AMOVALD194*
21,1,0.08071,0.02178,0.00000,0.00000,225.0*
1,1,0.02178,0.02854,0.02854*
1,1,0.02178,-0.02854,-0.02854*
%
%ADD194OVALD194*%

G04:AMPARAMS|DCode=195|XSize=102.49mil|YSize=21.78mil|CornerRadius=0mil|HoleSize=0mil|Usage=FLASHONLY|Rotation=225.000|XOffset=0mil|YOffset=0mil|HoleType=Round|Shape=Rectangle|*
%AMROTATEDRECTD195*
4,1,4,0.02854,0.04394,0.04394,0.02854,-0.02854,-0.04394,-0.04394,-0.02854,0.02854,0.04394,0.0*
%
%ADD195ROTATEDRECTD195*%

G04:AMPARAMS|DCode=196|XSize=17.84mil|YSize=67.06mil|CornerRadius=0mil|HoleSize=0mil|Usage=FLASHONLY|Rotation=225.000|XOffset=0mil|YOffset=0mil|HoleType=Round|Shape=Rectangle|*
%AMROTATEDRECTD196*
4,1,4,-0.01740,0.03002,0.03002,-0.01740,0.01740,-0.03002,-0.03002,0.01740,-0.01740,0.03002,0.0*
%
%ADD196ROTATEDRECTD196*%

G04:AMPARAMS|DCode=197|XSize=17.84mil|YSize=67.06mil|CornerRadius=0mil|HoleSize=0mil|Usage=FLASHONLY|Rotation=135.000|XOffset=0mil|YOffset=0mil|HoleType=Round|Shape=Rectangle|*
%AMROTATEDRECTD197*
4,1,4,0.03002,0.01740,-0.01740,-0.03002,-0.03002,-0.01740,0.01740,0.03002,0.03002,0.01740,0.0*
%
%ADD197ROTATEDRECTD197*%

G04:AMPARAMS|DCode=198|XSize=17.84mil|YSize=67.06mil|CornerRadius=0mil|HoleSize=0mil|Usage=FLASHONLY|Rotation=225.000|XOffset=0mil|YOffset=0mil|HoleType=Round|Shape=Round|*
%AMOVALD198*
21,1,0.04921,0.01784,0.00000,0.00000,315.0*
1,1,0.01784,-0.01740,0.01740*
1,1,0.01784,0.01740,-0.01740*
%
%ADD198OVALD198*%

G04:AMPARAMS|DCode=199|XSize=17.84mil|YSize=67.06mil|CornerRadius=0mil|HoleSize=0mil|Usage=FLASHONLY|Rotation=135.000|XOffset=0mil|YOffset=0mil|HoleType=Round|Shape=Round|*
%AMOVALD199*
21,1,0.04921,0.01784,0.00000,0.00000,225.0*
1,1,0.01784,0.01740,0.01740*
1,1,0.01784,-0.01740,-0.01740*
%
%ADD199OVALD199*%

%ADD200R,0.04737X0.06706*%
G04:AMPARAMS|DCode=201|XSize=23.75mil|YSize=43.43mil|CornerRadius=0mil|HoleSize=0mil|Usage=FLASHONLY|Rotation=45.000|XOffset=0mil|YOffset=0mil|HoleType=Round|Shape=Rectangle|*
%AMROTATEDRECTD201*
4,1,4,0.00696,-0.02375,-0.02375,0.00696,-0.00696,0.02375,0.02375,-0.00696,0.00696,-0.02375,0.0*
%
%ADD201ROTATEDRECTD201*%

%ADD202R,0.04343X0.02375*%
%ADD203R,0.12001X0.07300*%
%ADD204R,0.02454X0.06170*%
%ADD205O,0.02454X0.06170*%
%ADD206R,0.02375X0.04343*%
%ADD207O,0.07887X0.01981*%
%ADD208R,0.07887X0.01981*%
%ADD209O,0.06706X0.01784*%
%ADD210O,0.01784X0.06706*%
%ADD211R,0.01784X0.06706*%
G04:AMPARAMS|DCode=212|XSize=43.43mil|YSize=38mil|CornerRadius=0mil|HoleSize=0mil|Usage=FLASHONLY|Rotation=315.000|XOffset=0mil|YOffset=0mil|HoleType=Round|Shape=Rectangle|*
%AMROTATEDRECTD212*
4,1,4,-0.02879,0.00192,-0.00192,0.02879,0.02879,-0.00192,0.00192,-0.02879,-0.02879,0.00192,0.0*
%
%ADD212ROTATEDRECTD212*%

%ADD213R,0.06800X0.07099*%
G04:AMPARAMS|DCode=214|XSize=43.43mil|YSize=38mil|CornerRadius=0mil|HoleSize=0mil|Usage=FLASHONLY|Rotation=225.000|XOffset=0mil|YOffset=0mil|HoleType=Round|Shape=Rectangle|*
%AMROTATEDRECTD214*
4,1,4,0.00192,0.02879,0.02879,0.00192,-0.00192,-0.02879,-0.02879,-0.00192,0.00192,0.02879,0.0*
%
%ADD214ROTATEDRECTD214*%

G04:AMPARAMS|DCode=215|XSize=70.99mil|YSize=68mil|CornerRadius=0mil|HoleSize=0mil|Usage=FLASHONLY|Rotation=135.000|XOffset=0mil|YOffset=0mil|HoleType=Round|Shape=Rectangle|*
%AMROTATEDRECTD215*
4,1,4,0.04914,-0.00106,0.00106,-0.04914,-0.04914,0.00106,-0.00106,0.04914,0.04914,-0.00106,0.0*
%
%ADD215ROTATEDRECTD215*%

%ADD216O,0.03162X0.09461*%
%ADD217R,0.03162X0.09461*%
%ADD218R,0.27178X0.27178*%
%ADD219R,0.12611X0.07296*%
%ADD220R,0.12611X0.07887*%
G04:AMPARAMS|DCode=221|XSize=128.08mil|YSize=152.88mil|CornerRadius=34.02mil|HoleSize=0mil|Usage=FLASHONLY|Rotation=315.000|XOffset=0mil|YOffset=0mil|HoleType=Round|Shape=RoundedRectangle|*
%AMROUNDEDRECTD221*
21,1,0.12808,0.08484,0,0,315.0*
21,1,0.06004,0.15288,0,0,315.0*
1,1,0.06804,-0.00877,-0.05122*
1,1,0.06804,-0.05122,-0.00877*
1,1,0.06804,0.00877,0.05122*
1,1,0.06804,0.05122,0.00877*
%
%ADD221ROUNDEDRECTD221*%
G04:AMPARAMS|DCode=222|XSize=128.08mil|YSize=152.88mil|CornerRadius=34.02mil|HoleSize=0mil|Usage=FLASHONLY|Rotation=45.000|XOffset=0mil|YOffset=0mil|HoleType=Round|Shape=RoundedRectangle|*
%AMROUNDEDRECTD222*
21,1,0.12808,0.08484,0,0,45.0*
21,1,0.06004,0.15288,0,0,45.0*
1,1,0.06804,0.05122,-0.00877*
1,1,0.06804,0.00877,-0.05122*
1,1,0.06804,-0.05122,0.00877*
1,1,0.06804,-0.00877,0.05122*
%
%ADD222ROUNDEDRECTD222*%
G04:AMPARAMS|DCode=223|XSize=59.18mil|YSize=63.12mil|CornerRadius=0mil|HoleSize=0mil|Usage=FLASHONLY|Rotation=135.000|XOffset=0mil|YOffset=0mil|HoleType=Round|Shape=Rectangle|*
%AMROTATEDRECTD223*
4,1,4,0.04324,0.00139,-0.00139,-0.04324,-0.04324,-0.00139,0.00139,0.04324,0.04324,0.00139,0.0*
%
%ADD223ROTATEDRECTD223*%

%ADD224R,0.05918X0.06312*%
%ADD225R,0.10249X0.10642*%
%ADD226R,0.06312X0.05918*%
%ADD227R,0.08674X0.07887*%
%ADD228R,0.11800X0.15800*%
%ADD229R,0.07099X0.07099*%
%ADD230R,0.08674X0.12611*%
%ADD231R,0.07099X0.10249*%
%ADD232R,0.12611X0.08674*%
%ADD233R,0.01706X0.06706*%
%ADD234P,0.10040X4X270.0*%
G04:AMPARAMS|DCode=235|XSize=70.99mil|YSize=23.75mil|CornerRadius=0mil|HoleSize=0mil|Usage=FLASHONLY|Rotation=135.000|XOffset=0mil|YOffset=0mil|HoleType=Round|Shape=Rectangle|*
%AMROTATEDRECTD235*
4,1,4,0.03350,-0.01670,0.01670,-0.03350,-0.03350,0.01670,-0.01670,0.03350,0.03350,-0.01670,0.0*
%
%ADD235ROTATEDRECTD235*%

G04:AMPARAMS|DCode=236|XSize=70.99mil|YSize=23.75mil|CornerRadius=0mil|HoleSize=0mil|Usage=FLASHONLY|Rotation=135.000|XOffset=0mil|YOffset=0mil|HoleType=Round|Shape=Round|*
%AMOVALD236*
21,1,0.04724,0.02375,0.00000,0.00000,135.0*
1,1,0.02375,0.01670,-0.01670*
1,1,0.02375,-0.01670,0.01670*
%
%ADD236OVALD236*%

G04:AMPARAMS|DCode=237|XSize=23.75mil|YSize=43.43mil|CornerRadius=0mil|HoleSize=0mil|Usage=FLASHONLY|Rotation=135.000|XOffset=0mil|YOffset=0mil|HoleType=Round|Shape=Rectangle|*
%AMROTATEDRECTD237*
4,1,4,0.02375,0.00696,-0.00696,-0.02375,-0.02375,-0.00696,0.00696,0.02375,0.02375,0.00696,0.0*
%
%ADD237ROTATEDRECTD237*%

%ADD238P,0.10040X4X180.0*%
G04:AMPARAMS|DCode=239|XSize=74.93mil|YSize=58mil|CornerRadius=0mil|HoleSize=0mil|Usage=FLASHONLY|Rotation=135.000|XOffset=0mil|YOffset=0mil|HoleType=Round|Shape=Rectangle|*
%AMROTATEDRECTD239*
4,1,4,0.04700,-0.00599,0.00599,-0.04700,-0.04700,0.00599,-0.00599,0.04700,0.04700,-0.00599,0.0*
%
%ADD239ROTATEDRECTD239*%

%ADD240R,0.06706X0.01784*%
%ADD241R,0.10249X0.13398*%
%ADD242R,0.20485X0.15800*%
%ADD243O,0.06706X0.04343*%
%ADD244R,0.06706X0.04343*%
%ADD245O,0.12611X0.03950*%
%ADD246R,0.12611X0.03950*%
%ADD247R,0.04343X0.08674*%
%ADD248R,0.01981X0.04343*%
%ADD249O,0.01981X0.04343*%
%ADD250C,0.18517*%
%ADD251C,0.06706*%
%ADD252R,0.06706X0.06706*%
%ADD253C,0.05524*%
%ADD254C,0.16548*%
%ADD255R,0.04737X0.04737*%
%ADD256C,0.04737*%
%ADD257C,0.06800*%
%ADD258C,0.14186*%
%ADD259C,0.08674*%
%ADD260C,0.06312*%
%ADD261C,0.07099*%
G04:AMPARAMS|DCode=262|XSize=382.02mil|YSize=106.42mil|CornerRadius=28.61mil|HoleSize=0mil|Usage=FLASHONLY|Rotation=180.000|XOffset=0mil|YOffset=0mil|HoleType=Round|Shape=RoundedRectangle|*
%AMROUNDEDRECTD262*
21,1,0.38202,0.04921,0,0,180.0*
21,1,0.32480,0.10642,0,0,180.0*
1,1,0.05721,-0.16240,0.02461*
1,1,0.05721,0.16240,0.02461*
1,1,0.05721,0.16240,-0.02461*
1,1,0.05721,-0.16240,-0.02461*
%
%ADD262ROUNDEDRECTD262*%
%ADD263R,0.06706X0.06706*%
%ADD264C,0.07493*%
%ADD265C,0.10642*%
%ADD266C,0.10800*%
%ADD267C,0.20485*%
%ADD268C,0.32296*%
%ADD269R,0.08674X0.08674*%
%ADD270C,0.07296*%
%ADD271C,0.03359*%
%ADD272R,0.08674X0.08674*%
%ADD273R,0.04737X0.04737*%
%ADD274R,0.07099X0.07099*%
G04:AMPARAMS|DCode=275|XSize=382.02mil|YSize=106.42mil|CornerRadius=28.61mil|HoleSize=0mil|Usage=FLASHONLY|Rotation=270.000|XOffset=0mil|YOffset=0mil|HoleType=Round|Shape=RoundedRectangle|*
%AMROUNDEDRECTD275*
21,1,0.38202,0.04921,0,0,270.0*
21,1,0.32480,0.10642,0,0,270.0*
1,1,0.05721,-0.02461,-0.16240*
1,1,0.05721,-0.02461,0.16240*
1,1,0.05721,0.02461,0.16240*
1,1,0.05721,0.02461,-0.16240*
%
%ADD275ROUNDEDRECTD275*%
%ADD276C,0.06300*%
%ADD277C,0.03950*%
%ADD278C,0.03162*%
%ADD279C,0.02375*%
%ADD280C,0.05800*%
%ADD281C,0.07887*%
G04:AMPARAMS|DCode=282|XSize=35.56mil|YSize=43.43mil|CornerRadius=0mil|HoleSize=0mil|Usage=FLASHONLY|Rotation=315.000|XOffset=0mil|YOffset=0mil|HoleType=Round|Shape=Rectangle|*
%AMROTATEDRECTD282*
4,1,4,-0.02793,-0.00278,0.00278,0.02793,0.02793,0.00278,-0.00278,-0.02793,-0.02793,-0.00278,0.0*
%
%ADD282ROTATEDRECTD282*%

%ADD283R,0.04343X0.03556*%
G04:AMPARAMS|DCode=284|XSize=992.25mil|YSize=716.66mil|CornerRadius=181.16mil|HoleSize=0mil|Usage=FLASHONLY|Rotation=0.000|XOffset=0mil|YOffset=0mil|HoleType=Round|Shape=RoundedRectangle|*
%AMROUNDEDRECTD284*
21,1,0.99225,0.35433,0,0,0.0*
21,1,0.62992,0.71666,0,0,0.0*
1,1,0.36233,0.31496,-0.17716*
1,1,0.36233,-0.31496,-0.17716*
1,1,0.36233,-0.31496,0.17716*
1,1,0.36233,0.31496,0.17716*
%
%ADD284ROUNDEDRECTD284*%
G04:AMPARAMS|DCode=285|XSize=94.61mil|YSize=31.62mil|CornerRadius=0mil|HoleSize=0mil|Usage=FLASHONLY|Rotation=315.000|XOffset=0mil|YOffset=0mil|HoleType=Round|Shape=Rectangle|*
%AMROTATEDRECTD285*
4,1,4,-0.04463,0.02227,-0.02227,0.04463,0.04463,-0.02227,0.02227,-0.04463,-0.04463,0.02227,0.0*
%
%ADD285ROTATEDRECTD285*%

G04:AMPARAMS|DCode=286|XSize=94.61mil|YSize=31.62mil|CornerRadius=0mil|HoleSize=0mil|Usage=FLASHONLY|Rotation=315.000|XOffset=0mil|YOffset=0mil|HoleType=Round|Shape=Round|*
%AMOVALD286*
21,1,0.06299,0.03162,0.00000,0.00000,315.0*
1,1,0.03162,-0.02227,0.02227*
1,1,0.03162,0.02227,-0.02227*
%
%ADD286OVALD286*%

%ADD287R,0.10642X0.10249*%
%ADD288R,0.04400X0.04400*%
%ADD289R,0.04400X0.05800*%
%ADD290C,0.19685*%
%ADD291C,0.06299*%
%ADD292R,0.78543X0.27559*%
%ADD293C,0.00667*%
%ADD294C,0.00400*%
D93*
X748071Y726453D02*
G03*
X748071Y726453I-6299J0D01*
G01*
X768071D02*
G03*
X768071Y726453I-6299J0D01*
G01*
X788071D02*
G03*
X788071Y726453I-6299J0D01*
G01*
X785866Y606272D02*
G03*
X785866Y606272I-25591J0D01*
G01*
Y538272D02*
G03*
X785866Y538272I-25591J0D01*
G01*
X788071Y704799D02*
G03*
X788071Y704799I-6299J0D01*
G01*
X768071D02*
G03*
X768071Y704799I-6299J0D01*
G01*
X748071D02*
G03*
X748071Y704799I-6299J0D01*
G01*
X621264Y710831D02*
G03*
X621264Y710831I-13780J0D01*
G01*
X274031Y311614D02*
G03*
X322772Y311614I24370J0D01*
G01*
Y28346D02*
G03*
X274031Y28346I-24370J0D01*
G01*
X606744Y89468D02*
G03*
X606744Y115571I0J13051D01*
G01*
Y250374D02*
G03*
X606744Y276476I0J13051D01*
G01*
X803516Y115571D02*
G03*
X803516Y89468I0J-13051D01*
G01*
Y276476D02*
G03*
X803516Y250374I0J-13051D01*
G01*
X766553Y76673D02*
G03*
X766553Y76673I-6305J0D01*
G01*
X656317D02*
G03*
X656317Y76673I-6305J0D01*
G01*
Y289272D02*
G03*
X656317Y289272I-6305J0D01*
G01*
X766553D02*
G03*
X766553Y289272I-6305J0D01*
G01*
X0Y0D02*
X1060000D01*
X0Y760000D02*
X1060000D01*
X0Y0D02*
Y760000D01*
X1060000Y0D02*
Y760000D01*
X983071Y748862D02*
X1050000D01*
X983071Y46500D02*
X1050000D01*
X983071D02*
Y748862D01*
X1050000Y46500D02*
Y748862D01*
X905071D02*
X972000D01*
X905071Y46500D02*
X972000D01*
X905071D02*
Y748862D01*
X972000Y46500D02*
Y748862D01*
X827071D02*
X894000D01*
X827071Y46500D02*
X894000D01*
X827071D02*
Y748862D01*
X894000Y46500D02*
Y748862D01*
X548606Y492260D02*
Y744228D01*
X450181Y492260D02*
X548606D01*
X450181D02*
Y744228D01*
X548606D01*
X440106Y492260D02*
Y744228D01*
X341681Y492260D02*
X440106D01*
X341681D02*
Y744228D01*
X440106D01*
X698661Y408284D02*
X812835D01*
Y748835D01*
X698661D02*
X812835D01*
X698661Y408284D02*
Y748835D01*
X566736Y407740D02*
Y748291D01*
X680909D01*
Y407740D02*
Y748291D01*
X566736Y407740D02*
X680909D01*
X636224Y623035D02*
X651972D01*
Y678154D01*
X636224D02*
X651972D01*
X636224Y623035D02*
Y678154D01*
X640161Y424980D02*
Y460413D01*
X659846D01*
Y424980D02*
Y460413D01*
X640161Y424980D02*
X659846D01*
X13756Y11181D02*
Y328780D01*
X274031D01*
Y311614D02*
Y328780D01*
X322772Y311614D02*
Y328780D01*
X583047D01*
Y11181D02*
Y328780D01*
X322772Y11181D02*
X583047D01*
X322772D02*
Y28346D01*
X274031Y11181D02*
Y28346D01*
X13756Y11181D02*
X274031D01*
X16181Y744228D02*
X114606D01*
X16181Y492260D02*
Y744228D01*
Y492260D02*
X114606D01*
Y744228D01*
X124681D02*
X223106D01*
X124681Y492260D02*
Y744228D01*
Y492260D02*
X223106D01*
Y744228D01*
X233181D02*
X331606D01*
X233181Y492260D02*
Y744228D01*
Y492260D02*
X331606D01*
Y744228D01*
X593693Y20256D02*
X816567D01*
X593693Y89468D02*
X606724D01*
X593713Y115571D02*
X606744D01*
X593713Y250374D02*
X606744D01*
X593713Y276476D02*
X606744D01*
X803516D02*
X816547D01*
X803516Y250374D02*
X816547D01*
X803516Y89468D02*
X816547D01*
X803516Y115571D02*
X816547D01*
X593693Y20256D02*
Y89468D01*
X593713Y115571D02*
Y250374D01*
Y276476D02*
Y345669D01*
X816567Y276496D02*
Y345689D01*
X816547Y115571D02*
Y250374D01*
Y20276D02*
Y89468D01*
X593693Y345689D02*
X816567D01*
X294772Y477925D02*
X546740D01*
Y379500D02*
Y477925D01*
X294772Y379500D02*
X546740D01*
X294772D02*
Y477925D01*
X20272Y475925D02*
X272240D01*
Y377500D02*
Y475925D01*
X20272Y377500D02*
X272240D01*
X20272D02*
Y475925D01*
X26976Y363866D02*
X556110D01*
X26976Y344969D02*
Y363866D01*
X556110Y343984D02*
Y363866D01*
Y343984D02*
Y363866D01*
X26976Y343984D02*
X556110D01*
X26976D02*
Y362685D01*
Y343984D02*
X556110D01*
D161*
X1016504Y609067D02*
Y613067D01*
X1020504D01*
Y609067D01*
X1016504D01*
X1022800Y730037D02*
X1020800Y734037D01*
X1024800D01*
X1022800Y730037D01*
X1012500Y721437D02*
X1010500Y725437D01*
X1014500D01*
X1012500Y721437D01*
X1016500Y730037D02*
X1014500Y734037D01*
X1018500D01*
X1016500Y730037D01*
X1010200D02*
X1008200Y734037D01*
X1012200D01*
X1010200Y730037D01*
X1020500Y721437D02*
X1018500Y725437D01*
X1022500D01*
X1020500Y721437D01*
X1040400Y726237D02*
X1041400Y727237D01*
X1042400D01*
X1041400Y728237D01*
X1042400Y729237D01*
X1041400D01*
X1040400Y730237D01*
X1039400Y729237D01*
X1038400D01*
X1039400Y728237D01*
X1038400Y727237D01*
X1039400D01*
X1040400Y726237D01*
X993200D02*
X994200Y727237D01*
X995200D01*
X994200Y728237D01*
X995200Y729237D01*
X994200D01*
X993200Y730237D01*
X992200Y729237D01*
X991200D01*
X992200Y728237D01*
X991200Y727237D01*
X992200D01*
X993200Y726237D01*
X1009700Y61900D02*
X1007700Y65900D01*
X1011700D01*
X1009700Y61900D01*
X1020000Y70500D02*
X1018000Y74500D01*
X1022000D01*
X1020000Y70500D01*
X1016000Y61900D02*
X1014000Y65900D01*
X1018000D01*
X1016000Y61900D01*
X1022300D02*
X1020300Y65900D01*
X1024300D01*
X1022300Y61900D01*
X1012000Y70500D02*
X1010000Y74500D01*
X1014000D01*
X1012000Y70500D01*
X992100Y65700D02*
X993100Y66700D01*
X994100D01*
X993100Y67700D01*
X994100Y68700D01*
X993100D01*
X992100Y69700D01*
X991100Y68700D01*
X990100D01*
X991100Y67700D01*
X990100Y66700D01*
X991100D01*
X992100Y65700D01*
X1039300D02*
X1040300Y66700D01*
X1041300D01*
X1040300Y67700D01*
X1041300Y68700D01*
X1040300D01*
X1039300Y69700D01*
X1038300Y68700D01*
X1037300D01*
X1038300Y67700D01*
X1037300Y66700D01*
X1038300D01*
X1039300Y65700D01*
X1005811Y633000D02*
X1006811Y635000D01*
X1005811Y637000D01*
X1007811Y636000D01*
X1009811Y637000D01*
X1008811Y635000D01*
X1009811Y633000D01*
X1007811Y634000D01*
X1005811Y633000D01*
Y638000D02*
X1006811Y640000D01*
X1005811Y642000D01*
X1007811Y641000D01*
X1009811Y642000D01*
X1008811Y640000D01*
X1009811Y638000D01*
X1007811Y639000D01*
X1005811Y638000D01*
X1006311Y443000D02*
X1007311Y445000D01*
X1006311Y447000D01*
X1008311Y446000D01*
X1010311Y447000D01*
X1009311Y445000D01*
X1010311Y443000D01*
X1008311Y444000D01*
X1006311Y443000D01*
Y448000D02*
X1007311Y450000D01*
X1006311Y452000D01*
X1008311Y451000D01*
X1010311Y452000D01*
X1009311Y450000D01*
X1010311Y448000D01*
X1008311Y449000D01*
X1006311Y448000D01*
X1005811Y353000D02*
X1006811Y355000D01*
X1005811Y357000D01*
X1007811Y356000D01*
X1009811Y357000D01*
X1008811Y355000D01*
X1009811Y353000D01*
X1007811Y354000D01*
X1005811Y353000D01*
Y358000D02*
X1006811Y360000D01*
X1005811Y362000D01*
X1007811Y361000D01*
X1009811Y362000D01*
X1008811Y360000D01*
X1009811Y358000D01*
X1007811Y359000D01*
X1005811Y358000D01*
Y159000D02*
X1006811Y161000D01*
X1005811Y163000D01*
X1007811Y162000D01*
X1009811Y163000D01*
X1008811Y161000D01*
X1009811Y159000D01*
X1007811Y160000D01*
X1005811Y159000D01*
Y164000D02*
X1006811Y166000D01*
X1005811Y168000D01*
X1007811Y167000D01*
X1009811Y168000D01*
X1008811Y166000D01*
X1009811Y164000D01*
X1007811Y165000D01*
X1005811Y164000D01*
X1013567Y675421D02*
Y674421D01*
X1015567D01*
Y675421D01*
X1016567D01*
Y677421D01*
X1015567D01*
Y678421D01*
X1013567D01*
Y677421D01*
X1012567D01*
Y675421D01*
X1013567D01*
X997819Y660461D02*
Y659461D01*
X999819D01*
Y660461D01*
X1000819D01*
Y662461D01*
X999819D01*
Y663461D01*
X997819D01*
Y662461D01*
X996819D01*
Y660461D01*
X997819D01*
Y668335D02*
Y667335D01*
X999819D01*
Y668335D01*
X1000819D01*
Y670335D01*
X999819D01*
Y671335D01*
X997819D01*
Y670335D01*
X996819D01*
Y668335D01*
X997819D01*
Y682114D02*
Y681114D01*
X999819D01*
Y682114D01*
X1000819D01*
Y684114D01*
X999819D01*
Y685114D01*
X997819D01*
Y684114D01*
X996819D01*
Y682114D01*
X997819D01*
Y689988D02*
Y688988D01*
X999819D01*
Y689988D01*
X1000819D01*
Y691988D01*
X999819D01*
Y692988D01*
X997819D01*
Y691988D01*
X996819D01*
Y689988D01*
X997819D01*
X1038189Y660642D02*
X1039189Y661642D01*
X1040189D01*
X1039189Y662642D01*
X1040189Y663642D01*
X1039189D01*
X1038189Y664642D01*
X1037189Y663642D01*
X1036189D01*
X1037189Y662642D01*
X1036189Y661642D01*
X1037189D01*
X1038189Y660642D01*
Y688201D02*
X1039189Y689201D01*
X1040189D01*
X1039189Y690201D01*
X1040189Y691201D01*
X1039189D01*
X1038189Y692201D01*
X1037189Y691201D01*
X1036189D01*
X1037189Y690201D01*
X1036189Y689201D01*
X1037189D01*
X1038189Y688201D01*
X1013567Y399831D02*
Y398831D01*
X1015567D01*
Y399831D01*
X1016567D01*
Y401831D01*
X1015567D01*
Y402831D01*
X1013567D01*
Y401831D01*
X1012567D01*
Y399831D01*
X1013567D01*
X997819Y384870D02*
Y383870D01*
X999819D01*
Y384870D01*
X1000819D01*
Y386870D01*
X999819D01*
Y387870D01*
X997819D01*
Y386870D01*
X996819D01*
Y384870D01*
X997819D01*
Y392744D02*
Y391744D01*
X999819D01*
Y392744D01*
X1000819D01*
Y394744D01*
X999819D01*
Y395744D01*
X997819D01*
Y394744D01*
X996819D01*
Y392744D01*
X997819D01*
Y406524D02*
Y405524D01*
X999819D01*
Y406524D01*
X1000819D01*
Y408524D01*
X999819D01*
Y409524D01*
X997819D01*
Y408524D01*
X996819D01*
Y406524D01*
X997819D01*
Y414398D02*
Y413398D01*
X999819D01*
Y414398D01*
X1000819D01*
Y416398D01*
X999819D01*
Y417398D01*
X997819D01*
Y416398D01*
X996819D01*
Y414398D01*
X997819D01*
X1038189Y385051D02*
X1039189Y386051D01*
X1040189D01*
X1039189Y387051D01*
X1040189Y388051D01*
X1039189D01*
X1038189Y389051D01*
X1037189Y388051D01*
X1036189D01*
X1037189Y387051D01*
X1036189Y386051D01*
X1037189D01*
X1038189Y385051D01*
Y412610D02*
X1039189Y413610D01*
X1040189D01*
X1039189Y414610D01*
X1040189Y415610D01*
X1039189D01*
X1038189Y416610D01*
X1037189Y415610D01*
X1036189D01*
X1037189Y414610D01*
X1036189Y413610D01*
X1037189D01*
X1038189Y412610D01*
X1013567Y124240D02*
Y123240D01*
X1015567D01*
Y124240D01*
X1016567D01*
Y126240D01*
X1015567D01*
Y127240D01*
X1013567D01*
Y126240D01*
X1012567D01*
Y124240D01*
X1013567D01*
X997819Y109280D02*
Y108280D01*
X999819D01*
Y109280D01*
X1000819D01*
Y111279D01*
X999819D01*
Y112279D01*
X997819D01*
Y111279D01*
X996819D01*
Y109280D01*
X997819D01*
Y117154D02*
Y116154D01*
X999819D01*
Y117154D01*
X1000819D01*
Y119153D01*
X999819D01*
Y120153D01*
X997819D01*
Y119153D01*
X996819D01*
Y117154D01*
X997819D01*
Y130933D02*
Y129933D01*
X999819D01*
Y130933D01*
X1000819D01*
Y132933D01*
X999819D01*
Y133933D01*
X997819D01*
Y132933D01*
X996819D01*
Y130933D01*
X997819D01*
Y138807D02*
Y137807D01*
X999819D01*
Y138807D01*
X1000819D01*
Y140807D01*
X999819D01*
Y141807D01*
X997819D01*
Y140807D01*
X996819D01*
Y138807D01*
X997819D01*
X1038189Y109461D02*
X1039189Y110461D01*
X1040189D01*
X1039189Y111461D01*
X1040189Y112461D01*
X1039189D01*
X1038189Y113461D01*
X1037189Y112461D01*
X1036189D01*
X1037189Y111461D01*
X1036189Y110461D01*
X1037189D01*
X1038189Y109461D01*
Y137020D02*
X1039189Y138020D01*
X1040189D01*
X1039189Y139020D01*
X1040189Y140020D01*
X1039189D01*
X1038189Y141020D01*
X1037189Y140020D01*
X1036189D01*
X1037189Y139020D01*
X1036189Y138020D01*
X1037189D01*
X1038189Y137020D01*
X1016504Y182295D02*
Y186295D01*
X1020504D01*
Y182295D01*
X1016504D01*
X1040658Y713437D02*
X1041658D01*
X1042657Y714437D01*
X1043657Y713437D01*
X1044658D01*
Y714437D01*
X1043657Y715437D01*
X1044658Y716437D01*
Y717437D01*
X1043657D01*
X1042657Y716437D01*
X1041658Y717437D01*
X1040658D01*
Y716437D01*
X1041658Y715437D01*
X1040658Y714437D01*
Y713437D01*
X990500D02*
X991500D01*
X992500Y714437D01*
X993500Y713437D01*
X994500D01*
Y714437D01*
X993500Y715437D01*
X994500Y716437D01*
Y717437D01*
X993500D01*
X992500Y716437D01*
X991500Y717437D01*
X990500D01*
Y716437D01*
X991500Y715437D01*
X990500Y714437D01*
Y713437D01*
X987654Y78500D02*
X988653D01*
X989653Y79500D01*
X990654Y78500D01*
X991654D01*
Y79500D01*
X990654Y80500D01*
X991654Y81500D01*
Y82500D01*
X990654D01*
X989653Y81500D01*
X988653Y82500D01*
X987654D01*
Y81500D01*
X988653Y80500D01*
X987654Y79500D01*
Y78500D01*
X1037811D02*
X1038811D01*
X1039811Y79500D01*
X1040811Y78500D01*
X1041811D01*
Y79500D01*
X1040811Y80500D01*
X1041811Y81500D01*
Y82500D01*
X1040811D01*
X1039811Y81500D01*
X1038811Y82500D01*
X1037811D01*
Y81500D01*
X1038811Y80500D01*
X1037811Y79500D01*
Y78500D01*
X938504Y609067D02*
Y613067D01*
X942504D01*
Y609067D01*
X938504D01*
X944800Y730037D02*
X942800Y734037D01*
X946800D01*
X944800Y730037D01*
X934500Y721437D02*
X932500Y725437D01*
X936500D01*
X934500Y721437D01*
X938500Y730037D02*
X936500Y734037D01*
X940500D01*
X938500Y730037D01*
X932200D02*
X930200Y734037D01*
X934200D01*
X932200Y730037D01*
X942500Y721437D02*
X940500Y725437D01*
X944500D01*
X942500Y721437D01*
X962400Y726237D02*
X963400Y727237D01*
X964400D01*
X963400Y728237D01*
X964400Y729237D01*
X963400D01*
X962400Y730237D01*
X961400Y729237D01*
X960400D01*
X961400Y728237D01*
X960400Y727237D01*
X961400D01*
X962400Y726237D01*
X915200D02*
X916200Y727237D01*
X917200D01*
X916200Y728237D01*
X917200Y729237D01*
X916200D01*
X915200Y730237D01*
X914200Y729237D01*
X913200D01*
X914200Y728237D01*
X913200Y727237D01*
X914200D01*
X915200Y726237D01*
X931700Y61900D02*
X929700Y65900D01*
X933700D01*
X931700Y61900D01*
X942000Y70500D02*
X940000Y74500D01*
X944000D01*
X942000Y70500D01*
X938000Y61900D02*
X936000Y65900D01*
X940000D01*
X938000Y61900D01*
X944300D02*
X942300Y65900D01*
X946300D01*
X944300Y61900D01*
X934000Y70500D02*
X932000Y74500D01*
X936000D01*
X934000Y70500D01*
X914100Y65700D02*
X915100Y66700D01*
X916100D01*
X915100Y67700D01*
X916100Y68700D01*
X915100D01*
X914100Y69700D01*
X913100Y68700D01*
X912100D01*
X913100Y67700D01*
X912100Y66700D01*
X913100D01*
X914100Y65700D01*
X961300D02*
X962300Y66700D01*
X963300D01*
X962300Y67700D01*
X963300Y68700D01*
X962300D01*
X961300Y69700D01*
X960300Y68700D01*
X959300D01*
X960300Y67700D01*
X959300Y66700D01*
X960300D01*
X961300Y65700D01*
X927811Y633000D02*
X928811Y635000D01*
X927811Y637000D01*
X929811Y636000D01*
X931811Y637000D01*
X930811Y635000D01*
X931811Y633000D01*
X929811Y634000D01*
X927811Y633000D01*
Y638000D02*
X928811Y640000D01*
X927811Y642000D01*
X929811Y641000D01*
X931811Y642000D01*
X930811Y640000D01*
X931811Y638000D01*
X929811Y639000D01*
X927811Y638000D01*
X928311Y443000D02*
X929311Y445000D01*
X928311Y447000D01*
X930311Y446000D01*
X932311Y447000D01*
X931311Y445000D01*
X932311Y443000D01*
X930311Y444000D01*
X928311Y443000D01*
Y448000D02*
X929311Y450000D01*
X928311Y452000D01*
X930311Y451000D01*
X932311Y452000D01*
X931311Y450000D01*
X932311Y448000D01*
X930311Y449000D01*
X928311Y448000D01*
X927811Y353000D02*
X928811Y355000D01*
X927811Y357000D01*
X929811Y356000D01*
X931811Y357000D01*
X930811Y355000D01*
X931811Y353000D01*
X929811Y354000D01*
X927811Y353000D01*
Y358000D02*
X928811Y360000D01*
X927811Y362000D01*
X929811Y361000D01*
X931811Y362000D01*
X930811Y360000D01*
X931811Y358000D01*
X929811Y359000D01*
X927811Y358000D01*
Y159000D02*
X928811Y161000D01*
X927811Y163000D01*
X929811Y162000D01*
X931811Y163000D01*
X930811Y161000D01*
X931811Y159000D01*
X929811Y160000D01*
X927811Y159000D01*
Y164000D02*
X928811Y166000D01*
X927811Y168000D01*
X929811Y167000D01*
X931811Y168000D01*
X930811Y166000D01*
X931811Y164000D01*
X929811Y165000D01*
X927811Y164000D01*
X935567Y675421D02*
Y674421D01*
X937567D01*
Y675421D01*
X938567D01*
Y677421D01*
X937567D01*
Y678421D01*
X935567D01*
Y677421D01*
X934567D01*
Y675421D01*
X935567D01*
X919819Y660461D02*
Y659461D01*
X921819D01*
Y660461D01*
X922819D01*
Y662461D01*
X921819D01*
Y663461D01*
X919819D01*
Y662461D01*
X918819D01*
Y660461D01*
X919819D01*
Y668335D02*
Y667335D01*
X921819D01*
Y668335D01*
X922819D01*
Y670335D01*
X921819D01*
Y671335D01*
X919819D01*
Y670335D01*
X918819D01*
Y668335D01*
X919819D01*
Y682114D02*
Y681114D01*
X921819D01*
Y682114D01*
X922819D01*
Y684114D01*
X921819D01*
Y685114D01*
X919819D01*
Y684114D01*
X918819D01*
Y682114D01*
X919819D01*
Y689988D02*
Y688988D01*
X921819D01*
Y689988D01*
X922819D01*
Y691988D01*
X921819D01*
Y692988D01*
X919819D01*
Y691988D01*
X918819D01*
Y689988D01*
X919819D01*
X960189Y660642D02*
X961189Y661642D01*
X962189D01*
X961189Y662642D01*
X962189Y663642D01*
X961189D01*
X960189Y664642D01*
X959189Y663642D01*
X958189D01*
X959189Y662642D01*
X958189Y661642D01*
X959189D01*
X960189Y660642D01*
Y688201D02*
X961189Y689201D01*
X962189D01*
X961189Y690201D01*
X962189Y691201D01*
X961189D01*
X960189Y692201D01*
X959189Y691201D01*
X958189D01*
X959189Y690201D01*
X958189Y689201D01*
X959189D01*
X960189Y688201D01*
X935567Y399831D02*
Y398831D01*
X937567D01*
Y399831D01*
X938567D01*
Y401831D01*
X937567D01*
Y402831D01*
X935567D01*
Y401831D01*
X934567D01*
Y399831D01*
X935567D01*
X919819Y384870D02*
Y383870D01*
X921819D01*
Y384870D01*
X922819D01*
Y386870D01*
X921819D01*
Y387870D01*
X919819D01*
Y386870D01*
X918819D01*
Y384870D01*
X919819D01*
Y392744D02*
Y391744D01*
X921819D01*
Y392744D01*
X922819D01*
Y394744D01*
X921819D01*
Y395744D01*
X919819D01*
Y394744D01*
X918819D01*
Y392744D01*
X919819D01*
Y406524D02*
Y405524D01*
X921819D01*
Y406524D01*
X922819D01*
Y408524D01*
X921819D01*
Y409524D01*
X919819D01*
Y408524D01*
X918819D01*
Y406524D01*
X919819D01*
Y414398D02*
Y413398D01*
X921819D01*
Y414398D01*
X922819D01*
Y416398D01*
X921819D01*
Y417398D01*
X919819D01*
Y416398D01*
X918819D01*
Y414398D01*
X919819D01*
X960189Y385051D02*
X961189Y386051D01*
X962189D01*
X961189Y387051D01*
X962189Y388051D01*
X961189D01*
X960189Y389051D01*
X959189Y388051D01*
X958189D01*
X959189Y387051D01*
X958189Y386051D01*
X959189D01*
X960189Y385051D01*
Y412610D02*
X961189Y413610D01*
X962189D01*
X961189Y414610D01*
X962189Y415610D01*
X961189D01*
X960189Y416610D01*
X959189Y415610D01*
X958189D01*
X959189Y414610D01*
X958189Y413610D01*
X959189D01*
X960189Y412610D01*
X935567Y124240D02*
Y123240D01*
X937567D01*
Y124240D01*
X938567D01*
Y126240D01*
X937567D01*
Y127240D01*
X935567D01*
Y126240D01*
X934567D01*
Y124240D01*
X935567D01*
X919819Y109280D02*
Y108280D01*
X921819D01*
Y109280D01*
X922819D01*
Y111279D01*
X921819D01*
Y112279D01*
X919819D01*
Y111279D01*
X918819D01*
Y109280D01*
X919819D01*
Y117154D02*
Y116154D01*
X921819D01*
Y117154D01*
X922819D01*
Y119153D01*
X921819D01*
Y120153D01*
X919819D01*
Y119153D01*
X918819D01*
Y117154D01*
X919819D01*
Y130933D02*
Y129933D01*
X921819D01*
Y130933D01*
X922819D01*
Y132933D01*
X921819D01*
Y133933D01*
X919819D01*
Y132933D01*
X918819D01*
Y130933D01*
X919819D01*
Y138807D02*
Y137807D01*
X921819D01*
Y138807D01*
X922819D01*
Y140807D01*
X921819D01*
Y141807D01*
X919819D01*
Y140807D01*
X918819D01*
Y138807D01*
X919819D01*
X960189Y109461D02*
X961189Y110461D01*
X962189D01*
X961189Y111461D01*
X962189Y112461D01*
X961189D01*
X960189Y113461D01*
X959189Y112461D01*
X958189D01*
X959189Y111461D01*
X958189Y110461D01*
X959189D01*
X960189Y109461D01*
Y137020D02*
X961189Y138020D01*
X962189D01*
X961189Y139020D01*
X962189Y140020D01*
X961189D01*
X960189Y141020D01*
X959189Y140020D01*
X958189D01*
X959189Y139020D01*
X958189Y138020D01*
X959189D01*
X960189Y137020D01*
X938504Y182295D02*
Y186295D01*
X942504D01*
Y182295D01*
X938504D01*
X962658Y713437D02*
X963657D01*
X964657Y714437D01*
X965658Y713437D01*
X966658D01*
Y714437D01*
X965658Y715437D01*
X966658Y716437D01*
Y717437D01*
X965658D01*
X964657Y716437D01*
X963657Y717437D01*
X962658D01*
Y716437D01*
X963657Y715437D01*
X962658Y714437D01*
Y713437D01*
X912500D02*
X913500D01*
X914500Y714437D01*
X915500Y713437D01*
X916500D01*
Y714437D01*
X915500Y715437D01*
X916500Y716437D01*
Y717437D01*
X915500D01*
X914500Y716437D01*
X913500Y717437D01*
X912500D01*
Y716437D01*
X913500Y715437D01*
X912500Y714437D01*
Y713437D01*
X909653Y78500D02*
X910653D01*
X911654Y79500D01*
X912654Y78500D01*
X913653D01*
Y79500D01*
X912654Y80500D01*
X913653Y81500D01*
Y82500D01*
X912654D01*
X911654Y81500D01*
X910653Y82500D01*
X909653D01*
Y81500D01*
X910653Y80500D01*
X909653Y79500D01*
Y78500D01*
X959811D02*
X960811D01*
X961811Y79500D01*
X962811Y78500D01*
X963811D01*
Y79500D01*
X962811Y80500D01*
X963811Y81500D01*
Y82500D01*
X962811D01*
X961811Y81500D01*
X960811Y82500D01*
X959811D01*
Y81500D01*
X960811Y80500D01*
X959811Y79500D01*
Y78500D01*
X860504Y609067D02*
Y613067D01*
X864504D01*
Y609067D01*
X860504D01*
X866800Y730037D02*
X864800Y734037D01*
X868800D01*
X866800Y730037D01*
X856500Y721437D02*
X854500Y725437D01*
X858500D01*
X856500Y721437D01*
X860500Y730037D02*
X858500Y734037D01*
X862500D01*
X860500Y730037D01*
X854200D02*
X852200Y734037D01*
X856200D01*
X854200Y730037D01*
X864500Y721437D02*
X862500Y725437D01*
X866500D01*
X864500Y721437D01*
X884400Y726237D02*
X885400Y727237D01*
X886400D01*
X885400Y728237D01*
X886400Y729237D01*
X885400D01*
X884400Y730237D01*
X883400Y729237D01*
X882400D01*
X883400Y728237D01*
X882400Y727237D01*
X883400D01*
X884400Y726237D01*
X837200D02*
X838200Y727237D01*
X839200D01*
X838200Y728237D01*
X839200Y729237D01*
X838200D01*
X837200Y730237D01*
X836200Y729237D01*
X835200D01*
X836200Y728237D01*
X835200Y727237D01*
X836200D01*
X837200Y726237D01*
X853700Y61900D02*
X851700Y65900D01*
X855700D01*
X853700Y61900D01*
X864000Y70500D02*
X862000Y74500D01*
X866000D01*
X864000Y70500D01*
X860000Y61900D02*
X858000Y65900D01*
X862000D01*
X860000Y61900D01*
X866300D02*
X864300Y65900D01*
X868300D01*
X866300Y61900D01*
X856000Y70500D02*
X854000Y74500D01*
X858000D01*
X856000Y70500D01*
X836100Y65700D02*
X837100Y66700D01*
X838100D01*
X837100Y67700D01*
X838100Y68700D01*
X837100D01*
X836100Y69700D01*
X835100Y68700D01*
X834100D01*
X835100Y67700D01*
X834100Y66700D01*
X835100D01*
X836100Y65700D01*
X883300D02*
X884300Y66700D01*
X885300D01*
X884300Y67700D01*
X885300Y68700D01*
X884300D01*
X883300Y69700D01*
X882300Y68700D01*
X881300D01*
X882300Y67700D01*
X881300Y66700D01*
X882300D01*
X883300Y65700D01*
X849811Y633000D02*
X850811Y635000D01*
X849811Y637000D01*
X851811Y636000D01*
X853811Y637000D01*
X852811Y635000D01*
X853811Y633000D01*
X851811Y634000D01*
X849811Y633000D01*
Y638000D02*
X850811Y640000D01*
X849811Y642000D01*
X851811Y641000D01*
X853811Y642000D01*
X852811Y640000D01*
X853811Y638000D01*
X851811Y639000D01*
X849811Y638000D01*
X850311Y443000D02*
X851311Y445000D01*
X850311Y447000D01*
X852311Y446000D01*
X854311Y447000D01*
X853311Y445000D01*
X854311Y443000D01*
X852311Y444000D01*
X850311Y443000D01*
Y448000D02*
X851311Y450000D01*
X850311Y452000D01*
X852311Y451000D01*
X854311Y452000D01*
X853311Y450000D01*
X854311Y448000D01*
X852311Y449000D01*
X850311Y448000D01*
X849811Y353000D02*
X850811Y355000D01*
X849811Y357000D01*
X851811Y356000D01*
X853811Y357000D01*
X852811Y355000D01*
X853811Y353000D01*
X851811Y354000D01*
X849811Y353000D01*
Y358000D02*
X850811Y360000D01*
X849811Y362000D01*
X851811Y361000D01*
X853811Y362000D01*
X852811Y360000D01*
X853811Y358000D01*
X851811Y359000D01*
X849811Y358000D01*
Y159000D02*
X850811Y161000D01*
X849811Y163000D01*
X851811Y162000D01*
X853811Y163000D01*
X852811Y161000D01*
X853811Y159000D01*
X851811Y160000D01*
X849811Y159000D01*
Y164000D02*
X850811Y166000D01*
X849811Y168000D01*
X851811Y167000D01*
X853811Y168000D01*
X852811Y166000D01*
X853811Y164000D01*
X851811Y165000D01*
X849811Y164000D01*
X857567Y675421D02*
Y674421D01*
X859567D01*
Y675421D01*
X860567D01*
Y677421D01*
X859567D01*
Y678421D01*
X857567D01*
Y677421D01*
X856567D01*
Y675421D01*
X857567D01*
X841819Y660461D02*
Y659461D01*
X843819D01*
Y660461D01*
X844819D01*
Y662461D01*
X843819D01*
Y663461D01*
X841819D01*
Y662461D01*
X840819D01*
Y660461D01*
X841819D01*
Y668335D02*
Y667335D01*
X843819D01*
Y668335D01*
X844819D01*
Y670335D01*
X843819D01*
Y671335D01*
X841819D01*
Y670335D01*
X840819D01*
Y668335D01*
X841819D01*
Y682114D02*
Y681114D01*
X843819D01*
Y682114D01*
X844819D01*
Y684114D01*
X843819D01*
Y685114D01*
X841819D01*
Y684114D01*
X840819D01*
Y682114D01*
X841819D01*
Y689988D02*
Y688988D01*
X843819D01*
Y689988D01*
X844819D01*
Y691988D01*
X843819D01*
Y692988D01*
X841819D01*
Y691988D01*
X840819D01*
Y689988D01*
X841819D01*
X882189Y660642D02*
X883189Y661642D01*
X884189D01*
X883189Y662642D01*
X884189Y663642D01*
X883189D01*
X882189Y664642D01*
X881189Y663642D01*
X880189D01*
X881189Y662642D01*
X880189Y661642D01*
X881189D01*
X882189Y660642D01*
Y688201D02*
X883189Y689201D01*
X884189D01*
X883189Y690201D01*
X884189Y691201D01*
X883189D01*
X882189Y692201D01*
X881189Y691201D01*
X880189D01*
X881189Y690201D01*
X880189Y689201D01*
X881189D01*
X882189Y688201D01*
X857567Y399831D02*
Y398831D01*
X859567D01*
Y399831D01*
X860567D01*
Y401831D01*
X859567D01*
Y402831D01*
X857567D01*
Y401831D01*
X856567D01*
Y399831D01*
X857567D01*
X841819Y384870D02*
Y383870D01*
X843819D01*
Y384870D01*
X844819D01*
Y386870D01*
X843819D01*
Y387870D01*
X841819D01*
Y386870D01*
X840819D01*
Y384870D01*
X841819D01*
Y392744D02*
Y391744D01*
X843819D01*
Y392744D01*
X844819D01*
Y394744D01*
X843819D01*
Y395744D01*
X841819D01*
Y394744D01*
X840819D01*
Y392744D01*
X841819D01*
Y406524D02*
Y405524D01*
X843819D01*
Y406524D01*
X844819D01*
Y408524D01*
X843819D01*
Y409524D01*
X841819D01*
Y408524D01*
X840819D01*
Y406524D01*
X841819D01*
Y414398D02*
Y413398D01*
X843819D01*
Y414398D01*
X844819D01*
Y416398D01*
X843819D01*
Y417398D01*
X841819D01*
Y416398D01*
X840819D01*
Y414398D01*
X841819D01*
X882189Y385051D02*
X883189Y386051D01*
X884189D01*
X883189Y387051D01*
X884189Y388051D01*
X883189D01*
X882189Y389051D01*
X881189Y388051D01*
X880189D01*
X881189Y387051D01*
X880189Y386051D01*
X881189D01*
X882189Y385051D01*
Y412610D02*
X883189Y413610D01*
X884189D01*
X883189Y414610D01*
X884189Y415610D01*
X883189D01*
X882189Y416610D01*
X881189Y415610D01*
X880189D01*
X881189Y414610D01*
X880189Y413610D01*
X881189D01*
X882189Y412610D01*
X857567Y124240D02*
Y123240D01*
X859567D01*
Y124240D01*
X860567D01*
Y126240D01*
X859567D01*
Y127240D01*
X857567D01*
Y126240D01*
X856567D01*
Y124240D01*
X857567D01*
X841819Y109280D02*
Y108280D01*
X843819D01*
Y109280D01*
X844819D01*
Y111279D01*
X843819D01*
Y112279D01*
X841819D01*
Y111279D01*
X840819D01*
Y109280D01*
X841819D01*
Y117154D02*
Y116154D01*
X843819D01*
Y117154D01*
X844819D01*
Y119153D01*
X843819D01*
Y120153D01*
X841819D01*
Y119153D01*
X840819D01*
Y117154D01*
X841819D01*
Y130933D02*
Y129933D01*
X843819D01*
Y130933D01*
X844819D01*
Y132933D01*
X843819D01*
Y133933D01*
X841819D01*
Y132933D01*
X840819D01*
Y130933D01*
X841819D01*
Y138807D02*
Y137807D01*
X843819D01*
Y138807D01*
X844819D01*
Y140807D01*
X843819D01*
Y141807D01*
X841819D01*
Y140807D01*
X840819D01*
Y138807D01*
X841819D01*
X882189Y109461D02*
X883189Y110461D01*
X884189D01*
X883189Y111461D01*
X884189Y112461D01*
X883189D01*
X882189Y113461D01*
X881189Y112461D01*
X880189D01*
X881189Y111461D01*
X880189Y110461D01*
X881189D01*
X882189Y109461D01*
Y137020D02*
X883189Y138020D01*
X884189D01*
X883189Y139020D01*
X884189Y140020D01*
X883189D01*
X882189Y141020D01*
X881189Y140020D01*
X880189D01*
X881189Y139020D01*
X880189Y138020D01*
X881189D01*
X882189Y137020D01*
X860504Y182295D02*
Y186295D01*
X864504D01*
Y182295D01*
X860504D01*
X884657Y713437D02*
X885658D01*
X886658Y714437D01*
X887658Y713437D01*
X888657D01*
Y714437D01*
X887658Y715437D01*
X888657Y716437D01*
Y717437D01*
X887658D01*
X886658Y716437D01*
X885658Y717437D01*
X884657D01*
Y716437D01*
X885658Y715437D01*
X884657Y714437D01*
Y713437D01*
X834500D02*
X835500D01*
X836500Y714437D01*
X837500Y713437D01*
X838500D01*
Y714437D01*
X837500Y715437D01*
X838500Y716437D01*
Y717437D01*
X837500D01*
X836500Y716437D01*
X835500Y717437D01*
X834500D01*
Y716437D01*
X835500Y715437D01*
X834500Y714437D01*
Y713437D01*
X831653Y78500D02*
X832654D01*
X833654Y79500D01*
X834653Y78500D01*
X835653D01*
Y79500D01*
X834653Y80500D01*
X835653Y81500D01*
Y82500D01*
X834653D01*
X833654Y81500D01*
X832654Y82500D01*
X831653D01*
Y81500D01*
X832654Y80500D01*
X831653Y79500D01*
Y78500D01*
X881811D02*
X882811D01*
X883811Y79500D01*
X884811Y78500D01*
X885811D01*
Y79500D01*
X884811Y80500D01*
X885811Y81500D01*
Y82500D01*
X884811D01*
X883811Y81500D01*
X882811Y82500D01*
X881811D01*
Y81500D01*
X882811Y80500D01*
X881811Y79500D01*
Y78500D01*
X455457Y724409D02*
X457457Y726409D01*
X459457Y724409D01*
X457457Y722409D01*
X455457Y724409D01*
Y694410D02*
X457457Y696410D01*
X459457Y694410D01*
X457457Y692410D01*
X455457Y694410D01*
X452276Y573291D02*
X453276Y575291D01*
X452276Y577291D01*
X454276Y576291D01*
X456276Y577291D01*
X455276Y575291D01*
X456276Y573291D01*
X454276Y574291D01*
X452276Y573291D01*
Y578291D02*
X453276Y580291D01*
X452276Y582291D01*
X454276Y581291D01*
X456276Y582291D01*
X455276Y580291D01*
X456276Y578291D01*
X454276Y579291D01*
X452276Y578291D01*
X525819Y604906D02*
Y608906D01*
X529819D01*
Y604906D01*
X525819D01*
X526619Y605705D02*
Y608106D01*
X529019D01*
Y605705D01*
X526619D01*
X525819Y585693D02*
Y589693D01*
X529819D01*
Y585693D01*
X525819D01*
X526619Y586493D02*
Y588893D01*
X529019D01*
Y586493D01*
X526619D01*
X513221Y734000D02*
X514221D01*
X515220Y735000D01*
X516221Y734000D01*
X517220D01*
Y735000D01*
X516221Y736000D01*
X517220Y737000D01*
Y738000D01*
X516221D01*
X515220Y737000D01*
X514221Y738000D01*
X513221D01*
Y737000D01*
X514221Y736000D01*
X513221Y735000D01*
Y734000D01*
Y683843D02*
X514221D01*
X515220Y684842D01*
X516221Y683843D01*
X517220D01*
Y684842D01*
X516221Y685843D01*
X517220Y686842D01*
Y687843D01*
X516221D01*
X515220Y686842D01*
X514221Y687843D01*
X513221D01*
Y686842D01*
X514221Y685843D01*
X513221Y684842D01*
Y683843D01*
X346957Y724409D02*
X348957Y726409D01*
X350957Y724409D01*
X348957Y722409D01*
X346957Y724409D01*
Y694410D02*
X348957Y696410D01*
X350957Y694410D01*
X348957Y692410D01*
X346957Y694410D01*
X343776Y573291D02*
X344776Y575291D01*
X343776Y577291D01*
X345776Y576291D01*
X347776Y577291D01*
X346776Y575291D01*
X347776Y573291D01*
X345776Y574291D01*
X343776Y573291D01*
Y578291D02*
X344776Y580291D01*
X343776Y582291D01*
X345776Y581291D01*
X347776Y582291D01*
X346776Y580291D01*
X347776Y578291D01*
X345776Y579291D01*
X343776Y578291D01*
X417319Y604906D02*
Y608906D01*
X421319D01*
Y604906D01*
X417319D01*
X418119Y605705D02*
Y608106D01*
X420519D01*
Y605705D01*
X418119D01*
X417319Y585693D02*
Y589693D01*
X421319D01*
Y585693D01*
X417319D01*
X418119Y586493D02*
Y588893D01*
X420519D01*
Y586493D01*
X418119D01*
X404720Y734000D02*
X405721D01*
X406720Y735000D01*
X407721Y734000D01*
X408720D01*
Y735000D01*
X407721Y736000D01*
X408720Y737000D01*
Y738000D01*
X407721D01*
X406720Y737000D01*
X405721Y738000D01*
X404720D01*
Y737000D01*
X405721Y736000D01*
X404720Y735000D01*
Y734000D01*
Y683843D02*
X405721D01*
X406720Y684842D01*
X407721Y683843D01*
X408720D01*
Y684842D01*
X407721Y685843D01*
X408720Y686842D01*
Y687843D01*
X407721D01*
X406720Y686842D01*
X405721Y687843D01*
X404720D01*
Y686842D01*
X405721Y685843D01*
X404720Y684842D01*
Y683843D01*
X398955Y22646D02*
Y26645D01*
X402955D01*
Y22646D01*
X398955D01*
X399755Y23446D02*
Y25846D01*
X402155D01*
Y23446D01*
X399755D01*
X418167Y22646D02*
Y26645D01*
X422167D01*
Y22646D01*
X418167D01*
X418967Y23446D02*
Y25846D01*
X421367D01*
Y23446D01*
X418967D01*
X179724Y79209D02*
Y83209D01*
X183724D01*
Y79209D01*
X179724D01*
X180524Y80009D02*
Y82409D01*
X182924D01*
Y80009D01*
X180524D01*
X179724Y59996D02*
Y63996D01*
X183724D01*
Y59996D01*
X179724D01*
X180524Y60796D02*
Y63196D01*
X182924D01*
Y60796D01*
X180524D01*
X159031Y89354D02*
Y93354D01*
X163031D01*
Y89354D01*
X159031D01*
X159832Y90154D02*
Y92554D01*
X162232D01*
Y90154D01*
X159832D01*
X165724Y89354D02*
Y93354D01*
X169724D01*
Y89354D01*
X165724D01*
X166524Y90154D02*
Y92554D01*
X168924D01*
Y90154D01*
X166524D01*
X209756Y225874D02*
X210756D01*
X211756Y226874D01*
X212756Y225874D01*
X213756D01*
Y226874D01*
X212756Y227874D01*
X213756Y228874D01*
Y229874D01*
X212756D01*
X211756Y228874D01*
X210756Y229874D01*
X209756D01*
Y228874D01*
X210756Y227874D01*
X209756Y226874D01*
Y225874D01*
X109756Y312488D02*
X110756D01*
X111756Y313488D01*
X112756Y312488D01*
X113756D01*
Y313488D01*
X112756Y314488D01*
X113756Y315488D01*
Y316488D01*
X112756D01*
X111756Y315488D01*
X110756Y316488D01*
X109756D01*
Y315488D01*
X110756Y314488D01*
X109756Y313488D01*
Y312488D01*
X231756Y239181D02*
X229756Y243181D01*
X233756D01*
X231756Y239181D01*
Y239981D02*
X230556Y242381D01*
X232956D01*
X231756Y239981D01*
Y259181D02*
X229756Y263181D01*
X233756D01*
X231756Y259181D01*
Y259981D02*
X230556Y262381D01*
X232956D01*
X231756Y259981D01*
Y279181D02*
X229756Y283181D01*
X233756D01*
X231756Y279181D01*
Y279981D02*
X230556Y282381D01*
X232956D01*
X231756Y279981D01*
Y299181D02*
X229756Y303181D01*
X233756D01*
X231756Y299181D01*
Y299981D02*
X230556Y302381D01*
X232956D01*
X231756Y299981D01*
X91756Y299181D02*
X89756Y303181D01*
X93756D01*
X91756Y299181D01*
Y299981D02*
X90556Y302381D01*
X92956D01*
X91756Y299981D01*
Y259181D02*
X89756Y263181D01*
X93756D01*
X91756Y259181D01*
Y259981D02*
X90556Y262381D01*
X92956D01*
X91756Y259981D01*
Y239181D02*
X89756Y243181D01*
X93756D01*
X91756Y239181D01*
Y239981D02*
X90556Y242381D01*
X92956D01*
X91756Y239981D01*
X557756Y77181D02*
X555756Y81181D01*
X559756D01*
X557756Y77181D01*
Y77981D02*
X556556Y80381D01*
X558956D01*
X557756Y77981D01*
X201756Y169181D02*
X199756Y173181D01*
X203756D01*
X201756Y169181D01*
Y169981D02*
X200556Y172381D01*
X202956D01*
X201756Y169981D01*
X205756Y139181D02*
X203756Y143181D01*
X207756D01*
X205756Y139181D01*
Y139981D02*
X204556Y142381D01*
X206956D01*
X205756Y139981D01*
X363756Y89181D02*
X361756Y93181D01*
X365756D01*
X363756Y89181D01*
Y89981D02*
X362556Y92381D01*
X364956D01*
X363756Y89981D01*
X251756Y221181D02*
X249756Y225181D01*
X253756D01*
X251756Y221181D01*
Y221981D02*
X250556Y224381D01*
X252956D01*
X251756Y221981D01*
X219756Y197181D02*
X217756Y201181D01*
X221756D01*
X219756Y197181D01*
Y197981D02*
X218556Y200381D01*
X220956D01*
X219756Y197981D01*
X474087Y223134D02*
X472087Y227134D01*
X476087D01*
X474087Y223134D01*
Y223934D02*
X472887Y226334D01*
X475287D01*
X474087Y223934D01*
X384953Y91181D02*
X382953Y95181D01*
X386953D01*
X384953Y91181D01*
Y91981D02*
X383753Y94381D01*
X386153D01*
X384953Y91981D01*
X493847Y99125D02*
X491847Y103125D01*
X495847D01*
X493847Y99125D01*
Y99925D02*
X492647Y102325D01*
X495047D01*
X493847Y99925D01*
X573756Y77181D02*
X571756Y81181D01*
X575756D01*
X573756Y77181D01*
Y77981D02*
X572556Y80381D01*
X574956D01*
X573756Y77981D01*
X485362Y107611D02*
X483362Y111611D01*
X487362D01*
X485362Y107611D01*
Y108411D02*
X484162Y110811D01*
X486562D01*
X485362Y108411D01*
X377756Y111181D02*
X375756Y115181D01*
X379756D01*
X377756Y111181D01*
Y111981D02*
X376556Y114381D01*
X378956D01*
X377756Y111981D01*
X346528Y45685D02*
X344528Y49685D01*
X348528D01*
X346528Y45685D01*
Y46485D02*
X345328Y48885D01*
X347728D01*
X346528Y46485D01*
X341756Y283181D02*
X339756Y287181D01*
X343756D01*
X341756Y283181D01*
Y283981D02*
X340556Y286381D01*
X342956D01*
X341756Y283981D01*
X193756Y197181D02*
X191756Y201181D01*
X195756D01*
X193756Y197181D01*
Y197981D02*
X192556Y200381D01*
X194956D01*
X193756Y197981D01*
X251756Y197181D02*
X249756Y201181D01*
X253756D01*
X251756Y197181D01*
Y197981D02*
X250556Y200381D01*
X252956D01*
X251756Y197981D01*
X187756Y169181D02*
X185756Y173181D01*
X189756D01*
X187756Y169181D01*
Y169981D02*
X186556Y172381D01*
X188956D01*
X187756Y169981D01*
X65756Y239181D02*
X63756Y243181D01*
X67756D01*
X65756Y239181D01*
Y239981D02*
X64556Y242381D01*
X66956D01*
X65756Y239981D01*
X327756Y271181D02*
X325756Y275181D01*
X329756D01*
X327756Y271181D01*
Y271981D02*
X326556Y274381D01*
X328956D01*
X327756Y271981D01*
X487849Y207970D02*
X485849Y211970D01*
X489849D01*
X487849Y207970D01*
Y208770D02*
X486649Y211170D01*
X489049D01*
X487849Y208770D01*
X25756Y315181D02*
X23756Y319181D01*
X27756D01*
X25756Y315181D01*
Y315981D02*
X24556Y318381D01*
X26956D01*
X25756Y315981D01*
X327756Y283181D02*
X325756Y287181D01*
X329756D01*
X327756Y283181D01*
Y283981D02*
X326556Y286381D01*
X328956D01*
X327756Y283981D01*
X473250Y193371D02*
X471250Y197371D01*
X475250D01*
X473250Y193371D01*
Y194171D02*
X472050Y196571D01*
X474450D01*
X473250Y194171D01*
X155756Y177181D02*
X153756Y181181D01*
X157756D01*
X155756Y177181D01*
Y177981D02*
X154556Y180381D01*
X156956D01*
X155756Y177981D01*
X145504Y171939D02*
X143504Y175939D01*
X147504D01*
X145504Y171939D01*
Y172739D02*
X144304Y175139D01*
X146704D01*
X145504Y172739D01*
X157756Y43181D02*
X155756Y47181D01*
X159756D01*
X157756Y43181D01*
Y43981D02*
X156556Y46381D01*
X158956D01*
X157756Y43981D01*
X147756Y81181D02*
X145756Y85181D01*
X149756D01*
X147756Y81181D01*
Y81981D02*
X146556Y84381D01*
X148956D01*
X147756Y81981D01*
X333756Y313181D02*
X334756Y314181D01*
X335756D01*
X334756Y315181D01*
X335756Y316181D01*
X334756D01*
X333756Y317181D01*
X332756Y316181D01*
X331756D01*
X332756Y315181D01*
X331756Y314181D01*
X332756D01*
X333756Y313181D01*
Y313981D02*
X334356Y314581D01*
X334956D01*
X334356Y315181D01*
X334956Y315781D01*
X334356D01*
X333756Y316381D01*
X333156Y315781D01*
X332556D01*
X333156Y315181D01*
X332556Y314581D01*
X333156D01*
X333756Y313981D01*
X403756Y313181D02*
X404756Y314181D01*
X405756D01*
X404756Y315181D01*
X405756Y316181D01*
X404756D01*
X403756Y317181D01*
X402756Y316181D01*
X401756D01*
X402756Y315181D01*
X401756Y314181D01*
X402756D01*
X403756Y313181D01*
Y313981D02*
X404356Y314581D01*
X404956D01*
X404356Y315181D01*
X404956Y315781D01*
X404356D01*
X403756Y316381D01*
X403156Y315781D01*
X402556D01*
X403156Y315181D01*
X402556Y314581D01*
X403156D01*
X403756Y313981D01*
X215756Y79181D02*
X213756Y83181D01*
X217756D01*
X215756Y79181D01*
Y79981D02*
X214556Y82381D01*
X216956D01*
X215756Y79981D01*
X234260Y99161D02*
X232260Y103161D01*
X236260D01*
X234260Y99161D01*
Y99961D02*
X233060Y102361D01*
X235460D01*
X234260Y99961D01*
Y59201D02*
X232260Y63201D01*
X236260D01*
X234260Y59201D01*
Y60001D02*
X233060Y62401D01*
X235460D01*
X234260Y60001D01*
X29943Y146568D02*
X27943Y150568D01*
X31943D01*
X29943Y146568D01*
X38543Y136268D02*
X36543Y140268D01*
X40543D01*
X38543Y136268D01*
X29943Y140268D02*
X27943Y144268D01*
X31943D01*
X29943Y140268D01*
Y133968D02*
X27943Y137968D01*
X31943D01*
X29943Y133968D01*
X38543Y144268D02*
X36543Y148268D01*
X40543D01*
X38543Y144268D01*
X33743Y164168D02*
X34743Y165168D01*
X35743D01*
X34743Y166168D01*
X35743Y167168D01*
X34743D01*
X33743Y168168D01*
X32743Y167168D01*
X31743D01*
X32743Y166168D01*
X31743Y165168D01*
X32743D01*
X33743Y164168D01*
Y116968D02*
X34743Y117968D01*
X35743D01*
X34743Y118968D01*
X35743Y119968D01*
X34743D01*
X33743Y120968D01*
X32743Y119968D01*
X31743D01*
X32743Y118968D01*
X31743Y117968D01*
X32743D01*
X33743Y116968D01*
X29943Y214568D02*
X27943Y218568D01*
X31943D01*
X29943Y214568D01*
X38543Y204268D02*
X36543Y208268D01*
X40543D01*
X38543Y204268D01*
X29943Y208268D02*
X27943Y212268D01*
X31943D01*
X29943Y208268D01*
Y201968D02*
X27943Y205968D01*
X31943D01*
X29943Y201968D01*
X38543Y212268D02*
X36543Y216268D01*
X40543D01*
X38543Y212268D01*
X33743Y232168D02*
X34743Y233168D01*
X35743D01*
X34743Y234168D01*
X35743Y235168D01*
X34743D01*
X33743Y236168D01*
X32743Y235168D01*
X31743D01*
X32743Y234168D01*
X31743Y233168D01*
X32743D01*
X33743Y232168D01*
Y184968D02*
X34743Y185968D01*
X35743D01*
X34743Y186968D01*
X35743Y187968D01*
X34743D01*
X33743Y188968D01*
X32743Y187968D01*
X31743D01*
X32743Y186968D01*
X31743Y185968D01*
X32743D01*
X33743Y184968D01*
X532602Y68807D02*
X533602Y70807D01*
X532602Y72807D01*
X534602Y71807D01*
X536602Y72807D01*
X535602Y70807D01*
X536602Y68807D01*
X534602Y69807D01*
X532602Y68807D01*
X533402Y69607D02*
X534002Y70807D01*
X533402Y72007D01*
X534602Y71407D01*
X535802Y72007D01*
X535202Y70807D01*
X535802Y69607D01*
X534602Y70207D01*
X533402Y69607D01*
X60201Y267154D02*
X61201Y269153D01*
X60201Y271153D01*
X62201Y270153D01*
X64201Y271153D01*
X63201Y269153D01*
X64201Y267154D01*
X62201Y268154D01*
X60201Y267154D01*
X61001Y267953D02*
X61601Y269153D01*
X61001Y270354D01*
X62201Y269754D01*
X63401Y270354D01*
X62801Y269153D01*
X63401Y267953D01*
X62201Y268553D01*
X61001Y267953D01*
X60201Y68807D02*
X61201Y70807D01*
X60201Y72807D01*
X62201Y71807D01*
X64201Y72807D01*
X63201Y70807D01*
X64201Y68807D01*
X62201Y69807D01*
X60201Y68807D01*
X61001Y69607D02*
X61601Y70807D01*
X61001Y72007D01*
X62201Y71407D01*
X63401Y72007D01*
X62801Y70807D01*
X63401Y69607D01*
X62201Y70207D01*
X61001Y69607D01*
X31472Y36740D02*
X32472Y37740D01*
X33472D01*
X32472Y38740D01*
X33472Y39740D01*
X32472D01*
X31472Y40740D01*
X30472Y39740D01*
X29472D01*
X30472Y38740D01*
X29472Y37740D01*
X30472D01*
X31472Y36740D01*
Y37540D02*
X32072Y38140D01*
X32672D01*
X32072Y38740D01*
X32672Y39340D01*
X32072D01*
X31472Y39940D01*
X30872Y39340D01*
X30272D01*
X30872Y38740D01*
X30272Y38140D01*
X30872D01*
X31472Y37540D01*
X41472Y36740D02*
X42472Y37740D01*
X43472D01*
X42472Y38740D01*
X43472Y39740D01*
X42472D01*
X41472Y40740D01*
X40472Y39740D01*
X39472D01*
X40472Y38740D01*
X39472Y37740D01*
X40472D01*
X41472Y36740D01*
Y37540D02*
X42072Y38140D01*
X42672D01*
X42072Y38740D01*
X42672Y39340D01*
X42072D01*
X41472Y39940D01*
X40872Y39340D01*
X40272D01*
X40872Y38740D01*
X40272Y38140D01*
X40872D01*
X41472Y37540D01*
X51473Y36740D02*
X52473Y37740D01*
X53473D01*
X52473Y38740D01*
X53473Y39740D01*
X52473D01*
X51473Y40740D01*
X50472Y39740D01*
X49472D01*
X50472Y38740D01*
X49472Y37740D01*
X50472D01*
X51473Y36740D01*
Y37540D02*
X52073Y38140D01*
X52672D01*
X52073Y38740D01*
X52672Y39340D01*
X52073D01*
X51473Y39940D01*
X50872Y39340D01*
X50272D01*
X50872Y38740D01*
X50272Y38140D01*
X50872D01*
X51473Y37540D01*
X31472Y46740D02*
X32472Y47740D01*
X33472D01*
X32472Y48740D01*
X33472Y49740D01*
X32472D01*
X31472Y50740D01*
X30472Y49740D01*
X29472D01*
X30472Y48740D01*
X29472Y47740D01*
X30472D01*
X31472Y46740D01*
Y47540D02*
X32072Y48140D01*
X32672D01*
X32072Y48740D01*
X32672Y49340D01*
X32072D01*
X31472Y49940D01*
X30872Y49340D01*
X30272D01*
X30872Y48740D01*
X30272Y48140D01*
X30872D01*
X31472Y47540D01*
X41472Y46740D02*
X42472Y47740D01*
X43472D01*
X42472Y48740D01*
X43472Y49740D01*
X42472D01*
X41472Y50740D01*
X40472Y49740D01*
X39472D01*
X40472Y48740D01*
X39472Y47740D01*
X40472D01*
X41472Y46740D01*
Y47540D02*
X42072Y48140D01*
X42672D01*
X42072Y48740D01*
X42672Y49340D01*
X42072D01*
X41472Y49940D01*
X40872Y49340D01*
X40272D01*
X40872Y48740D01*
X40272Y48140D01*
X40872D01*
X41472Y47540D01*
X51473Y46740D02*
X52473Y47740D01*
X53473D01*
X52473Y48740D01*
X53473Y49740D01*
X52473D01*
X51473Y50740D01*
X50472Y49740D01*
X49472D01*
X50472Y48740D01*
X49472Y47740D01*
X50472D01*
X51473Y46740D01*
Y47540D02*
X52073Y48140D01*
X52672D01*
X52073Y48740D01*
X52672Y49340D01*
X52073D01*
X51473Y49940D01*
X50872Y49340D01*
X50272D01*
X50872Y48740D01*
X50272Y48140D01*
X50872D01*
X51473Y47540D01*
X31472Y15087D02*
X32472Y16087D01*
X33472D01*
X32472Y17087D01*
X33472Y18087D01*
X32472D01*
X31472Y19087D01*
X30472Y18087D01*
X29472D01*
X30472Y17087D01*
X29472Y16087D01*
X30472D01*
X31472Y15087D01*
Y15887D02*
X32072Y16487D01*
X32672D01*
X32072Y17087D01*
X32672Y17687D01*
X32072D01*
X31472Y18287D01*
X30872Y17687D01*
X30272D01*
X30872Y17087D01*
X30272Y16487D01*
X30872D01*
X31472Y15887D01*
X41472Y15087D02*
X42472Y16087D01*
X43472D01*
X42472Y17087D01*
X43472Y18087D01*
X42472D01*
X41472Y19087D01*
X40472Y18087D01*
X39472D01*
X40472Y17087D01*
X39472Y16087D01*
X40472D01*
X41472Y15087D01*
Y15887D02*
X42072Y16487D01*
X42672D01*
X42072Y17087D01*
X42672Y17687D01*
X42072D01*
X41472Y18287D01*
X40872Y17687D01*
X40272D01*
X40872Y17087D01*
X40272Y16487D01*
X40872D01*
X41472Y15887D01*
X51473Y15087D02*
X52473Y16087D01*
X53473D01*
X52473Y17087D01*
X53473Y18087D01*
X52473D01*
X51473Y19087D01*
X50472Y18087D01*
X49472D01*
X50472Y17087D01*
X49472Y16087D01*
X50472D01*
X51473Y15087D01*
Y15887D02*
X52073Y16487D01*
X52672D01*
X52073Y17087D01*
X52672Y17687D01*
X52073D01*
X51473Y18287D01*
X50872Y17687D01*
X50272D01*
X50872Y17087D01*
X50272Y16487D01*
X50872D01*
X51473Y15887D01*
X31472Y25087D02*
X32472Y26087D01*
X33472D01*
X32472Y27087D01*
X33472Y28087D01*
X32472D01*
X31472Y29087D01*
X30472Y28087D01*
X29472D01*
X30472Y27087D01*
X29472Y26087D01*
X30472D01*
X31472Y25087D01*
Y25887D02*
X32072Y26487D01*
X32672D01*
X32072Y27087D01*
X32672Y27687D01*
X32072D01*
X31472Y28287D01*
X30872Y27687D01*
X30272D01*
X30872Y27087D01*
X30272Y26487D01*
X30872D01*
X31472Y25887D01*
X41472Y25087D02*
X42472Y26087D01*
X43472D01*
X42472Y27087D01*
X43472Y28087D01*
X42472D01*
X41472Y29087D01*
X40472Y28087D01*
X39472D01*
X40472Y27087D01*
X39472Y26087D01*
X40472D01*
X41472Y25087D01*
Y25887D02*
X42072Y26487D01*
X42672D01*
X42072Y27087D01*
X42672Y27687D01*
X42072D01*
X41472Y28287D01*
X40872Y27687D01*
X40272D01*
X40872Y27087D01*
X40272Y26487D01*
X40872D01*
X41472Y25887D01*
X51473Y25087D02*
X52473Y26087D01*
X53473D01*
X52473Y27087D01*
X53473Y28087D01*
X52473D01*
X51473Y29087D01*
X50472Y28087D01*
X49472D01*
X50472Y27087D01*
X49472Y26087D01*
X50472D01*
X51473Y25087D01*
Y25887D02*
X52073Y26487D01*
X52672D01*
X52073Y27087D01*
X52672Y27687D01*
X52073D01*
X51473Y28287D01*
X50872Y27687D01*
X50272D01*
X50872Y27087D01*
X50272Y26487D01*
X50872D01*
X51473Y25887D01*
X251756Y209181D02*
X252756D01*
X253756Y210181D01*
X254756Y209181D01*
X255756D01*
Y210181D01*
X254756Y211181D01*
X255756Y212181D01*
Y213181D01*
X254756D01*
X253756Y212181D01*
X252756Y213181D01*
X251756D01*
Y212181D01*
X252756Y211181D01*
X251756Y210181D01*
Y209181D01*
X296298Y164639D02*
X297298D01*
X298298Y165639D01*
X299298Y164639D01*
X300298D01*
Y165639D01*
X299298Y166639D01*
X300298Y167639D01*
Y168639D01*
X299298D01*
X298298Y167639D01*
X297298Y168639D01*
X296298D01*
Y167639D01*
X297298Y166639D01*
X296298Y165639D01*
Y164639D01*
X243756Y271181D02*
X244756D01*
X245756Y272181D01*
X246756Y271181D01*
X247756D01*
Y272181D01*
X246756Y273181D01*
X247756Y274181D01*
Y275181D01*
X246756D01*
X245756Y274181D01*
X244756Y275181D01*
X243756D01*
Y274181D01*
X244756Y273181D01*
X243756Y272181D01*
Y271181D01*
X306748D02*
X307748D01*
X308748Y272181D01*
X309748Y271181D01*
X310748D01*
Y272181D01*
X309748Y273181D01*
X310748Y274181D01*
Y275181D01*
X309748D01*
X308748Y274181D01*
X307748Y275181D01*
X306748D01*
Y274181D01*
X307748Y273181D01*
X306748Y272181D01*
Y271181D01*
X311756Y235181D02*
X312756Y236181D01*
X313756D01*
X312756Y237181D01*
X313756Y238181D01*
X312756D01*
X311756Y239181D01*
X310756Y238181D01*
X309756D01*
X310756Y237181D01*
X309756Y236181D01*
X310756D01*
X311756Y235181D01*
Y235981D02*
X312356Y236581D01*
X312956D01*
X312356Y237181D01*
X312956Y237781D01*
X312356D01*
X311756Y238381D01*
X311156Y237781D01*
X310556D01*
X311156Y237181D01*
X310556Y236581D01*
X311156D01*
X311756Y235981D01*
Y254866D02*
X312756Y255866D01*
X313756D01*
X312756Y256866D01*
X313756Y257866D01*
X312756D01*
X311756Y258866D01*
X310756Y257866D01*
X309756D01*
X310756Y256866D01*
X309756Y255866D01*
X310756D01*
X311756Y254866D01*
Y255666D02*
X312356Y256266D01*
X312956D01*
X312356Y256866D01*
X312956Y257466D01*
X312356D01*
X311756Y258066D01*
X311156Y257466D01*
X310556D01*
X311156Y256866D01*
X310556Y256266D01*
X311156D01*
X311756Y255666D01*
Y193181D02*
X312756Y194181D01*
X313756D01*
X312756Y195181D01*
X313756Y196181D01*
X312756D01*
X311756Y197181D01*
X310756Y196181D01*
X309756D01*
X310756Y195181D01*
X309756Y194181D01*
X310756D01*
X311756Y193181D01*
Y193981D02*
X312356Y194581D01*
X312956D01*
X312356Y195181D01*
X312956Y195781D01*
X312356D01*
X311756Y196381D01*
X311156Y195781D01*
X310556D01*
X311156Y195181D01*
X310556Y194581D01*
X311156D01*
X311756Y193981D01*
Y212866D02*
X312756Y213866D01*
X313756D01*
X312756Y214866D01*
X313756Y215866D01*
X312756D01*
X311756Y216866D01*
X310756Y215866D01*
X309756D01*
X310756Y214866D01*
X309756Y213866D01*
X310756D01*
X311756Y212866D01*
Y213666D02*
X312356Y214266D01*
X312956D01*
X312356Y214866D01*
X312956Y215466D01*
X312356D01*
X311756Y216066D01*
X311156Y215466D01*
X310556D01*
X311156Y214866D01*
X310556Y214266D01*
X311156D01*
X311756Y213666D01*
X574756Y102181D02*
Y101181D01*
X576756D01*
Y102181D01*
X577756D01*
Y104181D01*
X576756D01*
Y105181D01*
X574756D01*
Y104181D01*
X573756D01*
Y102181D01*
X574756D01*
X575156Y102581D02*
Y101981D01*
X576356D01*
Y102581D01*
X576956D01*
Y103781D01*
X576356D01*
Y104381D01*
X575156D01*
Y103781D01*
X574556D01*
Y102581D01*
X575156D01*
X520425Y317929D02*
Y316929D01*
X522425D01*
Y317929D01*
X523425D01*
Y319929D01*
X522425D01*
Y320929D01*
X520425D01*
Y319929D01*
X519425D01*
Y317929D01*
X520425D01*
X520825Y318329D02*
Y317729D01*
X522025D01*
Y318329D01*
X522625D01*
Y319529D01*
X522025D01*
Y320129D01*
X520825D01*
Y319529D01*
X520225D01*
Y318329D01*
X520825D01*
X574756Y317929D02*
Y316929D01*
X576756D01*
Y317929D01*
X577756D01*
Y319929D01*
X576756D01*
Y320929D01*
X574756D01*
Y319929D01*
X573756D01*
Y317929D01*
X574756D01*
X575156Y318329D02*
Y317729D01*
X576356D01*
Y318329D01*
X576956D01*
Y319529D01*
X576356D01*
Y320129D01*
X575156D01*
Y319529D01*
X574556D01*
Y318329D01*
X575156D01*
X520425Y102181D02*
Y101181D01*
X522425D01*
Y102181D01*
X523425D01*
Y104181D01*
X522425D01*
Y105181D01*
X520425D01*
Y104181D01*
X519425D01*
Y102181D01*
X520425D01*
X520825Y102581D02*
Y101981D01*
X522025D01*
Y102581D01*
X522625D01*
Y103781D01*
X522025D01*
Y104381D01*
X520825D01*
Y103781D01*
X520225D01*
Y102581D01*
X520825D01*
X516669Y265945D02*
X517669D01*
X518669Y266945D01*
X519669Y265945D01*
X520669D01*
Y266945D01*
X519669Y267945D01*
X520669Y268945D01*
Y269945D01*
X519669D01*
X518669Y268945D01*
X517669Y269945D01*
X516669D01*
Y268945D01*
X517669Y267945D01*
X516669Y266945D01*
Y265945D01*
X517469Y266745D02*
X518069D01*
X518669Y267345D01*
X519269Y266745D01*
X519869D01*
Y267345D01*
X519269Y267945D01*
X519869Y268545D01*
Y269145D01*
X519269D01*
X518669Y268545D01*
X518069Y269145D01*
X517469D01*
Y268545D01*
X518069Y267945D01*
X517469Y267345D01*
Y266745D01*
X576512Y273031D02*
X577512D01*
X578512Y274031D01*
X579512Y273031D01*
X580512D01*
Y274031D01*
X579512Y275031D01*
X580512Y276031D01*
Y277031D01*
X579512D01*
X578512Y276031D01*
X577512Y277031D01*
X576512D01*
Y276031D01*
X577512Y275031D01*
X576512Y274031D01*
Y273031D01*
X577312Y273832D02*
X577912D01*
X578512Y274431D01*
X579112Y273832D01*
X579712D01*
Y274431D01*
X579112Y275031D01*
X579712Y275631D01*
Y276232D01*
X579112D01*
X578512Y275631D01*
X577912Y276232D01*
X577312D01*
Y275631D01*
X577912Y275031D01*
X577312Y274431D01*
Y273832D01*
X576512Y122244D02*
X577512D01*
X578512Y123244D01*
X579512Y122244D01*
X580512D01*
Y123244D01*
X579512Y124244D01*
X580512Y125244D01*
Y126244D01*
X579512D01*
X578512Y125244D01*
X577512Y126244D01*
X576512D01*
Y125244D01*
X577512Y124244D01*
X576512Y123244D01*
Y122244D01*
X577312Y123044D02*
X577912D01*
X578512Y123644D01*
X579112Y123044D01*
X579712D01*
Y123644D01*
X579112Y124244D01*
X579712Y124844D01*
Y125444D01*
X579112D01*
X578512Y124844D01*
X577912Y125444D01*
X577312D01*
Y124844D01*
X577912Y124244D01*
X577312Y123644D01*
Y123044D01*
X516669Y115157D02*
X517669D01*
X518669Y116157D01*
X519669Y115157D01*
X520669D01*
Y116157D01*
X519669Y117157D01*
X520669Y118157D01*
Y119158D01*
X519669D01*
X518669Y118157D01*
X517669Y119158D01*
X516669D01*
Y118157D01*
X517669Y117157D01*
X516669Y116157D01*
Y115157D01*
X517469Y115957D02*
X518069D01*
X518669Y116558D01*
X519269Y115957D01*
X519869D01*
Y116558D01*
X519269Y117157D01*
X519869Y117757D01*
Y118358D01*
X519269D01*
X518669Y117757D01*
X518069Y118358D01*
X517469D01*
Y117757D01*
X518069Y117157D01*
X517469Y116558D01*
Y115957D01*
X199756Y151181D02*
X197756Y155181D01*
X201756D01*
X199756Y151181D01*
Y151981D02*
X198556Y154381D01*
X200956D01*
X199756Y151981D01*
X565756Y247181D02*
X563756Y251181D01*
X567756D01*
X565756Y247181D01*
Y247981D02*
X564556Y250381D01*
X566956D01*
X565756Y247981D01*
X557756Y291181D02*
X555756Y295181D01*
X559756D01*
X557756Y291181D01*
Y291981D02*
X556556Y294381D01*
X558956D01*
X557756Y291981D01*
X79220Y734000D02*
X80221D01*
X81221Y735000D01*
X82221Y734000D01*
X83220D01*
Y735000D01*
X82221Y736000D01*
X83220Y737000D01*
Y738000D01*
X82221D01*
X81221Y737000D01*
X80221Y738000D01*
X79220D01*
Y737000D01*
X80221Y736000D01*
X79220Y735000D01*
Y734000D01*
Y683843D02*
X80221D01*
X81221Y684842D01*
X82221Y683843D01*
X83220D01*
Y684842D01*
X82221Y685843D01*
X83220Y686842D01*
Y687843D01*
X82221D01*
X81221Y686842D01*
X80221Y687843D01*
X79220D01*
Y686842D01*
X80221Y685843D01*
X79220Y684842D01*
Y683843D01*
X91819Y604906D02*
Y608906D01*
X95819D01*
Y604906D01*
X91819D01*
X92619Y605705D02*
Y608106D01*
X95019D01*
Y605705D01*
X92619D01*
X91819Y585693D02*
Y589693D01*
X95819D01*
Y585693D01*
X91819D01*
X92619Y586493D02*
Y588893D01*
X95019D01*
Y586493D01*
X92619D01*
X18276Y573291D02*
X19276Y575291D01*
X18276Y577291D01*
X20276Y576291D01*
X22276Y577291D01*
X21276Y575291D01*
X22276Y573291D01*
X20276Y574291D01*
X18276Y573291D01*
Y578291D02*
X19276Y580291D01*
X18276Y582291D01*
X20276Y581291D01*
X22276Y582291D01*
X21276Y580291D01*
X22276Y578291D01*
X20276Y579291D01*
X18276Y578291D01*
X21457Y724409D02*
X23457Y726409D01*
X25457Y724409D01*
X23457Y722409D01*
X21457Y724409D01*
Y694410D02*
X23457Y696410D01*
X25457Y694410D01*
X23457Y692410D01*
X21457Y694410D01*
X187721Y734000D02*
X188721D01*
X189720Y735000D01*
X190720Y734000D01*
X191720D01*
Y735000D01*
X190720Y736000D01*
X191720Y737000D01*
Y738000D01*
X190720D01*
X189720Y737000D01*
X188721Y738000D01*
X187721D01*
Y737000D01*
X188721Y736000D01*
X187721Y735000D01*
Y734000D01*
Y683843D02*
X188721D01*
X189720Y684842D01*
X190720Y683843D01*
X191720D01*
Y684842D01*
X190720Y685843D01*
X191720Y686842D01*
Y687843D01*
X190720D01*
X189720Y686842D01*
X188721Y687843D01*
X187721D01*
Y686842D01*
X188721Y685843D01*
X187721Y684842D01*
Y683843D01*
X200319Y604906D02*
Y608906D01*
X204319D01*
Y604906D01*
X200319D01*
X201119Y605705D02*
Y608106D01*
X203519D01*
Y605705D01*
X201119D01*
X200319Y585693D02*
Y589693D01*
X204319D01*
Y585693D01*
X200319D01*
X201119Y586493D02*
Y588893D01*
X203519D01*
Y586493D01*
X201119D01*
X126776Y573291D02*
X127776Y575291D01*
X126776Y577291D01*
X128776Y576291D01*
X130776Y577291D01*
X129776Y575291D01*
X130776Y573291D01*
X128776Y574291D01*
X126776Y573291D01*
Y578291D02*
X127776Y580291D01*
X126776Y582291D01*
X128776Y581291D01*
X130776Y582291D01*
X129776Y580291D01*
X130776Y578291D01*
X128776Y579291D01*
X126776Y578291D01*
X129957Y724409D02*
X131957Y726409D01*
X133957Y724409D01*
X131957Y722409D01*
X129957Y724409D01*
Y694410D02*
X131957Y696410D01*
X133957Y694410D01*
X131957Y692410D01*
X129957Y694410D01*
X296220Y734000D02*
X297220D01*
X298220Y735000D01*
X299220Y734000D01*
X300220D01*
Y735000D01*
X299220Y736000D01*
X300220Y737000D01*
Y738000D01*
X299220D01*
X298220Y737000D01*
X297220Y738000D01*
X296220D01*
Y737000D01*
X297220Y736000D01*
X296220Y735000D01*
Y734000D01*
Y683843D02*
X297220D01*
X298220Y684842D01*
X299220Y683843D01*
X300220D01*
Y684842D01*
X299220Y685843D01*
X300220Y686842D01*
Y687843D01*
X299220D01*
X298220Y686842D01*
X297220Y687843D01*
X296220D01*
Y686842D01*
X297220Y685843D01*
X296220Y684842D01*
Y683843D01*
X308819Y604906D02*
Y608906D01*
X312819D01*
Y604906D01*
X308819D01*
X309619Y605705D02*
Y608106D01*
X312019D01*
Y605705D01*
X309619D01*
X308819Y585693D02*
Y589693D01*
X312819D01*
Y585693D01*
X308819D01*
X309619Y586493D02*
Y588893D01*
X312019D01*
Y586493D01*
X309619D01*
X235276Y573291D02*
X236276Y575291D01*
X235276Y577291D01*
X237276Y576291D01*
X239276Y577291D01*
X238276Y575291D01*
X239276Y573291D01*
X237276Y574291D01*
X235276Y573291D01*
Y578291D02*
X236276Y580291D01*
X235276Y582291D01*
X237276Y581291D01*
X239276Y582291D01*
X238276Y580291D01*
X239276Y578291D01*
X237276Y579291D01*
X235276Y578291D01*
X238457Y724409D02*
X240457Y726409D01*
X242457Y724409D01*
X240457Y722409D01*
X238457Y724409D01*
Y694410D02*
X240457Y696410D01*
X242457Y694410D01*
X240457Y692410D01*
X238457Y694410D01*
X779894Y57075D02*
X780894Y58075D01*
X781894D01*
X780894Y59075D01*
X781894Y60075D01*
X780894D01*
X779894Y61075D01*
X778894Y60075D01*
X777894D01*
X778894Y59075D01*
X777894Y58075D01*
X778894D01*
X779894Y57075D01*
Y57875D02*
X780494Y58475D01*
X781094D01*
X780494Y59075D01*
X781094Y59675D01*
X780494D01*
X779894Y60275D01*
X779294Y59675D01*
X778694D01*
X779294Y59075D01*
X778694Y58475D01*
X779294D01*
X779894Y57875D01*
Y47075D02*
X780894Y48075D01*
X781894D01*
X780894Y49075D01*
X781894Y50075D01*
X780894D01*
X779894Y51075D01*
X778894Y50075D01*
X777894D01*
X778894Y49075D01*
X777894Y48075D01*
X778894D01*
X779894Y47075D01*
Y47875D02*
X780494Y48475D01*
X781094D01*
X780494Y49075D01*
X781094Y49675D01*
X780494D01*
X779894Y50275D01*
X779294Y49675D01*
X778694D01*
X779294Y49075D01*
X778694Y48475D01*
X779294D01*
X779894Y47875D01*
Y37075D02*
X780894Y38075D01*
X781894D01*
X780894Y39075D01*
X781894Y40075D01*
X780894D01*
X779894Y41075D01*
X778894Y40075D01*
X777894D01*
X778894Y39075D01*
X777894Y38075D01*
X778894D01*
X779894Y37075D01*
Y37875D02*
X780494Y38475D01*
X781094D01*
X780494Y39075D01*
X781094Y39675D01*
X780494D01*
X779894Y40275D01*
X779294Y39675D01*
X778694D01*
X779294Y39075D01*
X778694Y38475D01*
X779294D01*
X779894Y37875D01*
X789894Y57075D02*
X790894Y58075D01*
X791894D01*
X790894Y59075D01*
X791894Y60075D01*
X790894D01*
X789894Y61075D01*
X788894Y60075D01*
X787894D01*
X788894Y59075D01*
X787894Y58075D01*
X788894D01*
X789894Y57075D01*
Y57875D02*
X790494Y58475D01*
X791094D01*
X790494Y59075D01*
X791094Y59675D01*
X790494D01*
X789894Y60275D01*
X789294Y59675D01*
X788694D01*
X789294Y59075D01*
X788694Y58475D01*
X789294D01*
X789894Y57875D01*
Y47075D02*
X790894Y48075D01*
X791894D01*
X790894Y49075D01*
X791894Y50075D01*
X790894D01*
X789894Y51075D01*
X788894Y50075D01*
X787894D01*
X788894Y49075D01*
X787894Y48075D01*
X788894D01*
X789894Y47075D01*
Y47875D02*
X790494Y48475D01*
X791094D01*
X790494Y49075D01*
X791094Y49675D01*
X790494D01*
X789894Y50275D01*
X789294Y49675D01*
X788694D01*
X789294Y49075D01*
X788694Y48475D01*
X789294D01*
X789894Y47875D01*
Y37075D02*
X790894Y38075D01*
X791894D01*
X790894Y39075D01*
X791894Y40075D01*
X790894D01*
X789894Y41075D01*
X788894Y40075D01*
X787894D01*
X788894Y39075D01*
X787894Y38075D01*
X788894D01*
X789894Y37075D01*
Y37875D02*
X790494Y38475D01*
X791094D01*
X790494Y39075D01*
X791094Y39675D01*
X790494D01*
X789894Y40275D01*
X789294Y39675D01*
X788694D01*
X789294Y39075D01*
X788694Y38475D01*
X789294D01*
X789894Y37875D01*
X772740Y224122D02*
Y228122D01*
X776740D01*
Y224122D01*
X772740D01*
X773540Y224922D02*
Y227322D01*
X775940D01*
Y224922D01*
X773540D01*
X753527Y224122D02*
Y228122D01*
X757527D01*
Y224122D01*
X753527D01*
X754327Y224922D02*
Y227322D01*
X756728D01*
Y224922D01*
X754327D01*
X609247Y323076D02*
X610247Y324076D01*
X611247D01*
X610247Y325076D01*
X611247Y326076D01*
X610247D01*
X609247Y327076D01*
X608247Y326076D01*
X607247D01*
X608247Y325076D01*
X607247Y324076D01*
X608247D01*
X609247Y323076D01*
X656447D02*
X657447Y324076D01*
X658447D01*
X657447Y325076D01*
X658447Y326076D01*
X657447D01*
X656447Y327076D01*
X655447Y326076D01*
X654447D01*
X655447Y325076D01*
X654447Y324076D01*
X655447D01*
X656447Y323076D01*
X636547Y318276D02*
X634547Y322276D01*
X638547D01*
X636547Y318276D01*
X626247Y326876D02*
X624247Y330876D01*
X628247D01*
X626247Y326876D01*
X632547D02*
X630547Y330876D01*
X634547D01*
X632547Y326876D01*
X628547Y318276D02*
X626547Y322276D01*
X630547D01*
X628547Y318276D01*
X638847Y326876D02*
X636847Y330876D01*
X640847D01*
X638847Y326876D01*
X755265Y38279D02*
X756265Y39279D01*
X757265D01*
X756265Y40279D01*
X757265Y41279D01*
X756265D01*
X755265Y42279D01*
X754265Y41279D01*
X753265D01*
X754265Y40279D01*
X753265Y39279D01*
X754265D01*
X755265Y38279D01*
X708065D02*
X709065Y39279D01*
X710065D01*
X709065Y40279D01*
X710065Y41279D01*
X709065D01*
X708065Y42279D01*
X707065Y41279D01*
X706065D01*
X707065Y40279D01*
X706065Y39279D01*
X707065D01*
X708065Y38279D01*
X727965Y43079D02*
X725965Y47079D01*
X729965D01*
X727965Y43079D01*
X738265Y34479D02*
X736265Y38479D01*
X740265D01*
X738265Y34479D01*
X731965D02*
X729965Y38479D01*
X733965D01*
X731965Y34479D01*
X735965Y43079D02*
X733965Y47079D01*
X737965D01*
X735965Y43079D01*
X725665Y34479D02*
X723665Y38479D01*
X727665D01*
X725665Y34479D01*
X677016Y38279D02*
X678017Y39279D01*
X679016D01*
X678017Y40279D01*
X679016Y41279D01*
X678017D01*
X677016Y42279D01*
X676017Y41279D01*
X675016D01*
X676017Y40279D01*
X675016Y39279D01*
X676017D01*
X677016Y38279D01*
X629816D02*
X630817Y39279D01*
X631816D01*
X630817Y40279D01*
X631816Y41279D01*
X630817D01*
X629816Y42279D01*
X628817Y41279D01*
X627816D01*
X628817Y40279D01*
X627816Y39279D01*
X628817D01*
X629816Y38279D01*
X649717Y43079D02*
X647717Y47079D01*
X651717D01*
X649717Y43079D01*
X660016Y34479D02*
X658016Y38479D01*
X662016D01*
X660016Y34479D01*
X653717D02*
X651717Y38479D01*
X655717D01*
X653717Y34479D01*
X657717Y43079D02*
X655717Y47079D01*
X659717D01*
X657717Y43079D01*
X647416Y34479D02*
X645416Y38479D01*
X649416D01*
X647416Y34479D01*
X760248Y289272D02*
Y292604D01*
X761914Y294270D01*
X763580Y292604D01*
Y289272D01*
Y291771D01*
X760248D01*
X650012Y289272D02*
Y292604D01*
X651678Y294270D01*
X653344Y292604D01*
Y289272D01*
Y291771D01*
X650012D01*
X760248Y76673D02*
Y80006D01*
X761914Y81672D01*
X763580Y80006D01*
Y76673D01*
Y79172D01*
X760248D01*
X650012Y76673D02*
Y80006D01*
X651678Y81672D01*
X653344Y80006D01*
Y76673D01*
Y79172D01*
X650012D01*
X746650Y301732D02*
X744650Y305732D01*
X748650D01*
X746650Y301732D01*
Y302532D02*
X745450Y304932D01*
X747850D01*
X746650Y302532D01*
X746689Y313583D02*
X744689Y317583D01*
X748689D01*
X746689Y313583D01*
Y314383D02*
X745489Y316783D01*
X747889D01*
X746689Y314383D01*
Y330591D02*
X747689Y331591D01*
X748689D01*
X747689Y332591D01*
X748689Y333591D01*
X747689D01*
X746689Y334591D01*
X745689Y333591D01*
X744689D01*
X745689Y332591D01*
X744689Y331591D01*
X745689D01*
X746689Y330591D01*
X718650Y301732D02*
X716650Y305732D01*
X720650D01*
X718650Y301732D01*
Y302532D02*
X717450Y304932D01*
X719850D01*
X718650Y302532D01*
X718689Y313583D02*
X716689Y317583D01*
X720689D01*
X718689Y313583D01*
Y314383D02*
X717489Y316783D01*
X719889D01*
X718689Y314383D01*
Y330591D02*
X719689Y331591D01*
X720689D01*
X719689Y332591D01*
X720689Y333591D01*
X719689D01*
X718689Y334591D01*
X717689Y333591D01*
X716689D01*
X717689Y332591D01*
X716689Y331591D01*
X717689D01*
X718689Y330591D01*
X690650Y301732D02*
X688650Y305732D01*
X692650D01*
X690650Y301732D01*
Y302532D02*
X689450Y304932D01*
X691850D01*
X690650Y302532D01*
X690689Y313583D02*
X688689Y317583D01*
X692689D01*
X690689Y313583D01*
Y314383D02*
X689489Y316783D01*
X691889D01*
X690689Y314383D01*
Y330591D02*
X691689Y331591D01*
X692689D01*
X691689Y332591D01*
X692689Y333591D01*
X691689D01*
X690689Y334591D01*
X689689Y333591D01*
X688689D01*
X689689Y332591D01*
X688689Y331591D01*
X689689D01*
X690689Y330591D01*
X767390Y172957D02*
Y176957D01*
X771390D01*
Y172957D01*
X767390D01*
X768190Y173757D02*
Y176157D01*
X770590D01*
Y173757D01*
X768190D01*
X774083Y172957D02*
Y176957D01*
X778083D01*
Y172957D01*
X774083D01*
X774883Y173757D02*
Y176157D01*
X777283D01*
Y173757D01*
X774883D01*
X312591Y386776D02*
X314591Y388776D01*
X316590Y386776D01*
X314591Y384776D01*
X312591Y386776D01*
X342590D02*
X344590Y388776D01*
X346590Y386776D01*
X344590Y384776D01*
X342590Y386776D01*
X461709Y381594D02*
X462709Y383594D01*
X461709Y385595D01*
X463709Y384594D01*
X465709Y385595D01*
X464709Y383594D01*
X465709Y381594D01*
X463709Y382594D01*
X461709Y381594D01*
X456709D02*
X457709Y383594D01*
X456709Y385595D01*
X458709Y384594D01*
X460709Y385595D01*
X459709Y383594D01*
X460709Y381594D01*
X458709Y382594D01*
X456709Y381594D01*
X430094Y455138D02*
Y459138D01*
X434094D01*
Y455138D01*
X430094D01*
X430895Y455938D02*
Y458338D01*
X433294D01*
Y455938D01*
X430895D01*
X449307Y455138D02*
Y459138D01*
X453307D01*
Y455138D01*
X449307D01*
X450107Y455938D02*
Y458338D01*
X452507D01*
Y455938D01*
X450107D01*
X301000Y442539D02*
X302000D01*
X303000Y443539D01*
X304000Y442539D01*
X305000D01*
Y443539D01*
X304000Y444539D01*
X305000Y445539D01*
Y446539D01*
X304000D01*
X303000Y445539D01*
X302000Y446539D01*
X301000D01*
Y445539D01*
X302000Y444539D01*
X301000Y443539D01*
Y442539D01*
X351157D02*
X352157D01*
X353157Y443539D01*
X354157Y442539D01*
X355157D01*
Y443539D01*
X354157Y444539D01*
X355157Y445539D01*
Y446539D01*
X354157D01*
X353157Y445539D01*
X352157Y446539D01*
X351157D01*
Y445539D01*
X352157Y444539D01*
X351157Y443539D01*
Y442539D01*
X38091Y384776D02*
X40091Y386776D01*
X42091Y384776D01*
X40091Y382776D01*
X38091Y384776D01*
X68090D02*
X70091Y386776D01*
X72091Y384776D01*
X70091Y382776D01*
X68090Y384776D01*
X187209Y379594D02*
X188209Y381594D01*
X187209Y383594D01*
X189209Y382594D01*
X191209Y383594D01*
X190209Y381594D01*
X191209Y379594D01*
X189209Y380594D01*
X187209Y379594D01*
X182209D02*
X183209Y381594D01*
X182209Y383594D01*
X184209Y382594D01*
X186209Y383594D01*
X185209Y381594D01*
X186209Y379594D01*
X184209Y380594D01*
X182209Y379594D01*
X155595Y453138D02*
Y457138D01*
X159595D01*
Y453138D01*
X155595D01*
X156395Y453938D02*
Y456338D01*
X158794D01*
Y453938D01*
X156395D01*
X174807Y453138D02*
Y457138D01*
X178807D01*
Y453138D01*
X174807D01*
X175607Y453938D02*
Y456338D01*
X178007D01*
Y453938D01*
X175607D01*
X26500Y440539D02*
X27500D01*
X28500Y441539D01*
X29500Y440539D01*
X30500D01*
Y441539D01*
X29500Y442539D01*
X30500Y443539D01*
Y444539D01*
X29500D01*
X28500Y443539D01*
X27500Y444539D01*
X26500D01*
Y443539D01*
X27500Y442539D01*
X26500Y441539D01*
Y440539D01*
X76657D02*
X77658D01*
X78658Y441539D01*
X79658Y440539D01*
X80658D01*
Y441539D01*
X79658Y442539D01*
X80658Y443539D01*
Y444539D01*
X79658D01*
X78658Y443539D01*
X77658Y444539D01*
X76657D01*
Y443539D01*
X77658Y442539D01*
X76657Y441539D01*
Y440539D01*
X409024Y358825D02*
Y353827D01*
X411523D01*
X412356Y354660D01*
Y355493D01*
X411523Y356326D01*
X409024D01*
X411523D01*
X412356Y357159D01*
Y357992D01*
X411523Y358825D01*
X409024D01*
X399024D02*
Y353827D01*
X401523D01*
X402356Y354660D01*
Y355493D01*
X401523Y356326D01*
X399024D01*
X401523D01*
X402356Y357159D01*
Y357992D01*
X401523Y358825D01*
X399024D01*
X431071D02*
Y353827D01*
X433570D01*
X434403Y354660D01*
Y355493D01*
X433570Y356326D01*
X431071D01*
X433570D01*
X434403Y357159D01*
Y357992D01*
X433570Y358825D01*
X431071D01*
X421071D02*
Y353827D01*
X423570D01*
X424403Y354660D01*
Y355493D01*
X423570Y356326D01*
X421071D01*
X423570D01*
X424403Y357159D01*
Y357992D01*
X423570Y358825D01*
X421071D01*
X453118D02*
Y353827D01*
X455617D01*
X456450Y354660D01*
Y355493D01*
X455617Y356326D01*
X453118D01*
X455617D01*
X456450Y357159D01*
Y357992D01*
X455617Y358825D01*
X453118D01*
X443118D02*
Y353827D01*
X445617D01*
X446450Y354660D01*
Y355493D01*
X445617Y356326D01*
X443118D01*
X445617D01*
X446450Y357159D01*
Y357992D01*
X445617Y358825D01*
X443118D01*
X475165D02*
Y353827D01*
X477665D01*
X478498Y354660D01*
Y355493D01*
X477665Y356326D01*
X475165D01*
X477665D01*
X478498Y357159D01*
Y357992D01*
X477665Y358825D01*
X475165D01*
X465165D02*
Y353827D01*
X467664D01*
X468498Y354660D01*
Y355493D01*
X467664Y356326D01*
X465165D01*
X467664D01*
X468498Y357159D01*
Y357992D01*
X467664Y358825D01*
X465165D01*
X497213D02*
Y353827D01*
X499712D01*
X500545Y354660D01*
Y355493D01*
X499712Y356326D01*
X497213D01*
X499712D01*
X500545Y357159D01*
Y357992D01*
X499712Y358825D01*
X497213D01*
X487213D02*
Y353827D01*
X489712D01*
X490545Y354660D01*
Y355493D01*
X489712Y356326D01*
X487213D01*
X489712D01*
X490545Y357159D01*
Y357992D01*
X489712Y358825D01*
X487213D01*
X298787D02*
Y353827D01*
X301287D01*
X302120Y354660D01*
Y355493D01*
X301287Y356326D01*
X298787D01*
X301287D01*
X302120Y357159D01*
Y357992D01*
X301287Y358825D01*
X298787D01*
X288787D02*
Y353827D01*
X291287D01*
X292120Y354660D01*
Y355493D01*
X291287Y356326D01*
X288787D01*
X291287D01*
X292120Y357159D01*
Y357992D01*
X291287Y358825D01*
X288787D01*
X320835D02*
Y353827D01*
X323334D01*
X324167Y354660D01*
Y355493D01*
X323334Y356326D01*
X320835D01*
X323334D01*
X324167Y357159D01*
Y357992D01*
X323334Y358825D01*
X320835D01*
X310835D02*
Y353827D01*
X313334D01*
X314167Y354660D01*
Y355493D01*
X313334Y356326D01*
X310835D01*
X313334D01*
X314167Y357159D01*
Y357992D01*
X313334Y358825D01*
X310835D01*
X342882D02*
Y353827D01*
X345381D01*
X346214Y354660D01*
Y355493D01*
X345381Y356326D01*
X342882D01*
X345381D01*
X346214Y357159D01*
Y357992D01*
X345381Y358825D01*
X342882D01*
X332882D02*
Y353827D01*
X335381D01*
X336214Y354660D01*
Y355493D01*
X335381Y356326D01*
X332882D01*
X335381D01*
X336214Y357159D01*
Y357992D01*
X335381Y358825D01*
X332882D01*
X364929D02*
Y353827D01*
X367428D01*
X368261Y354660D01*
Y355493D01*
X367428Y356326D01*
X364929D01*
X367428D01*
X368261Y357159D01*
Y357992D01*
X367428Y358825D01*
X364929D01*
X354929D02*
Y353827D01*
X357428D01*
X358261Y354660D01*
Y355493D01*
X357428Y356326D01*
X354929D01*
X357428D01*
X358261Y357159D01*
Y357992D01*
X357428Y358825D01*
X354929D01*
X386976D02*
Y353827D01*
X389476D01*
X390309Y354660D01*
Y355493D01*
X389476Y356326D01*
X386976D01*
X389476D01*
X390309Y357159D01*
Y357992D01*
X389476Y358825D01*
X386976D01*
X376976D02*
Y353827D01*
X379476D01*
X380309Y354660D01*
Y355493D01*
X379476Y356326D01*
X376976D01*
X379476D01*
X380309Y357159D01*
Y357992D01*
X379476Y358825D01*
X376976D01*
X188551D02*
Y353827D01*
X191050D01*
X191883Y354660D01*
Y355493D01*
X191050Y356326D01*
X188551D01*
X191050D01*
X191883Y357159D01*
Y357992D01*
X191050Y358825D01*
X188551D01*
X178551D02*
Y353827D01*
X181050D01*
X181883Y354660D01*
Y355493D01*
X181050Y356326D01*
X178551D01*
X181050D01*
X181883Y357159D01*
Y357992D01*
X181050Y358825D01*
X178551D01*
X210598D02*
Y353827D01*
X213098D01*
X213931Y354660D01*
Y355493D01*
X213098Y356326D01*
X210598D01*
X213098D01*
X213931Y357159D01*
Y357992D01*
X213098Y358825D01*
X210598D01*
X200598D02*
Y353827D01*
X203098D01*
X203931Y354660D01*
Y355493D01*
X203098Y356326D01*
X200598D01*
X203098D01*
X203931Y357159D01*
Y357992D01*
X203098Y358825D01*
X200598D01*
X232646D02*
Y353827D01*
X235145D01*
X235978Y354660D01*
Y355493D01*
X235145Y356326D01*
X232646D01*
X235145D01*
X235978Y357159D01*
Y357992D01*
X235145Y358825D01*
X232646D01*
X222646D02*
Y353827D01*
X225145D01*
X225978Y354660D01*
Y355493D01*
X225145Y356326D01*
X222646D01*
X225145D01*
X225978Y357159D01*
Y357992D01*
X225145Y358825D01*
X222646D01*
X254693D02*
Y353827D01*
X257192D01*
X258025Y354660D01*
Y355493D01*
X257192Y356326D01*
X254693D01*
X257192D01*
X258025Y357159D01*
Y357992D01*
X257192Y358825D01*
X254693D01*
X244693D02*
Y353827D01*
X247192D01*
X248025Y354660D01*
Y355493D01*
X247192Y356326D01*
X244693D01*
X247192D01*
X248025Y357159D01*
Y357992D01*
X247192Y358825D01*
X244693D01*
X276740D02*
Y353827D01*
X279239D01*
X280072Y354660D01*
Y355493D01*
X279239Y356326D01*
X276740D01*
X279239D01*
X280072Y357159D01*
Y357992D01*
X279239Y358825D01*
X276740D01*
X266740D02*
Y353827D01*
X269239D01*
X270072Y354660D01*
Y355493D01*
X269239Y356326D01*
X266740D01*
X269239D01*
X270072Y357159D01*
Y357992D01*
X269239Y358825D01*
X266740D01*
X78315D02*
Y353827D01*
X80814D01*
X81647Y354660D01*
Y355493D01*
X80814Y356326D01*
X78315D01*
X80814D01*
X81647Y357159D01*
Y357992D01*
X80814Y358825D01*
X78315D01*
X68315D02*
Y353827D01*
X70814D01*
X71647Y354660D01*
Y355493D01*
X70814Y356326D01*
X68315D01*
X70814D01*
X71647Y357159D01*
Y357992D01*
X70814Y358825D01*
X68315D01*
X100362D02*
Y353827D01*
X102861D01*
X103694Y354660D01*
Y355493D01*
X102861Y356326D01*
X100362D01*
X102861D01*
X103694Y357159D01*
Y357992D01*
X102861Y358825D01*
X100362D01*
X90362D02*
Y353827D01*
X92861D01*
X93694Y354660D01*
Y355493D01*
X92861Y356326D01*
X90362D01*
X92861D01*
X93694Y357159D01*
Y357992D01*
X92861Y358825D01*
X90362D01*
X122409D02*
Y353827D01*
X124909D01*
X125742Y354660D01*
Y355493D01*
X124909Y356326D01*
X122409D01*
X124909D01*
X125742Y357159D01*
Y357992D01*
X124909Y358825D01*
X122409D01*
X112409D02*
Y353827D01*
X114909D01*
X115742Y354660D01*
Y355493D01*
X114909Y356326D01*
X112409D01*
X114909D01*
X115742Y357159D01*
Y357992D01*
X114909Y358825D01*
X112409D01*
X144457D02*
Y353827D01*
X146956D01*
X147789Y354660D01*
Y355493D01*
X146956Y356326D01*
X144457D01*
X146956D01*
X147789Y357159D01*
Y357992D01*
X146956Y358825D01*
X144457D01*
X134457D02*
Y353827D01*
X136956D01*
X137789Y354660D01*
Y355493D01*
X136956Y356326D01*
X134457D01*
X136956D01*
X137789Y357159D01*
Y357992D01*
X136956Y358825D01*
X134457D01*
X166504D02*
Y353827D01*
X169003D01*
X169836Y354660D01*
Y355493D01*
X169003Y356326D01*
X166504D01*
X169003D01*
X169836Y357159D01*
Y357992D01*
X169003Y358825D01*
X166504D01*
X156504D02*
Y353827D01*
X159003D01*
X159836Y354660D01*
Y355493D01*
X159003Y356326D01*
X156504D01*
X159003D01*
X159836Y357159D01*
Y357992D01*
X159003Y358825D01*
X156504D01*
X540331Y352024D02*
Y356024D01*
X544331D01*
Y352024D01*
X540331D01*
X38362Y352024D02*
Y356024D01*
X42362D01*
Y352024D01*
X38362D01*
X1008120Y85165D02*
X1007287Y85998D01*
X1005620D01*
X1004787Y85165D01*
Y81833D01*
X1005620Y81000D01*
X1007287D01*
X1008120Y81833D01*
X998811Y644998D02*
Y640000D01*
X1001310D01*
X1002143Y640833D01*
Y644165D01*
X1001310Y644998D01*
X998811D01*
X999311Y453998D02*
Y449000D01*
X1001810D01*
X1002643Y449833D01*
Y453165D01*
X1001810Y453998D01*
X999311D01*
X998811Y364998D02*
Y360000D01*
X1001310D01*
X1002143Y360833D01*
Y364165D01*
X1001310Y364998D01*
X998811D01*
X999000Y170998D02*
Y166000D01*
X1001499D01*
X1002332Y166833D01*
Y170165D01*
X1001499Y170998D01*
X999000D01*
X996000Y99000D02*
Y103000D01*
X1000000D01*
Y99000D01*
X996000D01*
X996800Y99800D02*
Y102200D01*
X999200D01*
Y99800D01*
X996800D01*
X1025500Y713500D02*
Y717500D01*
X1029500D01*
Y713500D01*
X1025500D01*
X1026300Y714300D02*
Y716700D01*
X1028700D01*
Y714300D01*
X1026300D01*
X993550Y713498D02*
Y708500D01*
X996050D01*
X996883Y709333D01*
Y712665D01*
X996050Y713498D01*
X993550D01*
X1013057Y85165D02*
X1012224Y85998D01*
X1010557D01*
X1009724Y85165D01*
Y81833D01*
X1010557Y81000D01*
X1012224D01*
X1013057Y81833D01*
X930120Y85165D02*
X929287Y85998D01*
X927621D01*
X926787Y85165D01*
Y81833D01*
X927621Y81000D01*
X929287D01*
X930120Y81833D01*
X920811Y644998D02*
Y640000D01*
X923310D01*
X924143Y640833D01*
Y644165D01*
X923310Y644998D01*
X920811D01*
X921311Y453998D02*
Y449000D01*
X923810D01*
X924643Y449833D01*
Y453165D01*
X923810Y453998D01*
X921311D01*
X920811Y364998D02*
Y360000D01*
X923310D01*
X924143Y360833D01*
Y364165D01*
X923310Y364998D01*
X920811D01*
X921000Y170998D02*
Y166000D01*
X923499D01*
X924332Y166833D01*
Y170165D01*
X923499Y170998D01*
X921000D01*
X918000Y99000D02*
Y103000D01*
X922000D01*
Y99000D01*
X918000D01*
X918800Y99800D02*
Y102200D01*
X921200D01*
Y99800D01*
X918800D01*
X947500Y713500D02*
Y717500D01*
X951500D01*
Y713500D01*
X947500D01*
X948300Y714300D02*
Y716700D01*
X950700D01*
Y714300D01*
X948300D01*
X915550Y713498D02*
Y708500D01*
X918050D01*
X918883Y709333D01*
Y712665D01*
X918050Y713498D01*
X915550D01*
X935057Y85165D02*
X934224Y85998D01*
X932557D01*
X931724Y85165D01*
Y81833D01*
X932557Y81000D01*
X934224D01*
X935057Y81833D01*
X852120Y85165D02*
X851287Y85998D01*
X849621D01*
X848787Y85165D01*
Y81833D01*
X849621Y81000D01*
X851287D01*
X852120Y81833D01*
X842811Y644998D02*
Y640000D01*
X845310D01*
X846143Y640833D01*
Y644165D01*
X845310Y644998D01*
X842811D01*
X843311Y453998D02*
Y449000D01*
X845810D01*
X846643Y449833D01*
Y453165D01*
X845810Y453998D01*
X843311D01*
X842811Y364998D02*
Y360000D01*
X845310D01*
X846143Y360833D01*
Y364165D01*
X845310Y364998D01*
X842811D01*
X843000Y170998D02*
Y166000D01*
X845499D01*
X846332Y166833D01*
Y170165D01*
X845499Y170998D01*
X843000D01*
X840000Y99000D02*
Y103000D01*
X844000D01*
Y99000D01*
X840000D01*
X840800Y99800D02*
Y102200D01*
X843200D01*
Y99800D01*
X840800D01*
X869500Y713500D02*
Y717500D01*
X873500D01*
Y713500D01*
X869500D01*
X870300Y714300D02*
Y716700D01*
X872700D01*
Y714300D01*
X870300D01*
X837550Y713498D02*
Y708500D01*
X840050D01*
X840883Y709333D01*
Y712665D01*
X840050Y713498D01*
X837550D01*
X857057Y85165D02*
X856224Y85998D01*
X854558D01*
X853724Y85165D01*
Y81833D01*
X854558Y81000D01*
X856224D01*
X857057Y81833D01*
X501545Y719890D02*
X500712Y720723D01*
X499046D01*
X498213Y719890D01*
Y716558D01*
X499046Y715724D01*
X500712D01*
X501545Y716558D01*
X501939Y715087D02*
X501105Y715920D01*
X499439D01*
X498606Y715087D01*
Y711754D01*
X499439Y710921D01*
X501105D01*
X501939Y711754D01*
X495639Y591500D02*
X492307D01*
Y586502D01*
X495639D01*
X492307Y589001D02*
X493973D01*
X544537Y640441D02*
X543704Y641274D01*
X542038D01*
X541205Y640441D01*
Y637109D01*
X542038Y636276D01*
X543704D01*
X544537Y637109D01*
X452937Y664896D02*
Y659898D01*
X455436D01*
X456269Y660731D01*
Y664063D01*
X455436Y664896D01*
X452937D01*
X520364Y587967D02*
X517031D01*
Y582969D01*
X520364D01*
X517031Y585468D02*
X518698D01*
X530600Y619778D02*
X527268D01*
Y614780D01*
X530600D01*
X527268Y617279D02*
X528934D01*
X516427Y619778D02*
X513095D01*
Y614780D01*
X516427D01*
X513095Y617279D02*
X514761D01*
X510285Y669575D02*
X509452Y670408D01*
X507786D01*
X506953Y669575D01*
Y666243D01*
X507786Y665410D01*
X509452D01*
X510285Y666243D01*
X502411Y699890D02*
X501578Y700723D01*
X499912D01*
X499079Y699890D01*
Y696558D01*
X499912Y695724D01*
X501578D01*
X502411Y696558D01*
X505167Y570093D02*
X501835D01*
Y565095D01*
X505167D01*
X501835Y567594D02*
X503501D01*
X483041Y572770D02*
X479709D01*
Y567772D01*
X483041D01*
X479709Y570271D02*
X481375D01*
X507293Y575526D02*
X503961D01*
Y570528D01*
X507293D01*
X503961Y573027D02*
X505627D01*
X458868Y650959D02*
X455535D01*
Y645961D01*
X458868D01*
X455535Y648460D02*
X457202D01*
X473356Y666502D02*
X470024D01*
Y661504D01*
X473356D01*
X470024Y664003D02*
X471690D01*
X526899Y559778D02*
X523567D01*
Y554779D01*
X526899D01*
X523567Y557279D02*
X525233D01*
X502647Y575430D02*
X501814Y576263D01*
X500148D01*
X499315Y575430D01*
Y572098D01*
X500148Y571265D01*
X501814D01*
X502647Y572098D01*
X515088Y507573D02*
X511756D01*
Y502575D01*
X515088D01*
X511756Y505074D02*
X513422D01*
X501072Y591858D02*
X500239Y592691D01*
X498573D01*
X497740Y591858D01*
Y588526D01*
X498573Y587693D01*
X500239D01*
X501072Y588526D01*
X514238Y521376D02*
X510906D01*
Y516378D01*
X514238D01*
X510906Y518877D02*
X512572D01*
X461095Y686874D02*
X462094Y688874D01*
X461095Y690874D01*
X463095Y689874D01*
X465095Y690874D01*
X464094Y688874D01*
X465095Y686874D01*
X463095Y687874D01*
X461095Y686874D01*
X497529Y671071D02*
X496696Y671904D01*
X495030D01*
X494197Y671071D01*
Y667739D01*
X495030Y666905D01*
X496696D01*
X497529Y667739D01*
X501702Y602140D02*
X498370D01*
Y597142D01*
X501702D01*
X498370Y599641D02*
X500036D01*
X496427Y720441D02*
X495594Y721274D01*
X493927D01*
X493094Y720441D01*
Y717109D01*
X493927Y716276D01*
X495594D01*
X496427Y717109D01*
X475757Y582971D02*
X472425D01*
Y577972D01*
X475757D01*
X472425Y580472D02*
X474091D01*
X477057Y591353D02*
X473724D01*
Y586354D01*
X477057D01*
X473724Y588854D02*
X475390D01*
X477844Y612613D02*
X474512D01*
Y607614D01*
X477844D01*
X474512Y610113D02*
X476178D01*
X459469Y557386D02*
X460469Y559386D01*
X459469Y561386D01*
X461469Y560386D01*
X463469Y561386D01*
X462469Y559386D01*
X463469Y557386D01*
X461469Y558386D01*
X459469Y557386D01*
X509261Y734614D02*
X508428Y735447D01*
X506762D01*
X505929Y734614D01*
Y731282D01*
X506762Y730449D01*
X508428D01*
X509261Y731282D01*
X503344Y534435D02*
X500011D01*
Y529437D01*
X503344D01*
X500011Y531936D02*
X501678D01*
X495088Y613154D02*
X491756D01*
Y608155D01*
X495088D01*
X491756Y610654D02*
X493422D01*
X481992Y619148D02*
Y614150D01*
X484491D01*
X485324Y614983D01*
Y618315D01*
X484491Y619148D01*
X481992D01*
X477740D02*
Y614150D01*
X480239D01*
X481072Y614983D01*
Y618315D01*
X480239Y619148D01*
X477740D01*
X477268Y635368D02*
Y630370D01*
X479767D01*
X480600Y631203D01*
Y634535D01*
X479767Y635368D01*
X477268D01*
X477347Y645290D02*
Y640291D01*
X479846D01*
X480679Y641124D01*
Y644457D01*
X479846Y645290D01*
X477347D01*
X497346Y580487D02*
Y575488D01*
X499846D01*
X500679Y576321D01*
Y579654D01*
X499846Y580487D01*
X497346D01*
X487189Y646392D02*
Y641394D01*
X489688D01*
X490521Y642227D01*
Y645559D01*
X489688Y646392D01*
X487189D01*
X493094Y631038D02*
Y626039D01*
X495594D01*
X496427Y626872D01*
Y630205D01*
X495594Y631038D01*
X493094D01*
X510049Y570172D02*
X506716D01*
Y565173D01*
X510049D01*
X506716Y567672D02*
X508383D01*
X488055Y541668D02*
Y536669D01*
X490554D01*
X491387Y537502D01*
Y540835D01*
X490554Y541668D01*
X488055D01*
X502647Y550992D02*
X501814Y551825D01*
X500148D01*
X499315Y550992D01*
Y547660D01*
X500148Y546827D01*
X501814D01*
X502647Y547660D01*
X515945Y530006D02*
Y525007D01*
X518444D01*
X519277Y525840D01*
Y529173D01*
X518444Y530006D01*
X515945D01*
X497765Y529227D02*
X494433D01*
Y524228D01*
X497765D01*
X494433Y526727D02*
X496099D01*
X511072Y604378D02*
X510239Y605211D01*
X508573D01*
X507740Y604378D01*
Y601046D01*
X508573Y600213D01*
X510239D01*
X511072Y601046D01*
X521284Y598754D02*
Y593755D01*
X523783D01*
X524616Y594588D01*
Y597921D01*
X523783Y598754D01*
X521284D01*
X488002Y588439D02*
X484670D01*
Y583440D01*
X488002D01*
X484670Y585940D02*
X486336D01*
X506742Y599620D02*
X503409D01*
Y594622D01*
X506742D01*
X503409Y597121D02*
X505076D01*
X507687Y596550D02*
X504354D01*
Y591551D01*
X507687D01*
X504354Y594050D02*
X506020D01*
X509709Y576313D02*
Y571315D01*
X512208D01*
X513041Y572148D01*
Y575480D01*
X512208Y576313D01*
X509709D01*
X510890Y580408D02*
Y575410D01*
X513389D01*
X514222Y576242D01*
Y579575D01*
X513389Y580408D01*
X510890D01*
X496978Y625132D02*
X493646D01*
Y620134D01*
X496978D01*
X493646Y622633D02*
X495312D01*
X511387Y610250D02*
X508055D01*
Y605252D01*
X511387D01*
X508055Y607751D02*
X509721D01*
X510049Y612769D02*
X506717D01*
Y607771D01*
X510049D01*
X506717Y610270D02*
X508383D01*
X508080Y649181D02*
X507247Y650014D01*
X505581D01*
X504748Y649181D01*
Y645849D01*
X505581Y645016D01*
X507247D01*
X508080Y645849D01*
X548553Y672567D02*
X547720Y673400D01*
X546054D01*
X545221Y672567D01*
Y669235D01*
X546054Y668402D01*
X547720D01*
X548553Y669235D01*
X521677Y606235D02*
Y601236D01*
X524176D01*
X525009Y602069D01*
Y605402D01*
X524176Y606235D01*
X521677D01*
X483041Y554896D02*
X479709D01*
Y549898D01*
X483041D01*
X479709Y552397D02*
X481375D01*
X467347Y644895D02*
Y639897D01*
X469846D01*
X470679Y640730D01*
Y644062D01*
X469846Y644895D01*
X467347D01*
X456584Y614266D02*
X453252D01*
Y609268D01*
X456584D01*
X453252Y611767D02*
X454918D01*
X459552Y621037D02*
Y616039D01*
X462051D01*
X462884Y616872D01*
Y620204D01*
X462051Y621037D01*
X459552D01*
X512017Y525447D02*
X508685D01*
Y520449D01*
X512017D01*
X508685Y522948D02*
X510351D01*
X499655Y537652D02*
X496323D01*
Y532654D01*
X499655D01*
X496323Y535153D02*
X497989D01*
X485088Y529306D02*
X481756D01*
Y524307D01*
X485088D01*
X481756Y526806D02*
X483422D01*
X499000Y638912D02*
Y633913D01*
X501499D01*
X502332Y634747D01*
Y638079D01*
X501499Y638912D01*
X499000D01*
X393045Y719890D02*
X392212Y720723D01*
X390546D01*
X389713Y719890D01*
Y716558D01*
X390546Y715724D01*
X392212D01*
X393045Y716558D01*
X393439Y715087D02*
X392605Y715920D01*
X390939D01*
X390106Y715087D01*
Y711754D01*
X390939Y710921D01*
X392605D01*
X393439Y711754D01*
X387139Y591500D02*
X383807D01*
Y586502D01*
X387139D01*
X383807Y589001D02*
X385473D01*
X436037Y640441D02*
X435204Y641274D01*
X433538D01*
X432705Y640441D01*
Y637109D01*
X433538Y636276D01*
X435204D01*
X436037Y637109D01*
X344437Y664896D02*
Y659898D01*
X346936D01*
X347769Y660731D01*
Y664063D01*
X346936Y664896D01*
X344437D01*
X411864Y587967D02*
X408532D01*
Y582969D01*
X411864D01*
X408532Y585468D02*
X410198D01*
X422100Y619778D02*
X418768D01*
Y614780D01*
X422100D01*
X418768Y617279D02*
X420434D01*
X407927Y619778D02*
X404595D01*
Y614780D01*
X407927D01*
X404595Y617279D02*
X406261D01*
X401785Y669575D02*
X400952Y670408D01*
X399286D01*
X398453Y669575D01*
Y666243D01*
X399286Y665410D01*
X400952D01*
X401785Y666243D01*
X393911Y699890D02*
X393078Y700723D01*
X391412D01*
X390579Y699890D01*
Y696558D01*
X391412Y695724D01*
X393078D01*
X393911Y696558D01*
X396667Y570093D02*
X393335D01*
Y565095D01*
X396667D01*
X393335Y567594D02*
X395001D01*
X374541Y572770D02*
X371209D01*
Y567772D01*
X374541D01*
X371209Y570271D02*
X372875D01*
X398793Y575526D02*
X395461D01*
Y570528D01*
X398793D01*
X395461Y573027D02*
X397127D01*
X350368Y650959D02*
X347035D01*
Y645961D01*
X350368D01*
X347035Y648460D02*
X348702D01*
X364856Y666502D02*
X361524D01*
Y661504D01*
X364856D01*
X361524Y664003D02*
X363190D01*
X418399Y559778D02*
X415067D01*
Y554779D01*
X418399D01*
X415067Y557279D02*
X416733D01*
X394147Y575430D02*
X393314Y576263D01*
X391648D01*
X390815Y575430D01*
Y572098D01*
X391648Y571265D01*
X393314D01*
X394147Y572098D01*
X406588Y507573D02*
X403256D01*
Y502575D01*
X406588D01*
X403256Y505074D02*
X404922D01*
X392572Y591858D02*
X391739Y592691D01*
X390073D01*
X389240Y591858D01*
Y588526D01*
X390073Y587693D01*
X391739D01*
X392572Y588526D01*
X405738Y521376D02*
X402406D01*
Y516378D01*
X405738D01*
X402406Y518877D02*
X404072D01*
X352594Y686874D02*
X353594Y688874D01*
X352594Y690874D01*
X354594Y689874D01*
X356594Y690874D01*
X355594Y688874D01*
X356594Y686874D01*
X354594Y687874D01*
X352594Y686874D01*
X389029Y671071D02*
X388196Y671904D01*
X386530D01*
X385697Y671071D01*
Y667739D01*
X386530Y666905D01*
X388196D01*
X389029Y667739D01*
X393202Y602140D02*
X389870D01*
Y597142D01*
X393202D01*
X389870Y599641D02*
X391536D01*
X387927Y720441D02*
X387094Y721274D01*
X385428D01*
X384594Y720441D01*
Y717109D01*
X385428Y716276D01*
X387094D01*
X387927Y717109D01*
X367257Y582971D02*
X363925D01*
Y577972D01*
X367257D01*
X363925Y580472D02*
X365591D01*
X368557Y591353D02*
X365224D01*
Y586354D01*
X368557D01*
X365224Y588854D02*
X366891D01*
X369344Y612613D02*
X366012D01*
Y607614D01*
X369344D01*
X366012Y610113D02*
X367678D01*
X350969Y557386D02*
X351969Y559386D01*
X350969Y561386D01*
X352969Y560386D01*
X354969Y561386D01*
X353969Y559386D01*
X354969Y557386D01*
X352969Y558386D01*
X350969Y557386D01*
X400761Y734614D02*
X399928Y735447D01*
X398262D01*
X397429Y734614D01*
Y731282D01*
X398262Y730449D01*
X399928D01*
X400761Y731282D01*
X394844Y534435D02*
X391511D01*
Y529437D01*
X394844D01*
X391511Y531936D02*
X393178D01*
X386588Y613154D02*
X383256D01*
Y608155D01*
X386588D01*
X383256Y610654D02*
X384922D01*
X373492Y619148D02*
Y614150D01*
X375991D01*
X376824Y614983D01*
Y618315D01*
X375991Y619148D01*
X373492D01*
X369240D02*
Y614150D01*
X371739D01*
X372572Y614983D01*
Y618315D01*
X371739Y619148D01*
X369240D01*
X368768Y635368D02*
Y630370D01*
X371267D01*
X372100Y631203D01*
Y634535D01*
X371267Y635368D01*
X368768D01*
X368847Y645290D02*
Y640291D01*
X371346D01*
X372179Y641124D01*
Y644457D01*
X371346Y645290D01*
X368847D01*
X388846Y580487D02*
Y575488D01*
X391346D01*
X392179Y576321D01*
Y579654D01*
X391346Y580487D01*
X388846D01*
X378689Y646392D02*
Y641394D01*
X381188D01*
X382021Y642227D01*
Y645559D01*
X381188Y646392D01*
X378689D01*
X384594Y631038D02*
Y626039D01*
X387094D01*
X387927Y626872D01*
Y630205D01*
X387094Y631038D01*
X384594D01*
X401549Y570172D02*
X398217D01*
Y565173D01*
X401549D01*
X398217Y567672D02*
X399883D01*
X379555Y541668D02*
Y536669D01*
X382054D01*
X382887Y537502D01*
Y540835D01*
X382054Y541668D01*
X379555D01*
X394147Y550992D02*
X393314Y551825D01*
X391648D01*
X390815Y550992D01*
Y547660D01*
X391648Y546827D01*
X393314D01*
X394147Y547660D01*
X407445Y530006D02*
Y525007D01*
X409944D01*
X410777Y525840D01*
Y529173D01*
X409944Y530006D01*
X407445D01*
X389265Y529227D02*
X385933D01*
Y524228D01*
X389265D01*
X385933Y526727D02*
X387599D01*
X402572Y604378D02*
X401739Y605211D01*
X400073D01*
X399240Y604378D01*
Y601046D01*
X400073Y600213D01*
X401739D01*
X402572Y601046D01*
X412784Y598754D02*
Y593755D01*
X415283D01*
X416116Y594588D01*
Y597921D01*
X415283Y598754D01*
X412784D01*
X379502Y588439D02*
X376170D01*
Y583440D01*
X379502D01*
X376170Y585940D02*
X377836D01*
X398242Y599620D02*
X394910D01*
Y594622D01*
X398242D01*
X394910Y597121D02*
X396576D01*
X399187Y596550D02*
X395854D01*
Y591551D01*
X399187D01*
X395854Y594050D02*
X397520D01*
X401209Y576313D02*
Y571315D01*
X403708D01*
X404541Y572148D01*
Y575480D01*
X403708Y576313D01*
X401209D01*
X402390Y580408D02*
Y575410D01*
X404889D01*
X405722Y576242D01*
Y579575D01*
X404889Y580408D01*
X402390D01*
X388478Y625132D02*
X385146D01*
Y620134D01*
X388478D01*
X385146Y622633D02*
X386812D01*
X402887Y610250D02*
X399555D01*
Y605252D01*
X402887D01*
X399555Y607751D02*
X401221D01*
X401549Y612769D02*
X398217D01*
Y607771D01*
X401549D01*
X398217Y610270D02*
X399883D01*
X399580Y649181D02*
X398747Y650014D01*
X397081D01*
X396248Y649181D01*
Y645849D01*
X397081Y645016D01*
X398747D01*
X399580Y645849D01*
X440053Y672567D02*
X439220Y673400D01*
X437554D01*
X436721Y672567D01*
Y669235D01*
X437554Y668402D01*
X439220D01*
X440053Y669235D01*
X413177Y606235D02*
Y601236D01*
X415676D01*
X416509Y602069D01*
Y605402D01*
X415676Y606235D01*
X413177D01*
X374541Y554896D02*
X371209D01*
Y549898D01*
X374541D01*
X371209Y552397D02*
X372875D01*
X358847Y644895D02*
Y639897D01*
X361346D01*
X362179Y640730D01*
Y644062D01*
X361346Y644895D01*
X358847D01*
X348084Y614266D02*
X344752D01*
Y609268D01*
X348084D01*
X344752Y611767D02*
X346418D01*
X351052Y621037D02*
Y616039D01*
X353551D01*
X354384Y616872D01*
Y620204D01*
X353551Y621037D01*
X351052D01*
X403517Y525447D02*
X400185D01*
Y520449D01*
X403517D01*
X400185Y522948D02*
X401851D01*
X391155Y537652D02*
X387823D01*
Y532654D01*
X391155D01*
X387823Y535153D02*
X389489D01*
X376588Y529306D02*
X373256D01*
Y524307D01*
X376588D01*
X373256Y526806D02*
X374922D01*
X390500Y638912D02*
Y633913D01*
X392999D01*
X393832Y634747D01*
Y638079D01*
X392999Y638912D01*
X390500D01*
X275025Y238022D02*
X271693D01*
Y235523D01*
X273359D01*
X271693D01*
Y233024D01*
X280931Y238022D02*
X277598D01*
Y235523D01*
X279265D01*
X277598D01*
Y233024D01*
X519630Y201701D02*
X520630Y203701D01*
X519630Y205701D01*
X521630Y204701D01*
X523630Y205701D01*
X522630Y203701D01*
X523630Y201701D01*
X521630Y202701D01*
X519630Y201701D01*
X545221Y194614D02*
X546220Y196614D01*
X545221Y198614D01*
X547221Y197614D01*
X549221Y198614D01*
X548220Y196614D01*
X549221Y194614D01*
X547221Y195614D01*
X545221Y194614D01*
X508213Y194471D02*
X509213Y196471D01*
X508213Y198471D01*
X510213Y197471D01*
X512213Y198471D01*
X511213Y196471D01*
X512213Y194471D01*
X510213Y195471D01*
X508213Y194471D01*
X488921Y140677D02*
X489921Y142677D01*
X488921Y144677D01*
X490921Y143677D01*
X492921Y144677D01*
X491921Y142677D01*
X492921Y140677D01*
X490921Y141677D01*
X488921Y140677D01*
X512543Y181622D02*
X513543Y183622D01*
X512543Y185622D01*
X514543Y184622D01*
X516543Y185622D01*
X515543Y183622D01*
X516543Y181622D01*
X514543Y182622D01*
X512543Y181622D01*
X533803D02*
X534803Y183622D01*
X533803Y185622D01*
X535803Y184622D01*
X537803Y185622D01*
X536803Y183622D01*
X537803Y181622D01*
X535803Y182622D01*
X533803Y181622D01*
X567661Y137134D02*
X568661Y139134D01*
X567661Y141134D01*
X569661Y140134D01*
X571661Y141134D01*
X570661Y139134D01*
X571661Y137134D01*
X569661Y138134D01*
X567661Y137134D01*
X573567Y294614D02*
X574567Y296614D01*
X573567Y298614D01*
X575567Y297614D01*
X577567Y298614D01*
X576567Y296614D01*
X577567Y294614D01*
X575567Y295614D01*
X573567Y294614D01*
X519819Y138110D02*
X520819Y140110D01*
X519819Y142110D01*
X521819Y141110D01*
X523819Y142110D01*
X522819Y140110D01*
X523819Y138110D01*
X521819Y139110D01*
X519819Y138110D01*
X301913Y130835D02*
X302913Y132835D01*
X301913Y134835D01*
X303913Y133835D01*
X305913Y134835D01*
X304913Y132835D01*
X305913Y130835D01*
X303913Y131835D01*
X301913Y130835D01*
X246205Y57410D02*
X247205Y59409D01*
X246205Y61409D01*
X248205Y60409D01*
X250205Y61409D01*
X249205Y59409D01*
X250205Y57410D01*
X248205Y58410D01*
X246205Y57410D01*
X256244Y118630D02*
X257244Y120630D01*
X256244Y122630D01*
X258244Y121630D01*
X260244Y122630D01*
X259244Y120630D01*
X260244Y118630D01*
X258244Y119630D01*
X256244Y118630D01*
X229079Y151701D02*
X230079Y153701D01*
X229079Y155701D01*
X231079Y154701D01*
X233079Y155701D01*
X232079Y153701D01*
X233079Y151701D01*
X231079Y152701D01*
X229079Y151701D01*
X522780Y115480D02*
X523779Y117480D01*
X522780Y119480D01*
X524780Y118480D01*
X526780Y119480D01*
X525779Y117480D01*
X526780Y115480D01*
X524780Y116480D01*
X522780Y115480D01*
X509000Y126504D02*
X510000Y128504D01*
X509000Y130504D01*
X511000Y129504D01*
X513000Y130504D01*
X512000Y128504D01*
X513000Y126504D01*
X511000Y127504D01*
X509000Y126504D01*
X278685Y246583D02*
X279685Y248583D01*
X278685Y250583D01*
X280685Y249583D01*
X282685Y250583D01*
X281685Y248583D01*
X282685Y246583D01*
X280685Y247583D01*
X278685Y246583D01*
X147189Y43433D02*
X148189Y45433D01*
X147189Y47433D01*
X149189Y46433D01*
X151189Y47433D01*
X150189Y45433D01*
X151189Y43433D01*
X149189Y44433D01*
X147189Y43433D01*
X470811Y18630D02*
X471811Y20630D01*
X470811Y22630D01*
X472811Y21630D01*
X474811Y22630D01*
X473811Y20630D01*
X474811Y18630D01*
X472811Y19630D01*
X470811Y18630D01*
X492858Y33197D02*
X493858Y35197D01*
X492858Y37197D01*
X494858Y36197D01*
X496858Y37197D01*
X495858Y35197D01*
X496858Y33197D01*
X494858Y34197D01*
X492858Y33197D01*
X550731Y60362D02*
X551731Y62362D01*
X550731Y64362D01*
X552731Y63362D01*
X554731Y64362D01*
X553731Y62362D01*
X554731Y60362D01*
X552731Y61362D01*
X550731Y60362D01*
X537882Y38961D02*
X538882Y40961D01*
X537882Y42961D01*
X539882Y41961D01*
X541882Y42961D01*
X540882Y40961D01*
X541882Y38961D01*
X539882Y39961D01*
X537882Y38961D01*
X471118Y25803D02*
X472118Y27803D01*
X471118Y29803D01*
X473118Y28803D01*
X475118Y29803D01*
X474118Y27803D01*
X475118Y25803D01*
X473118Y26803D01*
X471118Y25803D01*
X479472Y29653D02*
X480473Y31653D01*
X479472Y33654D01*
X481472Y32653D01*
X483472Y33654D01*
X482473Y31653D01*
X483472Y29653D01*
X481472Y30654D01*
X479472Y29653D01*
X482134Y63118D02*
X483134Y65118D01*
X482134Y67118D01*
X484134Y66118D01*
X486134Y67118D01*
X485134Y65118D01*
X486134Y63118D01*
X484134Y64118D01*
X482134Y63118D01*
X534024Y19417D02*
X535024Y21417D01*
X534024Y23417D01*
X536024Y22417D01*
X538024Y23417D01*
X537024Y21417D01*
X538024Y19417D01*
X536024Y20417D01*
X534024Y19417D01*
X65331Y223660D02*
Y218661D01*
X67830D01*
X68663Y219495D01*
Y220327D01*
X67830Y221161D01*
X65331D01*
X67830D01*
X68663Y221994D01*
Y222827D01*
X67830Y223660D01*
X65331D01*
X103520Y215653D02*
Y210655D01*
X106019D01*
X106852Y211488D01*
Y212321D01*
X106019Y213154D01*
X103520D01*
X106019D01*
X106852Y213987D01*
Y214820D01*
X106019Y215653D01*
X103520D01*
X89346Y194920D02*
Y189921D01*
X91846D01*
X92679Y190754D01*
Y191587D01*
X91846Y192420D01*
X89346D01*
X91846D01*
X92679Y193254D01*
Y194087D01*
X91846Y194920D01*
X89346D01*
X64937Y216179D02*
Y211181D01*
X67436D01*
X68269Y212014D01*
Y212847D01*
X67436Y213680D01*
X64937D01*
X67436D01*
X68269Y214513D01*
Y215346D01*
X67436Y216179D01*
X64937D01*
X79504Y257518D02*
Y252520D01*
X82003D01*
X82836Y253353D01*
Y254186D01*
X82003Y255019D01*
X79504D01*
X82003D01*
X82836Y255852D01*
Y256685D01*
X82003Y257518D01*
X79504D01*
X44540Y154293D02*
Y149294D01*
X47039D01*
X47873Y150127D01*
Y150961D01*
X47039Y151794D01*
X44540D01*
X47039D01*
X47873Y152627D01*
Y153460D01*
X47039Y154293D01*
X44540D01*
X271204Y215086D02*
X272204Y217086D01*
X271204Y219086D01*
X273204Y218086D01*
X275204Y219086D01*
X274204Y217086D01*
X275204Y215086D01*
X273204Y216086D01*
X271204Y215086D01*
X270023Y246188D02*
X271023Y248188D01*
X270023Y250188D01*
X272023Y249188D01*
X274023Y250188D01*
X273023Y248188D01*
X274023Y246188D01*
X272023Y247188D01*
X270023Y246188D01*
X287347Y212724D02*
X288347Y214724D01*
X287347Y216724D01*
X289347Y215724D01*
X291347Y216724D01*
X290347Y214724D01*
X291347Y212724D01*
X289347Y213724D01*
X287347Y212724D01*
X358756Y213268D02*
X359756Y215268D01*
X358756Y217268D01*
X360756Y216268D01*
X362756Y217268D01*
X361756Y215268D01*
X362756Y213268D01*
X360756Y214268D01*
X358756Y213268D01*
X352306Y209968D02*
X353306Y211968D01*
X352306Y213968D01*
X354306Y212968D01*
X356306Y213968D01*
X355306Y211968D01*
X356306Y209968D01*
X354306Y210968D01*
X352306Y209968D01*
X350732Y219024D02*
X351732Y221024D01*
X350732Y223024D01*
X352732Y222024D01*
X354732Y223024D01*
X353732Y221024D01*
X354732Y219024D01*
X352732Y220024D01*
X350732Y219024D01*
X380474Y193738D02*
X377142D01*
Y191239D01*
X378808D01*
X377142D01*
Y188740D01*
X345000Y178299D02*
X346000Y180299D01*
X345000Y182299D01*
X347000Y181299D01*
X349000Y182299D01*
X348000Y180299D01*
X349000Y178299D01*
X347000Y179299D01*
X345000Y178299D01*
X336602Y228866D02*
X337602Y230866D01*
X336602Y232866D01*
X338602Y231866D01*
X340602Y232866D01*
X339602Y230866D01*
X340602Y228866D01*
X338602Y229866D01*
X336602Y228866D01*
X336165Y175323D02*
X337165Y177323D01*
X336165Y179323D01*
X338165Y178323D01*
X340165Y179323D01*
X339165Y177323D01*
X340165Y175323D01*
X338165Y176323D01*
X336165Y175323D01*
X486299Y306685D02*
X487299Y308685D01*
X486299Y310685D01*
X488299Y309685D01*
X490299Y310685D01*
X489299Y308685D01*
X490299Y306685D01*
X488299Y307685D01*
X486299Y306685D01*
X369236Y278472D02*
X370236Y280472D01*
X369236Y282472D01*
X371236Y281472D01*
X373236Y282472D01*
X372236Y280472D01*
X373236Y278472D01*
X371236Y279472D01*
X369236Y278472D01*
X493622Y283614D02*
X494622Y285614D01*
X493622Y287614D01*
X495622Y286614D01*
X497622Y287614D01*
X496622Y285614D01*
X497622Y283614D01*
X495622Y284614D01*
X493622Y283614D01*
X381047Y280441D02*
X382047Y282441D01*
X381047Y284441D01*
X383047Y283441D01*
X385047Y284441D01*
X384047Y282441D01*
X385047Y280441D01*
X383047Y281441D01*
X381047Y280441D01*
X429687Y267361D02*
X426354D01*
Y264861D01*
X428020D01*
X426354D01*
Y262362D01*
X290890Y262724D02*
X291890Y264724D01*
X290890Y266724D01*
X292890Y265724D01*
X294890Y266724D01*
X293890Y264724D01*
X294890Y262724D01*
X292890Y263724D01*
X290890Y262724D01*
X380474Y186258D02*
X377142D01*
Y183759D01*
X378808D01*
X377142D01*
Y181260D01*
X380474Y178778D02*
X377142D01*
Y176279D01*
X378808D01*
X377142D01*
Y173779D01*
X388348Y178778D02*
X385016D01*
Y176279D01*
X386682D01*
X385016D01*
Y173779D01*
X395828Y178778D02*
X392496D01*
Y176279D01*
X394162D01*
X392496D01*
Y173779D01*
X57032Y35559D02*
X58031Y37559D01*
X57032Y39559D01*
X59031Y38559D01*
X61032Y39559D01*
X60031Y37559D01*
X61032Y35559D01*
X59031Y36559D01*
X57032Y35559D01*
X39756Y75370D02*
X40756Y77370D01*
X39756Y79370D01*
X41756Y78370D01*
X43756Y79370D01*
X42756Y77370D01*
X43756Y75370D01*
X41756Y76370D01*
X39756Y75370D01*
X79756Y29937D02*
X80756Y31937D01*
X79756Y33937D01*
X81756Y32937D01*
X83756Y33937D01*
X82756Y31937D01*
X83756Y29937D01*
X81756Y30937D01*
X79756Y29937D01*
Y49228D02*
X80756Y51228D01*
X79756Y53228D01*
X81756Y52228D01*
X83756Y53228D01*
X82756Y51228D01*
X83756Y49228D01*
X81756Y50228D01*
X79756Y49228D01*
X117411Y193433D02*
X118411Y195433D01*
X117411Y197433D01*
X119411Y196433D01*
X121411Y197433D01*
X120411Y195433D01*
X121411Y193433D01*
X119411Y194433D01*
X117411Y193433D01*
X98775Y177291D02*
X99775Y179291D01*
X98775Y181291D01*
X100775Y180291D01*
X102775Y181291D01*
X101775Y179291D01*
X102775Y177291D01*
X100775Y178291D01*
X98775Y177291D01*
X432969Y33197D02*
X433968Y35197D01*
X432969Y37197D01*
X434969Y36197D01*
X436969Y37197D01*
X435968Y35197D01*
X436969Y33197D01*
X434969Y34197D01*
X432969Y33197D01*
X442858Y55579D02*
X443858Y57579D01*
X442858Y59579D01*
X444858Y58579D01*
X446858Y59579D01*
X445858Y57579D01*
X446858Y55579D01*
X444858Y56579D01*
X442858Y55579D01*
X434560Y66661D02*
X435560Y68661D01*
X434560Y70661D01*
X436560Y69661D01*
X438560Y70661D01*
X437560Y68661D01*
X438560Y66661D01*
X436560Y67661D01*
X434560Y66661D01*
X430145Y62724D02*
X431145Y64724D01*
X430145Y66724D01*
X432145Y65724D01*
X434145Y66724D01*
X433145Y64724D01*
X434145Y62724D01*
X432145Y63724D01*
X430145Y62724D01*
X417221Y39496D02*
X418221Y41496D01*
X417221Y43496D01*
X419221Y42496D01*
X421221Y43496D01*
X420221Y41496D01*
X421221Y39496D01*
X419221Y40496D01*
X417221Y39496D01*
X409000Y37921D02*
X410000Y39921D01*
X409000Y41921D01*
X411000Y40921D01*
X413000Y41921D01*
X412000Y39921D01*
X413000Y37921D01*
X411000Y38921D01*
X409000Y37921D01*
X393646Y64917D02*
X394646Y66917D01*
X393646Y68917D01*
X395646Y67917D01*
X397646Y68917D01*
X396646Y66917D01*
X397646Y64917D01*
X395646Y65917D01*
X393646Y64917D01*
X380282Y63140D02*
X381282Y65140D01*
X380282Y67140D01*
X382282Y66140D01*
X384282Y67140D01*
X383282Y65140D01*
X384282Y63140D01*
X382282Y64140D01*
X380282Y63140D01*
X400084Y78866D02*
X401084Y80866D01*
X400084Y82866D01*
X402084Y81866D01*
X404084Y82866D01*
X403084Y80866D01*
X404084Y78866D01*
X402084Y79866D01*
X400084Y78866D01*
X405850Y86740D02*
X406850Y88740D01*
X405850Y90740D01*
X407850Y89740D01*
X409850Y90740D01*
X408850Y88740D01*
X409850Y86740D01*
X407850Y87740D01*
X405850Y86740D01*
X391677Y73354D02*
X392677Y75354D01*
X391677Y77354D01*
X393677Y76354D01*
X395677Y77354D01*
X394677Y75354D01*
X395677Y73354D01*
X393677Y74354D01*
X391677Y73354D01*
X425451Y82803D02*
X426451Y84803D01*
X425451Y86803D01*
X427451Y85803D01*
X429451Y86803D01*
X428451Y84803D01*
X429451Y82803D01*
X427451Y83803D01*
X425451Y82803D01*
X432284Y75717D02*
X433284Y77716D01*
X432284Y79716D01*
X434284Y78716D01*
X436284Y79716D01*
X435284Y77716D01*
X436284Y75717D01*
X434284Y76717D01*
X432284Y75717D01*
X422104Y54063D02*
X423104Y56063D01*
X422104Y58063D01*
X424103Y57063D01*
X426103Y58063D01*
X425104Y56063D01*
X426103Y54063D01*
X424103Y55063D01*
X422104Y54063D01*
X416087Y51307D02*
X417087Y53307D01*
X416087Y55307D01*
X418087Y54307D01*
X420087Y55307D01*
X419087Y53307D01*
X420087Y51307D01*
X418087Y52307D01*
X416087Y51307D01*
X447189Y74535D02*
X448189Y76535D01*
X447189Y78535D01*
X449189Y77535D01*
X451189Y78535D01*
X450189Y76535D01*
X451189Y74535D01*
X449189Y75535D01*
X447189Y74535D01*
X419236Y86740D02*
X420236Y88740D01*
X419236Y90740D01*
X421236Y89740D01*
X423236Y90740D01*
X422236Y88740D01*
X423236Y86740D01*
X421236Y87740D01*
X419236Y86740D01*
X412937Y89890D02*
X413937Y91890D01*
X412937Y93890D01*
X414937Y92890D01*
X416937Y93890D01*
X415937Y91890D01*
X416937Y89890D01*
X414937Y90890D01*
X412937Y89890D01*
X400648Y58000D02*
X401648Y60000D01*
X400648Y62000D01*
X402648Y61000D01*
X404648Y62000D01*
X403648Y60000D01*
X404648Y58000D01*
X402648Y59000D01*
X400648Y58000D01*
X415299Y72567D02*
X416299Y74567D01*
X415299Y76567D01*
X417299Y75567D01*
X419299Y76567D01*
X418299Y74567D01*
X419299Y72567D01*
X417299Y73567D01*
X415299Y72567D01*
X406244Y102882D02*
X407244Y104882D01*
X406244Y106882D01*
X408244Y105882D01*
X410244Y106882D01*
X409244Y104882D01*
X410244Y102882D01*
X408244Y103882D01*
X406244Y102882D01*
X421598Y115874D02*
X422598Y117874D01*
X421598Y119874D01*
X423598Y118874D01*
X425598Y119874D01*
X424598Y117874D01*
X425598Y115874D01*
X423598Y116874D01*
X421598Y115874D01*
X406638Y63990D02*
X407638Y65990D01*
X406638Y67990D01*
X408638Y66990D01*
X410638Y67990D01*
X409638Y65990D01*
X410638Y63990D01*
X408638Y64990D01*
X406638Y63990D01*
X358689Y26193D02*
X359689Y28193D01*
X358689Y30193D01*
X360689Y29193D01*
X362689Y30193D01*
X361689Y28193D01*
X362689Y26193D01*
X360689Y27193D01*
X358689Y26193D01*
X335772Y43244D02*
X336772Y45244D01*
X335772Y47244D01*
X337772Y46244D01*
X339772Y47244D01*
X338772Y45244D01*
X339772Y43244D01*
X337772Y44244D01*
X335772Y43244D01*
X128780Y139401D02*
X129780Y141402D01*
X128780Y143402D01*
X130780Y142402D01*
X132780Y143402D01*
X131780Y141402D01*
X132780Y139401D01*
X130780Y140401D01*
X128780Y139401D01*
X129079Y133984D02*
X130079Y135984D01*
X129079Y137984D01*
X131079Y136984D01*
X133079Y137984D01*
X132079Y135984D01*
X133079Y133984D01*
X131079Y134984D01*
X129079Y133984D01*
X129567Y111843D02*
X130567Y113842D01*
X129567Y115842D01*
X131567Y114842D01*
X133567Y115842D01*
X132567Y113842D01*
X133567Y111843D01*
X131567Y112843D01*
X129567Y111843D01*
X151331Y105433D02*
X152331Y107433D01*
X151331Y109433D01*
X153331Y108433D01*
X155331Y109433D01*
X154331Y107433D01*
X155331Y105433D01*
X153331Y106433D01*
X151331Y105433D01*
X157236Y105433D02*
X158236Y107433D01*
X157236Y109433D01*
X159236Y108433D01*
X161236Y109433D01*
X160236Y107433D01*
X161236Y105433D01*
X159236Y106433D01*
X157236Y105433D01*
X146008Y105244D02*
X147008Y107244D01*
X146008Y109244D01*
X148008Y108244D01*
X150008Y109244D01*
X149008Y107244D01*
X150008Y105244D01*
X148008Y106244D01*
X146008Y105244D01*
X147394Y91276D02*
X148394Y93275D01*
X147394Y95275D01*
X149394Y94275D01*
X151394Y95275D01*
X150394Y93275D01*
X151394Y91276D01*
X149394Y92276D01*
X147394Y91276D01*
X177016Y109874D02*
X178016Y111874D01*
X177016Y113874D01*
X179016Y112874D01*
X181016Y113874D01*
X180016Y111874D01*
X181016Y109874D01*
X179016Y110874D01*
X177016Y109874D01*
X177016Y115779D02*
X178016Y117780D01*
X177016Y119780D01*
X179016Y118780D01*
X181016Y119780D01*
X180016Y117780D01*
X181016Y115779D01*
X179016Y116779D01*
X177016Y115779D01*
X177205Y137433D02*
X178205Y139433D01*
X177205Y141433D01*
X179205Y140433D01*
X181205Y141433D01*
X180205Y139433D01*
X181205Y137433D01*
X179205Y138433D01*
X177205Y137433D01*
X176716Y132409D02*
X177717Y134409D01*
X176716Y136409D01*
X178717Y135409D01*
X180717Y136409D01*
X179717Y134409D01*
X180717Y132409D01*
X178717Y133409D01*
X176716Y132409D01*
X173567Y154457D02*
X174567Y156457D01*
X173567Y158457D01*
X175567Y157457D01*
X177567Y158457D01*
X176567Y156457D01*
X177567Y154457D01*
X175567Y155457D01*
X173567Y154457D01*
X167268Y154063D02*
X168268Y156063D01*
X167268Y158063D01*
X169268Y157063D01*
X171268Y158063D01*
X170268Y156063D01*
X171268Y154063D01*
X169268Y155063D01*
X167268Y154063D01*
X133803Y152882D02*
X134803Y154882D01*
X133803Y156882D01*
X135803Y155882D01*
X137803Y156882D01*
X136803Y154882D01*
X137803Y152882D01*
X135803Y153882D01*
X133803Y152882D01*
X139315D02*
X140315Y154882D01*
X139315Y156882D01*
X141315Y155882D01*
X143315Y156882D01*
X142315Y154882D01*
X143315Y152882D01*
X141315Y153882D01*
X139315Y152882D01*
X111756Y169417D02*
X112756Y171417D01*
X111756Y173417D01*
X113756Y172417D01*
X115756Y173417D01*
X114756Y171417D01*
X115756Y169417D01*
X113756Y170417D01*
X111756Y169417D01*
X121205Y165480D02*
X122205Y167480D01*
X121205Y169480D01*
X123205Y168480D01*
X125205Y169480D01*
X124205Y167480D01*
X125205Y165480D01*
X123205Y166480D01*
X121205Y165480D01*
X172206Y120510D02*
X168874D01*
Y118011D01*
X170540D01*
X168874D01*
Y115512D01*
X125535Y98158D02*
X126535Y100157D01*
X125535Y102157D01*
X127535Y101157D01*
X129535Y102157D01*
X128535Y100157D01*
X129535Y98158D01*
X127535Y99158D01*
X125535Y98158D01*
X129472Y117055D02*
X130473Y119055D01*
X129472Y121055D01*
X131473Y120055D01*
X133473Y121055D01*
X132473Y119055D01*
X133473Y117055D01*
X131473Y118055D01*
X129472Y117055D01*
X114118Y114299D02*
X115118Y116299D01*
X114118Y118299D01*
X116118Y117299D01*
X118118Y118299D01*
X117118Y116299D01*
X118118Y114299D01*
X116118Y115299D01*
X114118Y114299D01*
X109394D02*
X110394Y116299D01*
X109394Y118299D01*
X111394Y117299D01*
X113394Y118299D01*
X112394Y116299D01*
X113394Y114299D01*
X111394Y115299D01*
X109394Y114299D01*
X92795Y45339D02*
X93795Y47339D01*
X92795Y49339D01*
X94795Y48339D01*
X96795Y49339D01*
X95795Y47339D01*
X96795Y45339D01*
X94795Y46339D01*
X92795Y45339D01*
X91756Y25795D02*
X92756Y27795D01*
X91756Y29795D01*
X93756Y28795D01*
X95756Y29795D01*
X94756Y27795D01*
X95756Y25795D01*
X93756Y26795D01*
X91756Y25795D01*
X103409D02*
X104409Y27795D01*
X103409Y29795D01*
X105409Y28795D01*
X107409Y29795D01*
X106409Y27795D01*
X107409Y25795D01*
X105409Y26795D01*
X103409Y25795D01*
X103331Y19181D02*
X104331Y21181D01*
X103331Y23181D01*
X105331Y22181D01*
X107331Y23181D01*
X106331Y21181D01*
X107331Y19181D01*
X105331Y20181D01*
X103331Y19181D01*
X218843Y36347D02*
X219843Y38346D01*
X218843Y40347D01*
X220843Y39347D01*
X222843Y40347D01*
X221843Y38346D01*
X222843Y36347D01*
X220843Y37347D01*
X218843Y36347D01*
X220024Y30047D02*
X221024Y32047D01*
X220024Y34047D01*
X222024Y33047D01*
X224024Y34047D01*
X223024Y32047D01*
X224024Y30047D01*
X222024Y31047D01*
X220024Y30047D01*
X128917Y33197D02*
X129917Y35197D01*
X128917Y37197D01*
X130917Y36197D01*
X132917Y37197D01*
X131917Y35197D01*
X132917Y33197D01*
X130917Y34197D01*
X128917Y33197D01*
X190279Y40461D02*
X191279Y42461D01*
X190279Y44461D01*
X192280Y43461D01*
X194280Y44461D01*
X193280Y42461D01*
X194280Y40461D01*
X192280Y41461D01*
X190279Y40461D01*
X162543Y106032D02*
X163543Y108031D01*
X162543Y110031D01*
X164543Y109031D01*
X166543Y110031D01*
X165543Y108031D01*
X166543Y106032D01*
X164543Y107032D01*
X162543Y106032D01*
X192858Y100913D02*
X193858Y102913D01*
X192858Y104913D01*
X194858Y103913D01*
X196858Y104913D01*
X195858Y102913D01*
X196858Y100913D01*
X194858Y101913D01*
X192858Y100913D01*
X197976Y98158D02*
X198976Y100157D01*
X197976Y102157D01*
X199976Y101157D01*
X201976Y102157D01*
X200976Y100157D01*
X201976Y98158D01*
X199976Y99158D01*
X197976Y98158D01*
X198370Y111543D02*
X199370Y113543D01*
X198370Y115543D01*
X200370Y114543D01*
X202370Y115543D01*
X201370Y113543D01*
X202370Y111543D01*
X200370Y112543D01*
X198370Y111543D01*
X209000Y113512D02*
X210000Y115512D01*
X209000Y117512D01*
X211000Y116512D01*
X213000Y117512D01*
X212000Y115512D01*
X213000Y113512D01*
X211000Y114512D01*
X209000Y113512D01*
X326323Y118236D02*
X327323Y120236D01*
X326323Y122236D01*
X328323Y121236D01*
X330323Y122236D01*
X329323Y120236D01*
X330323Y118236D01*
X328323Y119236D01*
X326323Y118236D01*
Y113512D02*
X327323Y115512D01*
X326323Y117512D01*
X328323Y116512D01*
X330323Y117512D01*
X329323Y115512D01*
X330323Y113512D01*
X328323Y114512D01*
X326323Y113512D01*
Y108787D02*
X327323Y110787D01*
X326323Y112787D01*
X328323Y111787D01*
X330323Y112787D01*
X329323Y110787D01*
X330323Y108787D01*
X328323Y109787D01*
X326323Y108787D01*
Y122961D02*
X327323Y124961D01*
X326323Y126961D01*
X328323Y125961D01*
X330323Y126961D01*
X329323Y124961D01*
X330323Y122961D01*
X328323Y123961D01*
X326323Y122961D01*
Y127685D02*
X327323Y129685D01*
X326323Y131685D01*
X328323Y130685D01*
X330323Y131685D01*
X329323Y129685D01*
X330323Y127685D01*
X328323Y128685D01*
X326323Y127685D01*
X544827Y287921D02*
X545827Y289921D01*
X544827Y291921D01*
X546827Y290921D01*
X548827Y291921D01*
X547827Y289921D01*
X548827Y287921D01*
X546827Y288921D01*
X544827Y287921D01*
X536165Y230047D02*
X537165Y232047D01*
X536165Y234047D01*
X538165Y233047D01*
X540165Y234047D01*
X539165Y232047D01*
X540165Y230047D01*
X538165Y231047D01*
X536165Y230047D01*
X549551Y233984D02*
X550551Y235984D01*
X549551Y237984D01*
X551551Y236984D01*
X553551Y237984D01*
X552551Y235984D01*
X553551Y233984D01*
X551551Y234984D01*
X549551Y233984D01*
X562150Y237134D02*
X563150Y239134D01*
X562150Y241134D01*
X564150Y240134D01*
X566150Y241134D01*
X565150Y239134D01*
X566150Y237134D01*
X564150Y238134D01*
X562150Y237134D01*
X501913Y132803D02*
X502913Y134803D01*
X501913Y136803D01*
X503913Y135803D01*
X505913Y136803D01*
X504913Y134803D01*
X505913Y132803D01*
X503913Y133803D01*
X501913Y132803D01*
X499157Y137921D02*
X500157Y139921D01*
X499157Y141921D01*
X501158Y140921D01*
X503158Y141921D01*
X502157Y139921D01*
X503158Y137921D01*
X501158Y138921D01*
X499157Y137921D01*
X559000Y268236D02*
X560000Y270236D01*
X559000Y272236D01*
X561000Y271236D01*
X563000Y272236D01*
X562000Y270236D01*
X563000Y268236D01*
X561000Y269236D01*
X559000Y268236D01*
X567063Y287717D02*
X568063Y289717D01*
X567063Y291717D01*
X569063Y290717D01*
X571063Y291717D01*
X570063Y289717D01*
X571063Y287717D01*
X569063Y288717D01*
X567063Y287717D01*
X279079Y117160D02*
X280079Y119160D01*
X279079Y121160D01*
X281079Y120160D01*
X283079Y121160D01*
X282079Y119160D01*
X283079Y117160D01*
X281079Y118160D01*
X279079Y117160D01*
X457425Y119811D02*
X458425Y121811D01*
X457425Y123811D01*
X459425Y122811D01*
X461425Y123811D01*
X460425Y121811D01*
X461425Y119811D01*
X459425Y120811D01*
X457425Y119811D01*
X497583Y79654D02*
X498583Y81653D01*
X497583Y83653D01*
X499583Y82653D01*
X501583Y83653D01*
X500583Y81653D01*
X501583Y79654D01*
X499583Y80654D01*
X497583Y79654D01*
X65000Y638912D02*
Y633913D01*
X67499D01*
X68332Y634747D01*
Y638079D01*
X67499Y638912D01*
X65000D01*
X51088Y529306D02*
X47756D01*
Y524307D01*
X51088D01*
X47756Y526806D02*
X49422D01*
X65655Y537652D02*
X62323D01*
Y532654D01*
X65655D01*
X62323Y535153D02*
X63989D01*
X78017Y525447D02*
X74685D01*
Y520449D01*
X78017D01*
X74685Y522948D02*
X76351D01*
X25552Y621037D02*
Y616039D01*
X28051D01*
X28884Y616872D01*
Y620204D01*
X28051Y621037D01*
X25552D01*
X22584Y614266D02*
X19252D01*
Y609268D01*
X22584D01*
X19252Y611767D02*
X20918D01*
X33347Y644895D02*
Y639897D01*
X35846D01*
X36679Y640730D01*
Y644062D01*
X35846Y644895D01*
X33347D01*
X49041Y554896D02*
X45709D01*
Y549898D01*
X49041D01*
X45709Y552397D02*
X47375D01*
X87677Y606235D02*
Y601236D01*
X90176D01*
X91009Y602069D01*
Y605402D01*
X90176Y606235D01*
X87677D01*
X114553Y672567D02*
X113720Y673400D01*
X112054D01*
X111221Y672567D01*
Y669235D01*
X112054Y668402D01*
X113720D01*
X114553Y669235D01*
X74080Y649181D02*
X73247Y650014D01*
X71581D01*
X70748Y649181D01*
Y645849D01*
X71581Y645016D01*
X73247D01*
X74080Y645849D01*
X76049Y612769D02*
X72717D01*
Y607771D01*
X76049D01*
X72717Y610270D02*
X74383D01*
X77387Y610250D02*
X74055D01*
Y605252D01*
X77387D01*
X74055Y607751D02*
X75721D01*
X62978Y625132D02*
X59646D01*
Y620134D01*
X62978D01*
X59646Y622633D02*
X61312D01*
X76890Y580408D02*
Y575410D01*
X79389D01*
X80222Y576242D01*
Y579575D01*
X79389Y580408D01*
X76890D01*
X75709Y576313D02*
Y571315D01*
X78208D01*
X79041Y572148D01*
Y575480D01*
X78208Y576313D01*
X75709D01*
X73687Y596550D02*
X70354D01*
Y591551D01*
X73687D01*
X70354Y594050D02*
X72021D01*
X72742Y599620D02*
X69410D01*
Y594622D01*
X72742D01*
X69410Y597121D02*
X71076D01*
X54002Y588439D02*
X50670D01*
Y583440D01*
X54002D01*
X50670Y585940D02*
X52336D01*
X87284Y598754D02*
Y593755D01*
X89783D01*
X90616Y594588D01*
Y597921D01*
X89783Y598754D01*
X87284D01*
X77072Y604378D02*
X76239Y605211D01*
X74573D01*
X73740Y604378D01*
Y601046D01*
X74573Y600213D01*
X76239D01*
X77072Y601046D01*
X63765Y529227D02*
X60433D01*
Y524228D01*
X63765D01*
X60433Y526727D02*
X62099D01*
X81945Y530006D02*
Y525007D01*
X84444D01*
X85277Y525840D01*
Y529173D01*
X84444Y530006D01*
X81945D01*
X68647Y550992D02*
X67814Y551825D01*
X66148D01*
X65315Y550992D01*
Y547660D01*
X66148Y546827D01*
X67814D01*
X68647Y547660D01*
X54055Y541668D02*
Y536669D01*
X56554D01*
X57387Y537502D01*
Y540835D01*
X56554Y541668D01*
X54055D01*
X76049Y570172D02*
X72716D01*
Y565173D01*
X76049D01*
X72716Y567672D02*
X74383D01*
X59095Y631038D02*
Y626039D01*
X61594D01*
X62427Y626872D01*
Y630205D01*
X61594Y631038D01*
X59095D01*
X53189Y646392D02*
Y641394D01*
X55688D01*
X56521Y642227D01*
Y645559D01*
X55688Y646392D01*
X53189D01*
X63346Y580487D02*
Y575488D01*
X65846D01*
X66679Y576321D01*
Y579654D01*
X65846Y580487D01*
X63346D01*
X43346Y645290D02*
Y640291D01*
X45846D01*
X46679Y641124D01*
Y644457D01*
X45846Y645290D01*
X43346D01*
X43268Y635368D02*
Y630370D01*
X45767D01*
X46600Y631203D01*
Y634535D01*
X45767Y635368D01*
X43268D01*
X43740Y619148D02*
Y614150D01*
X46239D01*
X47072Y614983D01*
Y618315D01*
X46239Y619148D01*
X43740D01*
X47992D02*
Y614150D01*
X50491D01*
X51324Y614983D01*
Y618315D01*
X50491Y619148D01*
X47992D01*
X61088Y613154D02*
X57756D01*
Y608155D01*
X61088D01*
X57756Y610654D02*
X59422D01*
X69344Y534435D02*
X66011D01*
Y529437D01*
X69344D01*
X66011Y531936D02*
X67677D01*
X75261Y734614D02*
X74428Y735447D01*
X72762D01*
X71929Y734614D01*
Y731282D01*
X72762Y730449D01*
X74428D01*
X75261Y731282D01*
X25469Y557386D02*
X26469Y559386D01*
X25469Y561386D01*
X27469Y560386D01*
X29469Y561386D01*
X28469Y559386D01*
X29469Y557386D01*
X27469Y558386D01*
X25469Y557386D01*
X43844Y612613D02*
X40512D01*
Y607614D01*
X43844D01*
X40512Y610113D02*
X42178D01*
X43057Y591353D02*
X39724D01*
Y586354D01*
X43057D01*
X39724Y588854D02*
X41390D01*
X41758Y582971D02*
X38425D01*
Y577972D01*
X41758D01*
X38425Y580472D02*
X40091D01*
X62427Y720441D02*
X61594Y721274D01*
X59927D01*
X59095Y720441D01*
Y717109D01*
X59927Y716276D01*
X61594D01*
X62427Y717109D01*
X67702Y602140D02*
X64370D01*
Y597142D01*
X67702D01*
X64370Y599641D02*
X66036D01*
X63529Y671071D02*
X62696Y671904D01*
X61030D01*
X60197Y671071D01*
Y667739D01*
X61030Y666905D01*
X62696D01*
X63529Y667739D01*
X27095Y686874D02*
X28095Y688874D01*
X27095Y690874D01*
X29094Y689874D01*
X31095Y690874D01*
X30095Y688874D01*
X31095Y686874D01*
X29094Y687874D01*
X27095Y686874D01*
X80238Y521376D02*
X76906D01*
Y516378D01*
X80238D01*
X76906Y518877D02*
X78572D01*
X67072Y591858D02*
X66239Y592691D01*
X64573D01*
X63740Y591858D01*
Y588526D01*
X64573Y587693D01*
X66239D01*
X67072Y588526D01*
X81088Y507573D02*
X77756D01*
Y502575D01*
X81088D01*
X77756Y505074D02*
X79422D01*
X68647Y575430D02*
X67814Y576263D01*
X66148D01*
X65315Y575430D01*
Y572098D01*
X66148Y571265D01*
X67814D01*
X68647Y572098D01*
X92899Y559778D02*
X89567D01*
Y554779D01*
X92899D01*
X89567Y557279D02*
X91233D01*
X39356Y666502D02*
X36024D01*
Y661504D01*
X39356D01*
X36024Y664003D02*
X37690D01*
X24868Y650959D02*
X21535D01*
Y645961D01*
X24868D01*
X21535Y648460D02*
X23202D01*
X73293Y575526D02*
X69961D01*
Y570528D01*
X73293D01*
X69961Y573027D02*
X71627D01*
X49041Y572770D02*
X45709D01*
Y567772D01*
X49041D01*
X45709Y570271D02*
X47375D01*
X71167Y570093D02*
X67835D01*
Y565095D01*
X71167D01*
X67835Y567594D02*
X69501D01*
X68411Y699890D02*
X67578Y700723D01*
X65912D01*
X65079Y699890D01*
Y696558D01*
X65912Y695724D01*
X67578D01*
X68411Y696558D01*
X76285Y669575D02*
X75452Y670408D01*
X73786D01*
X72953Y669575D01*
Y666243D01*
X73786Y665410D01*
X75452D01*
X76285Y666243D01*
X82427Y619778D02*
X79094D01*
Y614780D01*
X82427D01*
X79094Y617279D02*
X80761D01*
X96600Y619778D02*
X93268D01*
Y614780D01*
X96600D01*
X93268Y617279D02*
X94934D01*
X86364Y587967D02*
X83031D01*
Y582969D01*
X86364D01*
X83031Y585468D02*
X84698D01*
X18937Y664896D02*
Y659898D01*
X21436D01*
X22269Y660731D01*
Y664063D01*
X21436Y664896D01*
X18937D01*
X110537Y640441D02*
X109704Y641274D01*
X108038D01*
X107205Y640441D01*
Y637109D01*
X108038Y636276D01*
X109704D01*
X110537Y637109D01*
X61639Y591500D02*
X58307D01*
Y586502D01*
X61639D01*
X58307Y589001D02*
X59973D01*
X67939Y715087D02*
X67106Y715920D01*
X65439D01*
X64606Y715087D01*
Y711754D01*
X65439Y710921D01*
X67106D01*
X67939Y711754D01*
X67545Y719890D02*
X66712Y720723D01*
X65046D01*
X64213Y719890D01*
Y716558D01*
X65046Y715724D01*
X66712D01*
X67545Y716558D01*
X173500Y638912D02*
Y633913D01*
X175999D01*
X176832Y634747D01*
Y638079D01*
X175999Y638912D01*
X173500D01*
X159588Y529306D02*
X156256D01*
Y524307D01*
X159588D01*
X156256Y526806D02*
X157922D01*
X174155Y537652D02*
X170823D01*
Y532654D01*
X174155D01*
X170823Y535153D02*
X172489D01*
X186517Y525447D02*
X183185D01*
Y520449D01*
X186517D01*
X183185Y522948D02*
X184851D01*
X134052Y621037D02*
Y616039D01*
X136551D01*
X137384Y616872D01*
Y620204D01*
X136551Y621037D01*
X134052D01*
X131084Y614266D02*
X127752D01*
Y609268D01*
X131084D01*
X127752Y611767D02*
X129418D01*
X141847Y644895D02*
Y639897D01*
X144346D01*
X145179Y640730D01*
Y644062D01*
X144346Y644895D01*
X141847D01*
X157541Y554896D02*
X154209D01*
Y549898D01*
X157541D01*
X154209Y552397D02*
X155875D01*
X196177Y606235D02*
Y601236D01*
X198676D01*
X199509Y602069D01*
Y605402D01*
X198676Y606235D01*
X196177D01*
X223053Y672567D02*
X222220Y673400D01*
X220553D01*
X219721Y672567D01*
Y669235D01*
X220553Y668402D01*
X222220D01*
X223053Y669235D01*
X182580Y649181D02*
X181747Y650014D01*
X180081D01*
X179248Y649181D01*
Y645849D01*
X180081Y645016D01*
X181747D01*
X182580Y645849D01*
X184549Y612769D02*
X181217D01*
Y607771D01*
X184549D01*
X181217Y610270D02*
X182883D01*
X185887Y610250D02*
X182555D01*
Y605252D01*
X185887D01*
X182555Y607751D02*
X184221D01*
X171478Y625132D02*
X168146D01*
Y620134D01*
X171478D01*
X168146Y622633D02*
X169812D01*
X185390Y580408D02*
Y575410D01*
X187889D01*
X188722Y576242D01*
Y579575D01*
X187889Y580408D01*
X185390D01*
X184209Y576313D02*
Y571315D01*
X186708D01*
X187541Y572148D01*
Y575480D01*
X186708Y576313D01*
X184209D01*
X182187Y596550D02*
X178854D01*
Y591551D01*
X182187D01*
X178854Y594050D02*
X180520D01*
X181242Y599620D02*
X177909D01*
Y594622D01*
X181242D01*
X177909Y597121D02*
X179576D01*
X162502Y588439D02*
X159170D01*
Y583440D01*
X162502D01*
X159170Y585940D02*
X160836D01*
X195784Y598754D02*
Y593755D01*
X198283D01*
X199116Y594588D01*
Y597921D01*
X198283Y598754D01*
X195784D01*
X185572Y604378D02*
X184739Y605211D01*
X183073D01*
X182240Y604378D01*
Y601046D01*
X183073Y600213D01*
X184739D01*
X185572Y601046D01*
X172265Y529227D02*
X168933D01*
Y524228D01*
X172265D01*
X168933Y526727D02*
X170599D01*
X190445Y530006D02*
Y525007D01*
X192944D01*
X193777Y525840D01*
Y529173D01*
X192944Y530006D01*
X190445D01*
X177147Y550992D02*
X176314Y551825D01*
X174648D01*
X173815Y550992D01*
Y547660D01*
X174648Y546827D01*
X176314D01*
X177147Y547660D01*
X162555Y541668D02*
Y536669D01*
X165054D01*
X165887Y537502D01*
Y540835D01*
X165054Y541668D01*
X162555D01*
X184549Y570172D02*
X181217D01*
Y565173D01*
X184549D01*
X181217Y567672D02*
X182883D01*
X167595Y631038D02*
Y626039D01*
X170094D01*
X170927Y626872D01*
Y630205D01*
X170094Y631038D01*
X167595D01*
X161689Y646392D02*
Y641394D01*
X164188D01*
X165021Y642227D01*
Y645559D01*
X164188Y646392D01*
X161689D01*
X171846Y580487D02*
Y575488D01*
X174346D01*
X175179Y576321D01*
Y579654D01*
X174346Y580487D01*
X171846D01*
X151847Y645290D02*
Y640291D01*
X154346D01*
X155179Y641124D01*
Y644457D01*
X154346Y645290D01*
X151847D01*
X151768Y635368D02*
Y630370D01*
X154267D01*
X155100Y631203D01*
Y634535D01*
X154267Y635368D01*
X151768D01*
X152240Y619148D02*
Y614150D01*
X154739D01*
X155572Y614983D01*
Y618315D01*
X154739Y619148D01*
X152240D01*
X156492D02*
Y614150D01*
X158991D01*
X159824Y614983D01*
Y618315D01*
X158991Y619148D01*
X156492D01*
X169588Y613154D02*
X166256D01*
Y608155D01*
X169588D01*
X166256Y610654D02*
X167922D01*
X177844Y534435D02*
X174511D01*
Y529437D01*
X177844D01*
X174511Y531936D02*
X176178D01*
X183761Y734614D02*
X182928Y735447D01*
X181262D01*
X180429Y734614D01*
Y731282D01*
X181262Y730449D01*
X182928D01*
X183761Y731282D01*
X133969Y557386D02*
X134969Y559386D01*
X133969Y561386D01*
X135969Y560386D01*
X137969Y561386D01*
X136969Y559386D01*
X137969Y557386D01*
X135969Y558386D01*
X133969Y557386D01*
X152344Y612613D02*
X149012D01*
Y607614D01*
X152344D01*
X149012Y610113D02*
X150678D01*
X151557Y591353D02*
X148224D01*
Y586354D01*
X151557D01*
X148224Y588854D02*
X149890D01*
X150257Y582971D02*
X146925D01*
Y577972D01*
X150257D01*
X146925Y580472D02*
X148591D01*
X170927Y720441D02*
X170094Y721274D01*
X168428D01*
X167595Y720441D01*
Y717109D01*
X168428Y716276D01*
X170094D01*
X170927Y717109D01*
X176202Y602140D02*
X172870D01*
Y597142D01*
X176202D01*
X172870Y599641D02*
X174536D01*
X172029Y671071D02*
X171196Y671904D01*
X169530D01*
X168697Y671071D01*
Y667739D01*
X169530Y666905D01*
X171196D01*
X172029Y667739D01*
X135594Y686874D02*
X136594Y688874D01*
X135594Y690874D01*
X137594Y689874D01*
X139594Y690874D01*
X138594Y688874D01*
X139594Y686874D01*
X137594Y687874D01*
X135594Y686874D01*
X188738Y521376D02*
X185406D01*
Y516378D01*
X188738D01*
X185406Y518877D02*
X187072D01*
X175572Y591858D02*
X174739Y592691D01*
X173073D01*
X172240Y591858D01*
Y588526D01*
X173073Y587693D01*
X174739D01*
X175572Y588526D01*
X189588Y507573D02*
X186256D01*
Y502575D01*
X189588D01*
X186256Y505074D02*
X187922D01*
X177147Y575430D02*
X176314Y576263D01*
X174648D01*
X173815Y575430D01*
Y572098D01*
X174648Y571265D01*
X176314D01*
X177147Y572098D01*
X201399Y559778D02*
X198067D01*
Y554779D01*
X201399D01*
X198067Y557279D02*
X199733D01*
X147856Y666502D02*
X144524D01*
Y661504D01*
X147856D01*
X144524Y664003D02*
X146190D01*
X133368Y650959D02*
X130035D01*
Y645961D01*
X133368D01*
X130035Y648460D02*
X131702D01*
X181793Y575526D02*
X178461D01*
Y570528D01*
X181793D01*
X178461Y573027D02*
X180127D01*
X157541Y572770D02*
X154209D01*
Y567772D01*
X157541D01*
X154209Y570271D02*
X155875D01*
X179667Y570093D02*
X176335D01*
Y565095D01*
X179667D01*
X176335Y567594D02*
X178001D01*
X176911Y699890D02*
X176078Y700723D01*
X174412D01*
X173579Y699890D01*
Y696558D01*
X174412Y695724D01*
X176078D01*
X176911Y696558D01*
X184785Y669575D02*
X183952Y670408D01*
X182286D01*
X181453Y669575D01*
Y666243D01*
X182286Y665410D01*
X183952D01*
X184785Y666243D01*
X190927Y619778D02*
X187594D01*
Y614780D01*
X190927D01*
X187594Y617279D02*
X189261D01*
X205100Y619778D02*
X201768D01*
Y614780D01*
X205100D01*
X201768Y617279D02*
X203434D01*
X194864Y587967D02*
X191532D01*
Y582969D01*
X194864D01*
X191532Y585468D02*
X193198D01*
X127437Y664896D02*
Y659898D01*
X129936D01*
X130769Y660731D01*
Y664063D01*
X129936Y664896D01*
X127437D01*
X219037Y640441D02*
X218204Y641274D01*
X216538D01*
X215705Y640441D01*
Y637109D01*
X216538Y636276D01*
X218204D01*
X219037Y637109D01*
X170139Y591500D02*
X166807D01*
Y586502D01*
X170139D01*
X166807Y589001D02*
X168473D01*
X176439Y715087D02*
X175605Y715920D01*
X173939D01*
X173106Y715087D01*
Y711754D01*
X173939Y710921D01*
X175605D01*
X176439Y711754D01*
X176045Y719890D02*
X175212Y720723D01*
X173546D01*
X172713Y719890D01*
Y716558D01*
X173546Y715724D01*
X175212D01*
X176045Y716558D01*
X282000Y638912D02*
Y633913D01*
X284499D01*
X285332Y634747D01*
Y638079D01*
X284499Y638912D01*
X282000D01*
X268088Y529306D02*
X264756D01*
Y524307D01*
X268088D01*
X264756Y526806D02*
X266422D01*
X282655Y537652D02*
X279323D01*
Y532654D01*
X282655D01*
X279323Y535153D02*
X280989D01*
X295017Y525447D02*
X291685D01*
Y520449D01*
X295017D01*
X291685Y522948D02*
X293351D01*
X242552Y621037D02*
Y616039D01*
X245051D01*
X245884Y616872D01*
Y620204D01*
X245051Y621037D01*
X242552D01*
X239584Y614266D02*
X236252D01*
Y609268D01*
X239584D01*
X236252Y611767D02*
X237918D01*
X250347Y644895D02*
Y639897D01*
X252846D01*
X253679Y640730D01*
Y644062D01*
X252846Y644895D01*
X250347D01*
X266041Y554896D02*
X262709D01*
Y549898D01*
X266041D01*
X262709Y552397D02*
X264375D01*
X304677Y606235D02*
Y601236D01*
X307176D01*
X308009Y602069D01*
Y605402D01*
X307176Y606235D01*
X304677D01*
X331553Y672567D02*
X330720Y673400D01*
X329053D01*
X328221Y672567D01*
Y669235D01*
X329053Y668402D01*
X330720D01*
X331553Y669235D01*
X291080Y649181D02*
X290247Y650014D01*
X288581D01*
X287748Y649181D01*
Y645849D01*
X288581Y645016D01*
X290247D01*
X291080Y645849D01*
X293049Y612769D02*
X289717D01*
Y607771D01*
X293049D01*
X289717Y610270D02*
X291383D01*
X294387Y610250D02*
X291055D01*
Y605252D01*
X294387D01*
X291055Y607751D02*
X292721D01*
X279978Y625132D02*
X276646D01*
Y620134D01*
X279978D01*
X276646Y622633D02*
X278312D01*
X293890Y580408D02*
Y575410D01*
X296389D01*
X297222Y576242D01*
Y579575D01*
X296389Y580408D01*
X293890D01*
X292709Y576313D02*
Y571315D01*
X295208D01*
X296041Y572148D01*
Y575480D01*
X295208Y576313D01*
X292709D01*
X290687Y596550D02*
X287354D01*
Y591551D01*
X290687D01*
X287354Y594050D02*
X289020D01*
X289742Y599620D02*
X286409D01*
Y594622D01*
X289742D01*
X286409Y597121D02*
X288076D01*
X271002Y588439D02*
X267670D01*
Y583440D01*
X271002D01*
X267670Y585940D02*
X269336D01*
X304284Y598754D02*
Y593755D01*
X306783D01*
X307616Y594588D01*
Y597921D01*
X306783Y598754D01*
X304284D01*
X294072Y604378D02*
X293239Y605211D01*
X291573D01*
X290740Y604378D01*
Y601046D01*
X291573Y600213D01*
X293239D01*
X294072Y601046D01*
X280765Y529227D02*
X277433D01*
Y524228D01*
X280765D01*
X277433Y526727D02*
X279099D01*
X298945Y530006D02*
Y525007D01*
X301444D01*
X302277Y525840D01*
Y529173D01*
X301444Y530006D01*
X298945D01*
X285647Y550992D02*
X284814Y551825D01*
X283148D01*
X282315Y550992D01*
Y547660D01*
X283148Y546827D01*
X284814D01*
X285647Y547660D01*
X271055Y541668D02*
Y536669D01*
X273554D01*
X274387Y537502D01*
Y540835D01*
X273554Y541668D01*
X271055D01*
X293049Y570172D02*
X289717D01*
Y565173D01*
X293049D01*
X289717Y567672D02*
X291383D01*
X276095Y631038D02*
Y626039D01*
X278594D01*
X279427Y626872D01*
Y630205D01*
X278594Y631038D01*
X276095D01*
X270189Y646392D02*
Y641394D01*
X272688D01*
X273521Y642227D01*
Y645559D01*
X272688Y646392D01*
X270189D01*
X280346Y580487D02*
Y575488D01*
X282846D01*
X283679Y576321D01*
Y579654D01*
X282846Y580487D01*
X280346D01*
X260347Y645290D02*
Y640291D01*
X262846D01*
X263679Y641124D01*
Y644457D01*
X262846Y645290D01*
X260347D01*
X260268Y635368D02*
Y630370D01*
X262767D01*
X263600Y631203D01*
Y634535D01*
X262767Y635368D01*
X260268D01*
X260740Y619148D02*
Y614150D01*
X263239D01*
X264072Y614983D01*
Y618315D01*
X263239Y619148D01*
X260740D01*
X264992D02*
Y614150D01*
X267491D01*
X268324Y614983D01*
Y618315D01*
X267491Y619148D01*
X264992D01*
X278088Y613154D02*
X274756D01*
Y608155D01*
X278088D01*
X274756Y610654D02*
X276422D01*
X286344Y534435D02*
X283011D01*
Y529437D01*
X286344D01*
X283011Y531936D02*
X284678D01*
X292261Y734614D02*
X291428Y735447D01*
X289762D01*
X288929Y734614D01*
Y731282D01*
X289762Y730449D01*
X291428D01*
X292261Y731282D01*
X242469Y557386D02*
X243469Y559386D01*
X242469Y561386D01*
X244469Y560386D01*
X246469Y561386D01*
X245469Y559386D01*
X246469Y557386D01*
X244469Y558386D01*
X242469Y557386D01*
X260844Y612613D02*
X257512D01*
Y607614D01*
X260844D01*
X257512Y610113D02*
X259178D01*
X260057Y591353D02*
X256724D01*
Y586354D01*
X260057D01*
X256724Y588854D02*
X258390D01*
X258757Y582971D02*
X255425D01*
Y577972D01*
X258757D01*
X255425Y580472D02*
X257091D01*
X279427Y720441D02*
X278594Y721274D01*
X276928D01*
X276095Y720441D01*
Y717109D01*
X276928Y716276D01*
X278594D01*
X279427Y717109D01*
X284702Y602140D02*
X281370D01*
Y597142D01*
X284702D01*
X281370Y599641D02*
X283036D01*
X280529Y671071D02*
X279696Y671904D01*
X278030D01*
X277197Y671071D01*
Y667739D01*
X278030Y666905D01*
X279696D01*
X280529Y667739D01*
X244094Y686874D02*
X245094Y688874D01*
X244094Y690874D01*
X246094Y689874D01*
X248095Y690874D01*
X247094Y688874D01*
X248095Y686874D01*
X246094Y687874D01*
X244094Y686874D01*
X297238Y521376D02*
X293905D01*
Y516378D01*
X297238D01*
X293905Y518877D02*
X295572D01*
X284072Y591858D02*
X283239Y592691D01*
X281573D01*
X280740Y591858D01*
Y588526D01*
X281573Y587693D01*
X283239D01*
X284072Y588526D01*
X298088Y507573D02*
X294756D01*
Y502575D01*
X298088D01*
X294756Y505074D02*
X296422D01*
X285647Y575430D02*
X284814Y576263D01*
X283148D01*
X282315Y575430D01*
Y572098D01*
X283148Y571265D01*
X284814D01*
X285647Y572098D01*
X309899Y559778D02*
X306567D01*
Y554779D01*
X309899D01*
X306567Y557279D02*
X308233D01*
X256356Y666502D02*
X253024D01*
Y661504D01*
X256356D01*
X253024Y664003D02*
X254690D01*
X241868Y650959D02*
X238535D01*
Y645961D01*
X241868D01*
X238535Y648460D02*
X240202D01*
X290293Y575526D02*
X286961D01*
Y570528D01*
X290293D01*
X286961Y573027D02*
X288627D01*
X266041Y572770D02*
X262709D01*
Y567772D01*
X266041D01*
X262709Y570271D02*
X264375D01*
X288167Y570093D02*
X284835D01*
Y565095D01*
X288167D01*
X284835Y567594D02*
X286501D01*
X285411Y699890D02*
X284578Y700723D01*
X282912D01*
X282079Y699890D01*
Y696558D01*
X282912Y695724D01*
X284578D01*
X285411Y696558D01*
X293285Y669575D02*
X292452Y670408D01*
X290786D01*
X289953Y669575D01*
Y666243D01*
X290786Y665410D01*
X292452D01*
X293285Y666243D01*
X299427Y619778D02*
X296094D01*
Y614780D01*
X299427D01*
X296094Y617279D02*
X297761D01*
X313600Y619778D02*
X310268D01*
Y614780D01*
X313600D01*
X310268Y617279D02*
X311934D01*
X303364Y587967D02*
X300031D01*
Y582969D01*
X303364D01*
X300031Y585468D02*
X301698D01*
X235937Y664896D02*
Y659898D01*
X238436D01*
X239269Y660731D01*
Y664063D01*
X238436Y664896D01*
X235937D01*
X327537Y640441D02*
X326704Y641274D01*
X325038D01*
X324205Y640441D01*
Y637109D01*
X325038Y636276D01*
X326704D01*
X327537Y637109D01*
X278639Y591500D02*
X275307D01*
Y586502D01*
X278639D01*
X275307Y589001D02*
X276973D01*
X284939Y715087D02*
X284105Y715920D01*
X282439D01*
X281606Y715087D01*
Y711754D01*
X282439Y710921D01*
X284105D01*
X284939Y711754D01*
X284545Y719890D02*
X283712Y720723D01*
X282046D01*
X281213Y719890D01*
Y716558D01*
X282046Y715724D01*
X283712D01*
X284545Y716558D01*
X750852Y210028D02*
X750019Y210861D01*
X748353D01*
X747520Y210028D01*
Y206695D01*
X748353Y205862D01*
X750019D01*
X750852Y206695D01*
X742549Y208980D02*
X741716Y209813D01*
X740050D01*
X739217Y208980D01*
Y205648D01*
X740050Y204815D01*
X741716D01*
X742549Y205648D01*
X738828Y146067D02*
X737995Y146900D01*
X736329D01*
X735496Y146067D01*
Y142735D01*
X736329Y141902D01*
X737995D01*
X738828Y142735D01*
X649831Y105865D02*
Y100866D01*
X652330D01*
X653163Y101699D01*
Y105032D01*
X652330Y105865D01*
X649831D01*
X812618Y39073D02*
Y34075D01*
X815117D01*
X815950Y34908D01*
Y38240D01*
X815117Y39073D01*
X812618D01*
X746413Y168144D02*
Y163146D01*
X748913D01*
X749746Y163979D01*
Y167311D01*
X748913Y168144D01*
X746413D01*
X746415Y172894D02*
Y167896D01*
X748914D01*
X749748Y168729D01*
Y172061D01*
X748914Y172894D01*
X746415D01*
X717734Y146067D02*
X716901Y146900D01*
X715235D01*
X714402Y146067D01*
Y142735D01*
X715235Y141902D01*
X716901D01*
X717734Y142735D01*
X671545Y266469D02*
X670712Y267302D01*
X669046D01*
X668213Y266469D01*
Y263136D01*
X669046Y262303D01*
X670712D01*
X671545Y263136D01*
X801935Y284898D02*
X801102Y285731D01*
X799435D01*
X798602Y284898D01*
Y281565D01*
X799435Y280732D01*
X801102D01*
X801935Y281565D01*
X735395Y98937D02*
X734562Y99770D01*
X732896D01*
X732063Y98937D01*
Y95605D01*
X732896Y94772D01*
X734562D01*
X735395Y95605D01*
X749045Y132905D02*
X748212Y133739D01*
X746546D01*
X745713Y132905D01*
Y129573D01*
X746546Y128740D01*
X748212D01*
X749045Y129573D01*
X718633Y133209D02*
X717800Y134042D01*
X716134D01*
X715301Y133209D01*
Y129876D01*
X716134Y129043D01*
X717800D01*
X718633Y129876D01*
X721887Y209968D02*
X721054Y210802D01*
X719388D01*
X718555Y209968D01*
Y206636D01*
X719388Y205803D01*
X721054D01*
X721887Y206636D01*
X686525Y179937D02*
X685692Y180770D01*
X684026D01*
X683193Y179937D01*
Y176605D01*
X684026Y175772D01*
X685692D01*
X686525Y176605D01*
X687033Y147748D02*
X686200Y148581D01*
X684534D01*
X683701Y147748D01*
Y144416D01*
X684534Y143583D01*
X686200D01*
X687033Y144416D01*
X684415Y155138D02*
X683582Y155971D01*
X681916D01*
X681083Y155138D01*
Y151805D01*
X681916Y150972D01*
X683582D01*
X684415Y151805D01*
X673864Y284575D02*
X673031Y285408D01*
X671364D01*
X670532Y284575D01*
Y281242D01*
X671364Y280410D01*
X673031D01*
X673864Y281242D01*
X764057Y161020D02*
X763224Y161853D01*
X761557D01*
X760724Y161020D01*
Y157687D01*
X761557Y156854D01*
X763224D01*
X764057Y157687D01*
X773757Y161102D02*
X772924Y161935D01*
X771258D01*
X770425Y161102D01*
Y157770D01*
X771258Y156937D01*
X772924D01*
X773757Y157770D01*
X766072Y169835D02*
X765239Y170668D01*
X763573D01*
X762740Y169835D01*
Y166502D01*
X763573Y165669D01*
X765239D01*
X766072Y166502D01*
X743053Y152547D02*
X742220Y153380D01*
X740554D01*
X739720Y152547D01*
Y149215D01*
X740554Y148382D01*
X742220D01*
X743053Y149215D01*
X779139Y142984D02*
X778306Y143817D01*
X776640D01*
X775807Y142984D01*
Y139652D01*
X776640Y138819D01*
X778306D01*
X779139Y139652D01*
X737301Y243071D02*
X736468Y243904D01*
X734801D01*
X733968Y243071D01*
Y239739D01*
X734801Y238906D01*
X736468D01*
X737301Y239739D01*
X724435Y243661D02*
X723602Y244494D01*
X721935D01*
X721102Y243661D01*
Y240329D01*
X721935Y239496D01*
X723602D01*
X724435Y240329D01*
X703927Y244256D02*
X703094Y245089D01*
X701428D01*
X700595Y244256D01*
Y240924D01*
X701428Y240090D01*
X703094D01*
X703927Y240924D01*
X630647Y162882D02*
X629814Y163715D01*
X628148D01*
X627315Y162882D01*
Y159550D01*
X628148Y158716D01*
X629814D01*
X630647Y159550D01*
X744726Y168130D02*
X743893Y168963D01*
X742227D01*
X741394Y168130D01*
Y164798D01*
X742227Y163965D01*
X743893D01*
X744726Y164798D01*
X731183Y153437D02*
X730350Y154270D01*
X728683D01*
X727850Y153437D01*
Y150105D01*
X728683Y149272D01*
X730350D01*
X731183Y150105D01*
X624584Y284035D02*
X623751Y284869D01*
X622085D01*
X621252Y284035D01*
Y280703D01*
X622085Y279870D01*
X623751D01*
X624584Y280703D01*
X729757Y161051D02*
X728924Y161884D01*
X727258D01*
X726425Y161051D01*
Y157719D01*
X727258Y156886D01*
X728924D01*
X729757Y157719D01*
X634175Y202587D02*
X633342Y203420D01*
X631676D01*
X630842Y202587D01*
Y199254D01*
X631676Y198421D01*
X633342D01*
X634175Y199254D01*
X652647Y171583D02*
X651814Y172416D01*
X650148D01*
X649315Y171583D01*
Y168250D01*
X650148Y167417D01*
X651814D01*
X652647Y168250D01*
X623879Y291090D02*
X623046Y291924D01*
X621380D01*
X620547Y291090D01*
Y287758D01*
X621380Y286925D01*
X623046D01*
X623879Y287758D01*
X717687Y194858D02*
X716854Y195691D01*
X715187D01*
X714354Y194858D01*
Y191526D01*
X715187Y190693D01*
X716854D01*
X717687Y191526D01*
X723691Y128520D02*
X722857Y129353D01*
X721191D01*
X720358Y128520D01*
Y125187D01*
X721191Y124354D01*
X722857D01*
X723691Y125187D01*
X616950Y213484D02*
X616117Y214317D01*
X614451D01*
X613618Y213484D01*
Y210152D01*
X614451Y209319D01*
X616117D01*
X616950Y210152D01*
X769785Y266303D02*
X768952Y267136D01*
X767286D01*
X766453Y266303D01*
Y262971D01*
X767286Y262138D01*
X768952D01*
X769785Y262971D01*
X629903Y268110D02*
X629070Y268943D01*
X627404D01*
X626571Y268110D01*
Y264778D01*
X627404Y263945D01*
X629070D01*
X629903Y264778D01*
X604033Y207118D02*
X603200Y207951D01*
X601534D01*
X600701Y207118D01*
Y203786D01*
X601534Y202953D01*
X603200D01*
X604033Y203786D01*
X669891Y171130D02*
X669058Y171963D01*
X667392D01*
X666559Y171130D01*
Y167798D01*
X667392Y166965D01*
X669058D01*
X669891Y167798D01*
X674372Y199185D02*
X673539Y200018D01*
X671872D01*
X671039Y199185D01*
Y195853D01*
X671872Y195020D01*
X673539D01*
X674372Y195853D01*
X605104Y131272D02*
X604271Y132105D01*
X602605D01*
X601772Y131272D01*
Y127939D01*
X602605Y127106D01*
X604271D01*
X605104Y127939D01*
X617250Y122831D02*
X616417Y123664D01*
X614750D01*
X613917Y122831D01*
Y119498D01*
X614750Y118665D01*
X616417D01*
X617250Y119498D01*
X652167Y148248D02*
X651334Y149081D01*
X649668D01*
X648835Y148248D01*
Y144916D01*
X649668Y144083D01*
X651334D01*
X652167Y144916D01*
X740379Y99075D02*
X739546Y99908D01*
X737880D01*
X737047Y99075D01*
Y95742D01*
X737880Y94910D01*
X739546D01*
X740379Y95742D01*
X632072Y65665D02*
X631239Y66498D01*
X629573D01*
X628740Y65665D01*
Y62333D01*
X629573Y61500D01*
X631239D01*
X632072Y62333D01*
X682002Y239500D02*
X681169Y240333D01*
X679502D01*
X678669Y239500D01*
Y236168D01*
X679502Y235335D01*
X681169D01*
X682002Y236168D01*
X692104Y249776D02*
X691271Y250609D01*
X689605D01*
X688772Y249776D01*
Y246443D01*
X689605Y245610D01*
X691271D01*
X692104Y246443D01*
X705730Y272051D02*
X704897Y272884D01*
X703231D01*
X702398Y272051D01*
Y268719D01*
X703231Y267886D01*
X704897D01*
X705730Y268719D01*
X681726Y268429D02*
X680893Y269262D01*
X679227D01*
X678394Y268429D01*
Y265097D01*
X679227Y264264D01*
X680893D01*
X681726Y265097D01*
X729895Y271823D02*
X729062Y272656D01*
X727396D01*
X726563Y271823D01*
Y268491D01*
X727396Y267657D01*
X729062D01*
X729895Y268491D01*
X701990Y179803D02*
X701157Y180636D01*
X699490D01*
X698658Y179803D01*
Y176471D01*
X699490Y175638D01*
X701157D01*
X701990Y176471D01*
X617580Y152921D02*
X616747Y153754D01*
X615081D01*
X614248Y152921D01*
Y149589D01*
X615081Y148756D01*
X616747D01*
X617580Y149589D01*
X680218Y182153D02*
X679385Y182987D01*
X677719D01*
X676886Y182153D01*
Y178821D01*
X677719Y177988D01*
X679385D01*
X680218Y178821D01*
X677151Y182153D02*
X676318Y182987D01*
X674652D01*
X673819Y182153D01*
Y178821D01*
X674652Y177988D01*
X676318D01*
X677151Y178821D01*
X600895Y207095D02*
X600062Y207927D01*
X598396D01*
X597563Y207095D01*
Y203762D01*
X598396Y202929D01*
X600062D01*
X600895Y203762D01*
X677356Y199224D02*
X676523Y200057D01*
X674857D01*
X674024Y199224D01*
Y195892D01*
X674857Y195059D01*
X676523D01*
X677356Y195892D01*
X326608Y431697D02*
X325775Y432530D01*
X324109D01*
X323276Y431697D01*
Y428365D01*
X324109Y427531D01*
X325775D01*
X326608Y428365D01*
X331411Y432091D02*
X330578Y432924D01*
X328912D01*
X328079Y432091D01*
Y428758D01*
X328912Y427925D01*
X330578D01*
X331411Y428758D01*
X455831Y426624D02*
X452498D01*
Y421626D01*
X455831D01*
X452498Y424125D02*
X454165D01*
X406057Y474689D02*
X405224Y475522D01*
X403557D01*
X402724Y474689D01*
Y471357D01*
X403557Y470524D01*
X405224D01*
X406057Y471357D01*
X379102Y387254D02*
Y382256D01*
X381602D01*
X382435Y383089D01*
Y386421D01*
X381602Y387254D01*
X379102D01*
X459364Y451349D02*
X456032D01*
Y446350D01*
X459364D01*
X456032Y448850D02*
X457698D01*
X427553Y461585D02*
X424221D01*
Y456587D01*
X427553D01*
X424221Y459086D02*
X425887D01*
X427553Y447412D02*
X424221D01*
Y442413D01*
X427553D01*
X424221Y444913D02*
X425887D01*
X376923Y440437D02*
X376090Y441270D01*
X374424D01*
X373590Y440437D01*
Y437105D01*
X374424Y436272D01*
X376090D01*
X376923Y437105D01*
X346608Y432563D02*
X345775Y433396D01*
X344109D01*
X343276Y432563D01*
Y429231D01*
X344109Y428398D01*
X345775D01*
X346608Y429231D01*
X477238Y436152D02*
X473905D01*
Y431154D01*
X477238D01*
X473905Y433653D02*
X475572D01*
X474561Y414026D02*
X471228D01*
Y409028D01*
X474561D01*
X471228Y411527D02*
X472894D01*
X471805Y438278D02*
X468472D01*
Y433280D01*
X471805D01*
X468472Y435779D02*
X470139D01*
X396372Y389853D02*
X393039D01*
Y384854D01*
X396372D01*
X393039Y387353D02*
X394706D01*
X380828Y404341D02*
X377496D01*
Y399342D01*
X380828D01*
X377496Y401842D02*
X379162D01*
X487553Y457884D02*
X484221D01*
Y452886D01*
X487553D01*
X484221Y455385D02*
X485887D01*
X471068Y432799D02*
X470235Y433632D01*
X468569D01*
X467735Y432799D01*
Y429467D01*
X468569Y428634D01*
X470235D01*
X471068Y429467D01*
X539757Y446073D02*
X536425D01*
Y441075D01*
X539757D01*
X536425Y443574D02*
X538091D01*
X454639Y431224D02*
X453806Y432057D01*
X452140D01*
X451307Y431224D01*
Y427892D01*
X452140Y427059D01*
X453806D01*
X454639Y427892D01*
X525954Y445223D02*
X522622D01*
Y440224D01*
X525954D01*
X522622Y442724D02*
X524288D01*
X348126Y390413D02*
X349126Y392413D01*
X348126Y394413D01*
X350126Y393413D01*
X352126Y394413D01*
X351126Y392413D01*
X352126Y390413D01*
X350126Y391413D01*
X348126Y390413D01*
X375427Y427681D02*
X374594Y428514D01*
X372928D01*
X372094Y427681D01*
Y424349D01*
X372928Y423516D01*
X374594D01*
X375427Y424349D01*
X445190Y432687D02*
X441858D01*
Y427689D01*
X445190D01*
X441858Y430188D02*
X443524D01*
X326057Y426579D02*
X325224Y427412D01*
X323557D01*
X322724Y426579D01*
Y423246D01*
X323557Y422413D01*
X325224D01*
X326057Y423246D01*
X464360Y406742D02*
X461028D01*
Y401744D01*
X464360D01*
X461028Y404243D02*
X462694D01*
X455978Y408042D02*
X452646D01*
Y403043D01*
X455978D01*
X452646Y405543D02*
X454312D01*
X434718Y408829D02*
X431386D01*
Y403831D01*
X434718D01*
X431386Y406330D02*
X433052D01*
X477614Y388788D02*
X478614Y390788D01*
X477614Y392788D01*
X479614Y391788D01*
X481614Y392788D01*
X480614Y390788D01*
X481614Y388788D01*
X479614Y389788D01*
X477614Y388788D01*
X311883Y439413D02*
X311050Y440246D01*
X309384D01*
X308551Y439413D01*
Y436081D01*
X309384Y435248D01*
X311050D01*
X311883Y436081D01*
X512896Y434329D02*
X509563D01*
Y429330D01*
X512896D01*
X509563Y431830D02*
X511230D01*
X434177Y426073D02*
X430845D01*
Y421075D01*
X434177D01*
X430845Y423574D02*
X432511D01*
X424850Y416309D02*
Y411311D01*
X427350D01*
X428183Y412144D01*
Y415476D01*
X427350Y416309D01*
X424850D01*
Y412057D02*
Y407059D01*
X427350D01*
X428183Y407892D01*
Y411224D01*
X427350Y412057D01*
X424850D01*
X408630Y411585D02*
Y406587D01*
X411129D01*
X411962Y407420D01*
Y410752D01*
X411129Y411585D01*
X408630D01*
X398709Y411664D02*
Y406665D01*
X401208D01*
X402041Y407498D01*
Y410831D01*
X401208Y411664D01*
X398709D01*
X463512Y431664D02*
Y426665D01*
X466011D01*
X466844Y427498D01*
Y430831D01*
X466011Y431664D01*
X463512D01*
X397606Y421506D02*
Y416508D01*
X400105D01*
X400939Y417341D01*
Y420673D01*
X400105Y421506D01*
X397606D01*
X412961Y427412D02*
Y422413D01*
X415460D01*
X416293Y423246D01*
Y426579D01*
X415460Y427412D01*
X412961D01*
X477159Y441034D02*
X473827D01*
Y436035D01*
X477159D01*
X473827Y438535D02*
X475493D01*
X502331Y422372D02*
Y417374D01*
X504830D01*
X505663Y418207D01*
Y421539D01*
X504830Y422372D01*
X502331D01*
X495506Y432799D02*
X494672Y433632D01*
X493006D01*
X492173Y432799D01*
Y429467D01*
X493006Y428634D01*
X494672D01*
X495506Y429467D01*
X513993Y450262D02*
Y445264D01*
X516492D01*
X517325Y446097D01*
Y449429D01*
X516492Y450262D01*
X513993D01*
X518104Y428750D02*
X514772D01*
Y423752D01*
X518104D01*
X514772Y426251D02*
X516438D01*
X442120Y441224D02*
X441287Y442057D01*
X439620D01*
X438787Y441224D01*
Y437892D01*
X439620Y437059D01*
X441287D01*
X442120Y437892D01*
X445245Y455601D02*
Y450603D01*
X447744D01*
X448577Y451436D01*
Y454768D01*
X447744Y455601D01*
X445245D01*
X458892Y418987D02*
X455560D01*
Y413989D01*
X458892D01*
X455560Y416488D02*
X457226D01*
X447710Y437727D02*
X444378D01*
Y432728D01*
X447710D01*
X444378Y435227D02*
X446044D01*
X450781Y438672D02*
X447449D01*
Y433673D01*
X450781D01*
X447449Y436172D02*
X449115D01*
X467685Y444026D02*
Y439028D01*
X470184D01*
X471017Y439861D01*
Y443193D01*
X470184Y444026D01*
X467685D01*
X463590Y445207D02*
Y440209D01*
X466090D01*
X466923Y441042D01*
Y444374D01*
X466090Y445207D01*
X463590D01*
X422198Y427963D02*
X418866D01*
Y422965D01*
X422198D01*
X418866Y425464D02*
X420532D01*
X437080Y442372D02*
X433748D01*
Y437374D01*
X437080D01*
X433748Y439873D02*
X435414D01*
X434561Y441034D02*
X431229D01*
Y436036D01*
X434561D01*
X431229Y438535D02*
X432895D01*
X397317Y438232D02*
X396483Y439065D01*
X394817D01*
X393984Y438232D01*
Y434900D01*
X394817Y434067D01*
X396483D01*
X397317Y434900D01*
X373931Y478705D02*
X373098Y479538D01*
X371431D01*
X370598Y478705D01*
Y475372D01*
X371431Y474539D01*
X373098D01*
X373931Y475372D01*
X437764Y455994D02*
Y450996D01*
X440263D01*
X441096Y451829D01*
Y455161D01*
X440263Y455994D01*
X437764D01*
X492435Y414026D02*
X489102D01*
Y409028D01*
X492435D01*
X489102Y411527D02*
X490768D01*
X399103Y401664D02*
Y396666D01*
X401602D01*
X402435Y397499D01*
Y400831D01*
X401602Y401664D01*
X399103D01*
X433065Y387569D02*
X429732D01*
Y382571D01*
X433065D01*
X429732Y385070D02*
X431398D01*
X422961Y393869D02*
Y388871D01*
X425460D01*
X426294Y389704D01*
Y393036D01*
X425460Y393869D01*
X422961D01*
X521883Y443002D02*
X518551D01*
Y438004D01*
X521883D01*
X518551Y440503D02*
X520217D01*
X509679Y430640D02*
X506347D01*
Y425642D01*
X509679D01*
X506347Y428141D02*
X508013D01*
X518025Y416073D02*
X514693D01*
Y411075D01*
X518025D01*
X514693Y413574D02*
X516359D01*
X405087Y433317D02*
Y428319D01*
X407586D01*
X408419Y429152D01*
Y432484D01*
X407586Y433317D01*
X405087D01*
X52108Y429697D02*
X51275Y430530D01*
X49609D01*
X48776Y429697D01*
Y426365D01*
X49609Y425531D01*
X51275D01*
X52108Y426365D01*
X56911Y430091D02*
X56078Y430924D01*
X54412D01*
X53579Y430091D01*
Y426758D01*
X54412Y425925D01*
X56078D01*
X56911Y426758D01*
X181331Y424624D02*
X177998D01*
Y419626D01*
X181331D01*
X177998Y422125D02*
X179665D01*
X131557Y472689D02*
X130724Y473522D01*
X129058D01*
X128224Y472689D01*
Y469357D01*
X129058Y468524D01*
X130724D01*
X131557Y469357D01*
X104602Y385254D02*
Y380256D01*
X107102D01*
X107935Y381089D01*
Y384421D01*
X107102Y385254D01*
X104602D01*
X184864Y449349D02*
X181532D01*
Y444350D01*
X184864D01*
X181532Y446850D02*
X183198D01*
X153053Y459585D02*
X149721D01*
Y454587D01*
X153053D01*
X149721Y457086D02*
X151387D01*
X153053Y445412D02*
X149721D01*
Y440413D01*
X153053D01*
X149721Y442913D02*
X151387D01*
X102423Y438437D02*
X101590Y439270D01*
X99924D01*
X99090Y438437D01*
Y435105D01*
X99924Y434272D01*
X101590D01*
X102423Y435105D01*
X72108Y430563D02*
X71275Y431396D01*
X69609D01*
X68776Y430563D01*
Y427231D01*
X69609Y426398D01*
X71275D01*
X72108Y427231D01*
X202738Y434152D02*
X199405D01*
Y429154D01*
X202738D01*
X199405Y431653D02*
X201072D01*
X200061Y412026D02*
X196728D01*
Y407028D01*
X200061D01*
X196728Y409527D02*
X198395D01*
X197305Y436278D02*
X193972D01*
Y431280D01*
X197305D01*
X193972Y433779D02*
X195639D01*
X121872Y387853D02*
X118539D01*
Y382854D01*
X121872D01*
X118539Y385353D02*
X120205D01*
X106328Y402341D02*
X102996D01*
Y397342D01*
X106328D01*
X102996Y399842D02*
X104662D01*
X213053Y455884D02*
X209720D01*
Y450886D01*
X213053D01*
X209720Y453385D02*
X211387D01*
X196568Y430799D02*
X195735Y431632D01*
X194069D01*
X193235Y430799D01*
Y427467D01*
X194069Y426634D01*
X195735D01*
X196568Y427467D01*
X265258Y444073D02*
X261925D01*
Y439075D01*
X265258D01*
X261925Y441574D02*
X263591D01*
X180139Y429224D02*
X179306Y430057D01*
X177640D01*
X176807Y429224D01*
Y425892D01*
X177640Y425059D01*
X179306D01*
X180139Y425892D01*
X251454Y443223D02*
X248122D01*
Y438224D01*
X251454D01*
X248122Y440724D02*
X249788D01*
X73626Y388413D02*
X74626Y390413D01*
X73626Y392413D01*
X75626Y391413D01*
X77626Y392413D01*
X76626Y390413D01*
X77626Y388413D01*
X75626Y389413D01*
X73626Y388413D01*
X100927Y425681D02*
X100094Y426514D01*
X98427D01*
X97594Y425681D01*
Y422349D01*
X98427Y421516D01*
X100094D01*
X100927Y422349D01*
X170691Y430687D02*
X167358D01*
Y425689D01*
X170691D01*
X167358Y428188D02*
X169024D01*
X51557Y424579D02*
X50724Y425412D01*
X49057D01*
X48224Y424579D01*
Y421246D01*
X49057Y420413D01*
X50724D01*
X51557Y421246D01*
X189860Y404742D02*
X186528D01*
Y399744D01*
X189860D01*
X186528Y402243D02*
X188194D01*
X181478Y406042D02*
X178146D01*
Y401043D01*
X181478D01*
X178146Y403543D02*
X179812D01*
X160218Y406829D02*
X156886D01*
Y401831D01*
X160218D01*
X156886Y404330D02*
X158552D01*
X203114Y386788D02*
X204114Y388788D01*
X203114Y390788D01*
X205114Y389788D01*
X207114Y390788D01*
X206114Y388788D01*
X207114Y386788D01*
X205114Y387788D01*
X203114Y386788D01*
X37383Y437413D02*
X36550Y438246D01*
X34884D01*
X34051Y437413D01*
Y434081D01*
X34884Y433248D01*
X36550D01*
X37383Y434081D01*
X238396Y432329D02*
X235063D01*
Y427330D01*
X238396D01*
X235063Y429830D02*
X236730D01*
X159677Y424073D02*
X156345D01*
Y419075D01*
X159677D01*
X156345Y421574D02*
X158011D01*
X150350Y414309D02*
Y409311D01*
X152850D01*
X153683Y410144D01*
Y413476D01*
X152850Y414309D01*
X150350D01*
Y410057D02*
Y405059D01*
X152850D01*
X153683Y405892D01*
Y409224D01*
X152850Y410057D01*
X150350D01*
X134130Y409585D02*
Y404587D01*
X136629D01*
X137462Y405420D01*
Y408752D01*
X136629Y409585D01*
X134130D01*
X124209Y409664D02*
Y404665D01*
X126708D01*
X127541Y405498D01*
Y408831D01*
X126708Y409664D01*
X124209D01*
X189012Y429664D02*
Y424665D01*
X191511D01*
X192344Y425498D01*
Y428831D01*
X191511Y429664D01*
X189012D01*
X123106Y419506D02*
Y414508D01*
X125605D01*
X126439Y415341D01*
Y418673D01*
X125605Y419506D01*
X123106D01*
X138461Y425412D02*
Y420413D01*
X140960D01*
X141793Y421246D01*
Y424579D01*
X140960Y425412D01*
X138461D01*
X202659Y439034D02*
X199327D01*
Y434035D01*
X202659D01*
X199327Y436535D02*
X200993D01*
X227831Y420372D02*
Y415374D01*
X230330D01*
X231163Y416207D01*
Y419539D01*
X230330Y420372D01*
X227831D01*
X221006Y430799D02*
X220172Y431632D01*
X218506D01*
X217673Y430799D01*
Y427467D01*
X218506Y426634D01*
X220172D01*
X221006Y427467D01*
X239493Y448262D02*
Y443264D01*
X241992D01*
X242825Y444097D01*
Y447429D01*
X241992Y448262D01*
X239493D01*
X243604Y426750D02*
X240272D01*
Y421752D01*
X243604D01*
X240272Y424251D02*
X241938D01*
X167620Y439224D02*
X166787Y440057D01*
X165120D01*
X164287Y439224D01*
Y435892D01*
X165120Y435059D01*
X166787D01*
X167620Y435892D01*
X170745Y453601D02*
Y448603D01*
X173244D01*
X174077Y449436D01*
Y452768D01*
X173244Y453601D01*
X170745D01*
X184392Y416987D02*
X181060D01*
Y411989D01*
X184392D01*
X181060Y414488D02*
X182726D01*
X173210Y435727D02*
X169878D01*
Y430728D01*
X173210D01*
X169878Y433227D02*
X171544D01*
X176281Y436672D02*
X172949D01*
Y431673D01*
X176281D01*
X172949Y434172D02*
X174615D01*
X193185Y442026D02*
Y437028D01*
X195684D01*
X196517Y437861D01*
Y441193D01*
X195684Y442026D01*
X193185D01*
X189091Y443207D02*
Y438209D01*
X191590D01*
X192423Y439042D01*
Y442374D01*
X191590Y443207D01*
X189091D01*
X147698Y425963D02*
X144366D01*
Y420965D01*
X147698D01*
X144366Y423464D02*
X146032D01*
X162580Y440372D02*
X159248D01*
Y435374D01*
X162580D01*
X159248Y437873D02*
X160914D01*
X160061Y439034D02*
X156729D01*
Y434036D01*
X160061D01*
X156729Y436535D02*
X158395D01*
X122817Y436232D02*
X121983Y437065D01*
X120317D01*
X119484Y436232D01*
Y432900D01*
X120317Y432067D01*
X121983D01*
X122817Y432900D01*
X99431Y476705D02*
X98598Y477538D01*
X96931D01*
X96098Y476705D01*
Y473372D01*
X96931Y472539D01*
X98598D01*
X99431Y473372D01*
X163264Y453994D02*
Y448996D01*
X165763D01*
X166596Y449829D01*
Y453161D01*
X165763Y453994D01*
X163264D01*
X217935Y412026D02*
X214602D01*
Y407028D01*
X217935D01*
X214602Y409527D02*
X216268D01*
X124603Y399664D02*
Y394666D01*
X127102D01*
X127935Y395499D01*
Y398831D01*
X127102Y399664D01*
X124603D01*
X158564Y385569D02*
X155232D01*
Y380571D01*
X158564D01*
X155232Y383070D02*
X156898D01*
X148461Y391869D02*
Y386871D01*
X150961D01*
X151794Y387704D01*
Y391036D01*
X150961Y391869D01*
X148461D01*
X247383Y441002D02*
X244051D01*
Y436004D01*
X247383D01*
X244051Y438503D02*
X245717D01*
X235179Y428640D02*
X231846D01*
Y423642D01*
X235179D01*
X231846Y426141D02*
X233513D01*
X243525Y414073D02*
X240193D01*
Y409075D01*
X243525D01*
X240193Y411574D02*
X241859D01*
X130587Y431317D02*
Y426319D01*
X133086D01*
X133919Y427152D01*
Y430484D01*
X133086Y431317D01*
X130587D01*
X58571Y359219D02*
Y354221D01*
X61070D01*
X61903Y355054D01*
Y355887D01*
X61070Y356720D01*
X58571D01*
X61070D01*
X61903Y357553D01*
Y358386D01*
X61070Y359219D01*
X58571D01*
X515165Y359613D02*
Y354614D01*
X517664D01*
X518498Y355447D01*
Y356280D01*
X517664Y357113D01*
X515165D01*
X517664D01*
X518498Y357946D01*
Y358780D01*
X517664Y359613D01*
X515165D01*
D293*
X996811Y52500D02*
G03*
X996811Y52500I-2000J0D01*
G01*
X1006811D02*
G03*
X1006811Y52500I-2000J0D01*
G01*
X1016811D02*
G03*
X1016811Y52500I-2000J0D01*
G01*
X1026811D02*
G03*
X1026811Y52500I-2000J0D01*
G01*
X1036811D02*
G03*
X1036811Y52500I-2000J0D01*
G01*
X1038000Y742500D02*
G03*
X1038000Y742500I-2000J0D01*
G01*
X1028000D02*
G03*
X1028000Y742500I-2000J0D01*
G01*
X1018000D02*
G03*
X1018000Y742500I-2000J0D01*
G01*
X1008000D02*
G03*
X1008000Y742500I-2000J0D01*
G01*
X998000D02*
G03*
X998000Y742500I-2000J0D01*
G01*
X918811Y52500D02*
G03*
X918811Y52500I-2000J0D01*
G01*
X928811D02*
G03*
X928811Y52500I-2000J0D01*
G01*
X938811D02*
G03*
X938811Y52500I-2000J0D01*
G01*
X948811D02*
G03*
X948811Y52500I-2000J0D01*
G01*
X958811D02*
G03*
X958811Y52500I-2000J0D01*
G01*
X960000Y742500D02*
G03*
X960000Y742500I-2000J0D01*
G01*
X950000D02*
G03*
X950000Y742500I-2000J0D01*
G01*
X940000D02*
G03*
X940000Y742500I-2000J0D01*
G01*
X930000D02*
G03*
X930000Y742500I-2000J0D01*
G01*
X920000D02*
G03*
X920000Y742500I-2000J0D01*
G01*
X840811Y52500D02*
G03*
X840811Y52500I-2000J0D01*
G01*
X850811D02*
G03*
X850811Y52500I-2000J0D01*
G01*
X860811D02*
G03*
X860811Y52500I-2000J0D01*
G01*
X870811D02*
G03*
X870811Y52500I-2000J0D01*
G01*
X880811D02*
G03*
X880811Y52500I-2000J0D01*
G01*
X882000Y742500D02*
G03*
X882000Y742500I-2000J0D01*
G01*
X872000D02*
G03*
X872000Y742500I-2000J0D01*
G01*
X862000D02*
G03*
X862000Y742500I-2000J0D01*
G01*
X852000D02*
G03*
X852000Y742500I-2000J0D01*
G01*
X842000D02*
G03*
X842000Y742500I-2000J0D01*
G01*
X545016Y543992D02*
G03*
X545016Y543992I-2000J0D01*
G01*
Y593992D02*
G03*
X545016Y593992I-2000J0D01*
G01*
Y553992D02*
G03*
X545016Y553992I-2000J0D01*
G01*
Y603992D02*
G03*
X545016Y603992I-2000J0D01*
G01*
Y563992D02*
G03*
X545016Y563992I-2000J0D01*
G01*
Y613992D02*
G03*
X545016Y613992I-2000J0D01*
G01*
Y573992D02*
G03*
X545016Y573992I-2000J0D01*
G01*
Y583992D02*
G03*
X545016Y583992I-2000J0D01*
G01*
X478008Y498323D02*
G03*
X478008Y498323I-2000J0D01*
G01*
X478087Y738087D02*
G03*
X478087Y738087I-2000J0D01*
G01*
X533598Y549425D02*
G03*
X533598Y549425I-2000J0D01*
G01*
Y559425D02*
G03*
X533598Y559425I-2000J0D01*
G01*
Y569425D02*
G03*
X533598Y569425I-2000J0D01*
G01*
X436516Y543992D02*
G03*
X436516Y543992I-2000J0D01*
G01*
Y593992D02*
G03*
X436516Y593992I-2000J0D01*
G01*
Y553992D02*
G03*
X436516Y553992I-2000J0D01*
G01*
Y603992D02*
G03*
X436516Y603992I-2000J0D01*
G01*
Y563992D02*
G03*
X436516Y563992I-2000J0D01*
G01*
Y613992D02*
G03*
X436516Y613992I-2000J0D01*
G01*
Y573992D02*
G03*
X436516Y573992I-2000J0D01*
G01*
Y583992D02*
G03*
X436516Y583992I-2000J0D01*
G01*
X369508Y498323D02*
G03*
X369508Y498323I-2000J0D01*
G01*
X369587Y738087D02*
G03*
X369587Y738087I-2000J0D01*
G01*
X425098Y549425D02*
G03*
X425098Y549425I-2000J0D01*
G01*
Y559425D02*
G03*
X425098Y559425I-2000J0D01*
G01*
Y569425D02*
G03*
X425098Y569425I-2000J0D01*
G01*
X104323Y72850D02*
G03*
X104323Y72850I-2000J0D01*
G01*
X94323D02*
G03*
X94323Y72850I-2000J0D01*
G01*
X104323Y82850D02*
G03*
X104323Y82850I-2000J0D01*
G01*
X94323D02*
G03*
X94323Y82850I-2000J0D01*
G01*
X104323Y92850D02*
G03*
X104323Y92850I-2000J0D01*
G01*
X94323D02*
G03*
X94323Y92850I-2000J0D01*
G01*
X104323Y102850D02*
G03*
X104323Y102850I-2000J0D01*
G01*
X94323D02*
G03*
X94323Y102850I-2000J0D01*
G01*
X104323Y112850D02*
G03*
X104323Y112850I-2000J0D01*
G01*
X94323D02*
G03*
X94323Y112850I-2000J0D01*
G01*
X104323Y122850D02*
G03*
X104323Y122850I-2000J0D01*
G01*
X94323D02*
G03*
X94323Y122850I-2000J0D01*
G01*
X104323Y132850D02*
G03*
X104323Y132850I-2000J0D01*
G01*
X94323D02*
G03*
X94323Y132850I-2000J0D01*
G01*
X104323Y142850D02*
G03*
X104323Y142850I-2000J0D01*
G01*
X94323D02*
G03*
X94323Y142850I-2000J0D01*
G01*
X104323Y152850D02*
G03*
X104323Y152850I-2000J0D01*
G01*
X94323D02*
G03*
X94323Y152850I-2000J0D01*
G01*
X104323Y162850D02*
G03*
X104323Y162850I-2000J0D01*
G01*
X94323D02*
G03*
X94323Y162850I-2000J0D01*
G01*
X99598Y549425D02*
G03*
X99598Y549425I-2000J0D01*
G01*
Y559425D02*
G03*
X99598Y559425I-2000J0D01*
G01*
Y569425D02*
G03*
X99598Y569425I-2000J0D01*
G01*
X44087Y738087D02*
G03*
X44087Y738087I-2000J0D01*
G01*
X44008Y498323D02*
G03*
X44008Y498323I-2000J0D01*
G01*
X111016Y543992D02*
G03*
X111016Y543992I-2000J0D01*
G01*
Y593992D02*
G03*
X111016Y593992I-2000J0D01*
G01*
Y553992D02*
G03*
X111016Y553992I-2000J0D01*
G01*
Y603992D02*
G03*
X111016Y603992I-2000J0D01*
G01*
Y563992D02*
G03*
X111016Y563992I-2000J0D01*
G01*
Y613992D02*
G03*
X111016Y613992I-2000J0D01*
G01*
Y573992D02*
G03*
X111016Y573992I-2000J0D01*
G01*
Y583992D02*
G03*
X111016Y583992I-2000J0D01*
G01*
X208098Y549425D02*
G03*
X208098Y549425I-2000J0D01*
G01*
Y559425D02*
G03*
X208098Y559425I-2000J0D01*
G01*
Y569425D02*
G03*
X208098Y569425I-2000J0D01*
G01*
X152587Y738087D02*
G03*
X152587Y738087I-2000J0D01*
G01*
X152508Y498323D02*
G03*
X152508Y498323I-2000J0D01*
G01*
X219516Y543992D02*
G03*
X219516Y543992I-2000J0D01*
G01*
Y593992D02*
G03*
X219516Y593992I-2000J0D01*
G01*
Y553992D02*
G03*
X219516Y553992I-2000J0D01*
G01*
Y603992D02*
G03*
X219516Y603992I-2000J0D01*
G01*
Y563992D02*
G03*
X219516Y563992I-2000J0D01*
G01*
Y613992D02*
G03*
X219516Y613992I-2000J0D01*
G01*
Y573992D02*
G03*
X219516Y573992I-2000J0D01*
G01*
Y583992D02*
G03*
X219516Y583992I-2000J0D01*
G01*
X316598Y549425D02*
G03*
X316598Y549425I-2000J0D01*
G01*
Y559425D02*
G03*
X316598Y559425I-2000J0D01*
G01*
Y569425D02*
G03*
X316598Y569425I-2000J0D01*
G01*
X261087Y738087D02*
G03*
X261087Y738087I-2000J0D01*
G01*
X261008Y498323D02*
G03*
X261008Y498323I-2000J0D01*
G01*
X328016Y543992D02*
G03*
X328016Y543992I-2000J0D01*
G01*
Y593992D02*
G03*
X328016Y593992I-2000J0D01*
G01*
Y553992D02*
G03*
X328016Y553992I-2000J0D01*
G01*
Y603992D02*
G03*
X328016Y603992I-2000J0D01*
G01*
Y563992D02*
G03*
X328016Y563992I-2000J0D01*
G01*
Y613992D02*
G03*
X328016Y613992I-2000J0D01*
G01*
Y573992D02*
G03*
X328016Y573992I-2000J0D01*
G01*
Y583992D02*
G03*
X328016Y583992I-2000J0D01*
G01*
X694547Y77276D02*
G03*
X694547Y77276I-2000J0D01*
G01*
Y107276D02*
G03*
X694547Y107276I-2000J0D01*
G01*
X810547Y136276D02*
G03*
X810547Y136276I-2000J0D01*
G01*
X800547D02*
G03*
X800547Y136276I-2000J0D01*
G01*
X810547Y146276D02*
G03*
X810547Y146276I-2000J0D01*
G01*
X800547D02*
G03*
X800547Y146276I-2000J0D01*
G01*
X810547Y156276D02*
G03*
X810547Y156276I-2000J0D01*
G01*
X800547D02*
G03*
X800547Y156276I-2000J0D01*
G01*
X810547Y166276D02*
G03*
X810547Y166276I-2000J0D01*
G01*
X800547D02*
G03*
X800547Y166276I-2000J0D01*
G01*
X810547Y176276D02*
G03*
X810547Y176276I-2000J0D01*
G01*
X800547D02*
G03*
X800547Y176276I-2000J0D01*
G01*
X810547Y186276D02*
G03*
X810547Y186276I-2000J0D01*
G01*
X800547D02*
G03*
X800547Y186276I-2000J0D01*
G01*
X810547Y196276D02*
G03*
X810547Y196276I-2000J0D01*
G01*
X800547D02*
G03*
X800547Y196276I-2000J0D01*
G01*
X810547Y206276D02*
G03*
X810547Y206276I-2000J0D01*
G01*
X800547D02*
G03*
X800547Y206276I-2000J0D01*
G01*
X810547Y216276D02*
G03*
X810547Y216276I-2000J0D01*
G01*
X800547D02*
G03*
X800547Y216276I-2000J0D01*
G01*
X810547Y226276D02*
G03*
X810547Y226276I-2000J0D01*
G01*
X800547D02*
G03*
X800547Y226276I-2000J0D01*
G01*
X808547Y320276D02*
G03*
X808547Y320276I-2000J0D01*
G01*
X798547D02*
G03*
X798547Y320276I-2000J0D01*
G01*
X788547D02*
G03*
X788547Y320276I-2000J0D01*
G01*
X778547D02*
G03*
X778547Y320276I-2000J0D01*
G01*
X497008Y472335D02*
G03*
X497008Y472335I-2000J0D01*
G01*
X447008D02*
G03*
X447008Y472335I-2000J0D01*
G01*
X487008D02*
G03*
X487008Y472335I-2000J0D01*
G01*
X437008D02*
G03*
X437008Y472335I-2000J0D01*
G01*
X477008D02*
G03*
X477008Y472335I-2000J0D01*
G01*
X427008D02*
G03*
X427008Y472335I-2000J0D01*
G01*
X467008D02*
G03*
X467008Y472335I-2000J0D01*
G01*
X457008D02*
G03*
X457008Y472335I-2000J0D01*
G01*
X542677Y405327D02*
G03*
X542677Y405327I-2000J0D01*
G01*
X302913Y405406D02*
G03*
X302913Y405406I-2000J0D01*
G01*
X491575Y460917D02*
G03*
X491575Y460917I-2000J0D01*
G01*
X481575D02*
G03*
X481575Y460917I-2000J0D01*
G01*
X471575D02*
G03*
X471575Y460917I-2000J0D01*
G01*
X222508Y470335D02*
G03*
X222508Y470335I-2000J0D01*
G01*
X172508D02*
G03*
X172508Y470335I-2000J0D01*
G01*
X212508D02*
G03*
X212508Y470335I-2000J0D01*
G01*
X162508D02*
G03*
X162508Y470335I-2000J0D01*
G01*
X202508D02*
G03*
X202508Y470335I-2000J0D01*
G01*
X152508D02*
G03*
X152508Y470335I-2000J0D01*
G01*
X192508D02*
G03*
X192508Y470335I-2000J0D01*
G01*
X182508D02*
G03*
X182508Y470335I-2000J0D01*
G01*
X268177Y403327D02*
G03*
X268177Y403327I-2000J0D01*
G01*
X28413Y403406D02*
G03*
X28413Y403406I-2000J0D01*
G01*
X217075Y458917D02*
G03*
X217075Y458917I-2000J0D01*
G01*
X207075D02*
G03*
X207075Y458917I-2000J0D01*
G01*
X197075D02*
G03*
X197075Y458917I-2000J0D01*
G01*
D294*
X477208Y498323D02*
G03*
X477208Y498323I-1200J0D01*
G01*
X477287Y738087D02*
G03*
X477287Y738087I-1200J0D01*
G01*
X368708Y498323D02*
G03*
X368708Y498323I-1200J0D01*
G01*
X368787Y738087D02*
G03*
X368787Y738087I-1200J0D01*
G01*
X43287D02*
G03*
X43287Y738087I-1200J0D01*
G01*
X43208Y498323D02*
G03*
X43208Y498323I-1200J0D01*
G01*
X151787Y738087D02*
G03*
X151787Y738087I-1200J0D01*
G01*
X151708Y498323D02*
G03*
X151708Y498323I-1200J0D01*
G01*
X260287Y738087D02*
G03*
X260287Y738087I-1200J0D01*
G01*
X260208Y498323D02*
G03*
X260208Y498323I-1200J0D01*
G01*
X541877Y405327D02*
G03*
X541877Y405327I-1200J0D01*
G01*
X302113Y405406D02*
G03*
X302113Y405406I-1200J0D01*
G01*
X267377Y403327D02*
G03*
X267377Y403327I-1200J0D01*
G01*
X27613Y403406D02*
G03*
X27613Y403406I-1200J0D01*
G01*
M02*
